<svg version="1.1" width="304" height="249" viewBox="-1 -1 304 249" xmlns="http://www.w3.org/2000/svg" xmlns:xlink="http://www.w3.org/1999/xlink">
  <!-- Exported by Scratch - http://scratch.mit.edu/ -->
  <g id="ID0.05755155440419912" transform="matrix(1, 0, 0, 1, -173, -31)">
    <path id="ID0.17487987875938416" fill="#9F2121" stroke="none" stroke-linecap="round" d="M 231.350 204.300 C 232.796 204.549 234.066 205.515 235.350 206.300 C 236.260 206.888 237.328 207.436 237.900 208.400 C 238.117 208.767 237.524 209.355 237.100 209.400 C 236.363 209.478 235.702 208.953 235 208.750 C 233.992 208.457 233.040 208.253 232.100 208 C 231.042 207.670 229.612 207.780 229 207 C 228.629 206.525 229.572 205.859 230 205.400 C 230.417 204.956 230.782 204.202 231.350 204.300 Z "/>
    <path id="ID0.2313180356286466" fill="#9F2121" stroke="none" stroke-linecap="round" d="M 235.800 216.050 C 236.028 215.919 236.328 215.692 236.550 215.800 C 236.762 215.904 236.837 216.346 236.700 216.550 C 236.566 216.747 236.204 216.656 235.950 216.700 C 235.620 216.706 234.990 216.826 234.950 216.700 C 234.920 216.570 235.515 216.216 235.800 216.050 Z "/>
    <path id="ID0.9115952169522643" fill="#F6DDBF" stroke="#DEC4AC" stroke-width="9" stroke-linecap="round" d="M 239.750 192.500 C 242.941 192.253 246.805 185.897 248.500 188.500 C 254.429 199.027 260.132 211.836 257.750 223.500 C 256.475 229.744 246.060 229.692 239.750 230 C 230.590 230.447 220.629 230.242 212.500 226 C 209.521 224.441 212.422 219.167 213.500 216 C 213.897 214.839 215.471 216.454 216.500 214.500 C 220.614 206.674 220.376 195.972 226.750 189.750 C 230.028 186.838 235.474 192.827 239.750 192.500 Z " transform="matrix(1, 0, 0, 1, 9, -27)"/>
    <path id="ID0.2581713180989027" fill="#FFE9CC" stroke="#DEC4AC" stroke-width="9" stroke-linecap="round" d="M 189.500 54 C 207.781 53.533 227.586 62.906 240 76.500 C 252.659 90.365 258.232 111.533 258 130.500 C 257.835 146.001 250.170 163.189 238.500 174 C 226.386 185.137 208.602 192.318 192 192 C 174.560 191.613 156.157 184.652 143.500 173 C 131.667 161.603 124.436 144.016 124 128 C 123.522 110.398 129.486 90.829 141 78 C 153.050 64.600 171.546 54.459 189.500 54 Z " transform="matrix(1, 0, 0, 1, 54, -17)"/>
    <path id="ID0.17645040387287736" fill="#F6DDBF" stroke="none" stroke-linecap="round" d="M 282.300 149.950 C 286.398 133.073 275.357 111.548 279.800 97.950 C 281.563 92.613 292.128 105.012 293.800 110.950 C 298.156 124.462 299.462 139.481 296.800 152.800 C 294.724 163.145 288.377 172.800 281.050 180.300 C 273.719 187.538 264.106 192.609 254.300 195.550 C 245.777 198.099 227.275 198.197 227.800 196.950 C 228.091 195.458 249.288 192.256 257.300 185.450 C 268.355 176.103 278.888 163.997 282.300 149.950 Z " transform="matrix(1, 0, 0, 1, 9, -27)"/>
    <g id="ID0.36412396281957626" transform="matrix(1, 0, 0, 1, 173, 31)">
      <path id="ID0.8147899541072547" fill="#FFFFFF" stroke="#CCCCCC" stroke-width="3" stroke-linecap="round" d="M 116.150 161 C 120.895 160.827 126.458 161.990 129.800 165.100 C 133.101 168.175 134.761 173.313 134.650 177.750 C 134.548 181.774 132.468 186.075 129.400 188.600 C 126.153 191.353 121.446 192.548 117.300 192.250 C 113.226 191.957 108.954 190.077 106.150 187.100 C 103.547 184.335 102.392 180.285 102.300 176.600 C 102.216 172.894 103.254 168.763 105.650 166.100 C 108.254 163.211 112.351 161.139 116.150 161 Z " transform="matrix(1, 0, 0, 1, -78, -87)"/>
      <path id="ID0.8147899541072547" fill="#03342E" stroke="#03342E" stroke-width="3" stroke-linecap="round" d="M 116.150 161 C 120.895 160.827 126.458 161.990 129.800 165.100 C 133.101 168.175 134.761 173.313 134.650 177.750 C 134.548 181.774 132.468 186.075 129.400 188.600 C 126.153 191.353 121.446 192.548 117.300 192.250 C 113.226 191.957 108.954 190.077 106.150 187.100 C 103.547 184.335 102.392 180.285 102.300 176.600 C 102.216 172.894 103.254 168.763 105.650 166.100 C 108.254 163.211 112.351 161.139 116.150 161 Z " transform="matrix(0.5824817419052124, 0, 0, 0.5824817419052124, -28.4, -13.25)"/>
      <path id="ID0.8096814667806029" fill="#000000" stroke="none" stroke-linecap="round" d="M 119.900 172.100 C 121.339 172.121 122.912 172.542 123.800 173.500 C 124.654 174.422 124.905 175.879 124.800 177.100 C 124.620 178.456 124.039 179.918 123 180.750 C 122.074 181.488 120.702 181.488 119.500 181.400 C 118.357 181.316 117.131 180.890 116.319 180.081 C 115.504 179.271 114.999 178.051 115 176.900 C 115.001 175.605 115.398 174.250 116.300 173.400 C 117.260 172.482 118.677 172.080 119.900 172.100 Z " transform="matrix(1, 0, 0, 1, -79.5, -87)"/>
      <path id="ID0.7386001590639353" fill="#FFFFFF" stroke="none" stroke-linecap="round" d="M 120.650 173.700 C 121.383 174.034 121.944 174.821 122.150 175.600 C 122.370 176.458 122.049 178.220 121.700 178.250 C 121.350 178.280 121.159 176.440 120.500 175.800 C 119.956 175.201 119.104 174.945 118.300 174.750 C 117.605 174.576 116.329 174.940 116.150 174.650 C 115.986 174.385 117.011 173.628 117.650 173.500 C 118.609 173.290 119.700 173.267 120.650 173.700 Z " transform="matrix(1, 0, 0, 1, -78, -87)"/>
    </g>
    <g id="ID0.36412396281957626" transform="matrix(1, 0, 0, 1, 173, 31)">
      <path id="ID0.8147899541072547" fill="#FFFFFF" stroke="#CCCCCC" stroke-width="3" stroke-linecap="round" d="M 116.150 161 C 120.895 160.827 126.458 161.990 129.800 165.100 C 133.101 168.175 134.761 173.313 134.650 177.750 C 134.548 181.774 132.468 186.075 129.400 188.600 C 126.153 191.353 121.446 192.548 117.300 192.250 C 113.226 191.957 108.954 190.077 106.150 187.100 C 103.547 184.335 102.392 180.285 102.300 176.600 C 102.216 172.894 103.254 168.763 105.650 166.100 C 108.254 163.211 112.351 161.139 116.150 161 Z " transform="matrix(1, 0, 0, 1, -14.65, -87.5)"/>
      <path id="ID0.8147899541072547" fill="#03342E" stroke="#03342E" stroke-width="3" stroke-linecap="round" d="M 116.150 161 C 120.895 160.827 126.458 161.990 129.800 165.100 C 133.101 168.175 134.761 173.313 134.650 177.750 C 134.548 181.774 132.468 186.075 129.400 188.600 C 126.153 191.353 121.446 192.548 117.300 192.250 C 113.226 191.957 108.954 190.077 106.150 187.100 C 103.547 184.335 102.392 180.285 102.300 176.600 C 102.216 172.894 103.254 168.763 105.650 166.100 C 108.254 163.211 112.351 161.139 116.150 161 Z " transform="matrix(0.5824817419052124, 0, 0, 0.5824817419052124, 34.95, -13.75)"/>
      <path id="ID0.8096814667806029" fill="#000000" stroke="none" stroke-linecap="round" d="M 119.900 172.100 C 121.339 172.121 122.912 172.542 123.800 173.500 C 124.654 174.422 124.905 175.879 124.800 177.100 C 124.620 178.456 124.039 179.918 123 180.750 C 122.074 181.488 120.702 181.488 119.500 181.400 C 118.357 181.316 117.131 180.890 116.319 180.081 C 115.504 179.271 114.999 178.051 115 176.900 C 115.001 175.605 115.398 174.250 116.300 173.400 C 117.260 172.482 118.677 172.080 119.900 172.100 Z " transform="matrix(1, 0, 0, 1, -16.15, -87.5)"/>
      <path id="ID0.7386001590639353" fill="#FFFFFF" stroke="none" stroke-linecap="round" d="M 120.650 173.700 C 121.383 174.034 121.944 174.821 122.150 175.600 C 122.370 176.458 122.049 178.220 121.700 178.250 C 121.350 178.280 121.159 176.440 120.500 175.800 C 119.956 175.201 119.104 174.945 118.300 174.750 C 117.605 174.576 116.329 174.940 116.150 174.650 C 115.986 174.385 117.011 173.628 117.650 173.500 C 118.609 173.290 119.700 173.267 120.650 173.700 Z " transform="matrix(1, 0, 0, 1, -14.65, -87.5)"/>
    </g>
    <g id="ID0.20676132198423147" transform="matrix(1, 0, 0, 1, 173, 31)">
      <path id="ID0.04738290561363101" fill="none" stroke="#D5C2AC" stroke-width="4" stroke-linecap="round" d="M 227.500 184 C 227.500 184 231.933 185.732 234.250 186 C 237.084 186.321 239.795 186.474 242.500 186 C 244.873 185.586 249.500 183.750 249.500 183.750 " transform="matrix(1, 0, 0, 1, -164.25, -60.5)"/>
      <path id="ID0.06047635758295655" fill="none" stroke="#D5C2AC" stroke-width="4" stroke-linecap="round" d="M 224.750 179 C 224.750 179 225.724 181.288 225.750 182.500 C 225.984 183.508 225.894 184.564 225.500 185.500 C 225.172 186.408 224 188 224 188 " transform="matrix(1, 0, 0, 1, -164.25, -60.5)"/>
    </g>
    <g id="ID0.9031988508068025" transform="matrix(1, 0, 0, 1, 173, 31)">
      <path id="ID0.5492543266154826" fill="#FFFFFF" stroke="none" d="M 238.625 229.750 C 242.315 229.750 245.659 231.389 248.080 234.036 C 250.501 236.684 252 240.340 252 244.375 C 252 248.410 250.501 252.066 248.080 254.714 C 245.659 257.361 242.315 259 238.625 259 C 234.935 259 231.591 257.361 229.170 254.714 C 226.749 252.066 225.250 248.410 225.250 244.375 C 225.250 240.340 226.749 236.684 229.170 234.036 C 231.591 231.389 234.935 229.750 238.625 229.750 Z " transform="matrix(1, 0, 0, 1, -165, -62)"/>
      <path id="ID0.2085979087278247" fill="#FFFFFF" stroke="#CCCCCC" stroke-width="9" stroke-linecap="round" d="M 240 222.500 C 244.702 222.041 248.309 219.738 252.500 218.500 C 255.585 217.590 259.444 214.392 262.250 216 C 264.493 217.441 263.772 221.989 262.600 224.600 C 260.068 230.238 257.134 237.353 251.350 239.350 C 247.145 240.975 244.275 233.117 239.850 232.850 C 234.620 232.537 230.182 239.830 225.100 238.350 C 220.021 236.720 217.481 230.324 215.350 225.350 C 214.067 222.353 212.567 216.818 215.250 215.750 C 218.892 214.143 223.702 218.793 228 220 C 231.929 221.105 235.922 222.869 240 222.500 Z " transform="matrix(1, 0, 0, 1, -165, -62.25)"/>
      <g id="ID0.6519983382895589">
        <path id="ID0.06295197457075119" fill="#B19238" stroke="#997E30" stroke-width="4" stroke-linecap="round" d="M 238.050 237.200 C 239.773 237.036 241.467 238.378 242.800 239.350 C 243.969 240.209 245.516 241.320 245.500 242.750 C 245.447 245.208 242.633 247.047 242.500 249.500 C 242.348 252.500 245.474 255.382 245.250 258.500 C 244.349 265.138 242.452 277.857 239.250 277.750 C 235.994 277.639 232.690 264.994 231.400 258.050 C 230.961 255.474 234.420 253.353 234.500 250.700 C 234.418 248.297 231.601 246.553 231.400 244.100 C 231.298 242.792 232.602 241.687 233.550 240.750 C 234.910 239.406 236.200 237.576 238.050 237.200 Z " transform="matrix(1.0564334392547607, 0, 0, 1.0564334392547607, -178.9, -81.55)"/>
        <path id="ID0.7476267064921558" fill="#841A1A" stroke="none" stroke-linecap="round" d="M 230.350 241.050 C 229.259 240.282 230.924 237.668 232.100 238.050 C 236.725 239.557 243.404 244.405 245.100 246.050 C 245.984 246.897 240.164 244.458 238 243.750 C 235.430 242.916 231.996 242.970 230.350 241.050 Z " transform="matrix(1, 0, 0, 1, -165.5, -66.6)"/>
        <path id="ID0.7476267064921558" fill="#841A1A" stroke="none" stroke-linecap="round" d="M 231.600 240.600 C 230.987 239.590 232.236 237.374 233.350 237.350 C 235.460 237.322 237.416 239.046 239.100 240.400 C 241.238 242.125 245.160 246.259 245.100 246.850 C 244.803 247.348 240.192 244.744 238 243.750 C 235.837 242.775 233.079 242.470 231.600 240.600 Z " transform="matrix(-1, 0, 0, 1, 311.95, -53.65)"/>
        <path id="ID0.6796811330132186" fill="none" stroke="#997E30" stroke-width="2" stroke-linecap="round" d="M 241.700 248 C 241.700 248 240.484 249.288 239.700 249.650 C 239.093 249.931 238.362 249.751 237.700 249.850 C 237.028 249.951 236.371 250.147 235.700 250.250 C 235.503 250.280 235.100 250.250 235.100 250.250 " transform="matrix(1, 0, 0, 1, -165.5, -66.6)"/>
      </g>
      <path id="ID0.332860192283988" fill="#798390" stroke="#59606A" stroke-width="6" stroke-linecap="round" d="M 240.400 239.800 C 253.583 240.407 265.661 217.958 273.800 219.050 C 279.064 219.757 268.679 235.362 267.700 243.500 C 266.708 251.766 268.580 260.525 267.700 268.500 C 267.169 273.575 267.112 280.148 263 283 C 257.043 287.140 248.485 286.531 241.500 286.500 C 233.992 286.459 226.032 286.691 219.150 283.500 C 215.796 282.320 214.295 278.219 213.400 274.500 C 210.899 264.052 211.287 253.050 209.250 242.500 C 207.561 233.759 196.107 216.544 202.050 216.050 C 211.939 215.241 225.471 239.232 240.400 239.800 Z " transform="matrix(0.9583028554916382, 0, 0, 1, -157, -51)"/>
      <path id="ID0.027637152932584286" fill="#101010" stroke="#000000" stroke-width="7" stroke-linecap="round" d="M 216 315.500 C 219.867 312.700 225.548 313.184 230.250 314 C 232.839 314.409 236.119 316.178 236.750 318.750 C 237.346 322.224 235.281 325.982 233.250 328.750 C 230.972 331.943 227.516 334.282 224 336 C 220.407 337.755 216.241 339.977 212.250 339.250 C 208.930 338.636 204.396 335.485 205 332 C 205.964 325.553 210.505 319.481 216 315.500 Z " transform="matrix(0.9383431077003479, 0.3457053601741791, -0.3457053601741791, 0.9383431077003479, -43.3, -119.3)"/>
      <path id="ID0.027637152932584286" fill="#101010" stroke="#000000" stroke-width="7" stroke-linecap="round" d="M 216 315.500 C 219.867 312.700 225.548 313.184 230.250 314 C 232.839 314.409 236.119 316.178 236.750 318.750 C 237.346 322.224 235.281 325.982 233.250 328.750 C 230.972 331.943 227.516 334.282 224 336 C 220.407 337.755 216.241 339.977 212.250 339.250 C 208.930 338.636 204.396 335.485 205 332 C 205.964 325.553 210.505 319.481 216 315.500 Z " transform="matrix(-0.9383431077003479, 0.34570538997650146, 0.34570538997650146, 0.9383431077003479, 189.85, -119.2)"/>
      <path id="ID0.11989733157679439" fill="#525252" stroke="#2B2B2B" stroke-width="7" stroke-linecap="round" d="M 238 289.500 C 248.298 289.971 260.632 283.901 269.500 289.500 C 275.277 293.149 271.566 303.156 271.500 310 C 271.055 313.982 271.531 319.622 268 321.500 C 260.811 325.305 251.003 326.420 243 324 C 239.259 322.853 240.932 313.406 239.500 313.500 C 238.068 313.406 240.021 322.459 236.500 324 C 230.530 326.580 223.041 325.851 217 322.500 C 213.318 320.453 213.330 314.646 213 310.500 C 212.446 303.354 211.237 295.072 214.500 289 C 216.237 285.763 221.784 288.009 225.500 288 C 229.523 287.990 233.814 289.305 238 289.500 Z " transform="matrix(1, 0, 0, 1, -166, -65.5)"/>
      <path id="ID0.28951870184391737" fill="#464646" stroke="none" stroke-linecap="round" d="M 217.500 287.600 C 221.314 285.497 219.562 285.122 221 285.050 C 223.779 284.916 226.226 286.269 228.750 286.550 C 231.978 287.186 235.169 287.898 238.250 287.800 C 242.520 287.660 246.760 286.895 251 286.300 C 253.796 285.916 257.350 283.174 260 284.800 C 262.229 286.334 263.948 291.643 261.500 293.100 C 254.643 297.179 245.851 296.840 238 297.600 C 233.339 297.932 228.682 296.498 224.250 296.350 C 220.255 296.218 214.023 298.913 212.250 296.600 C 210.701 294.571 215.295 290.270 217.500 287.600 Z " transform="matrix(1, 0, 0, 1, -165.25, -60.85)"/>
      <path id="ID0.08257233118638396" fill="#6C7681" stroke="none" stroke-linecap="round" d="M 224.250 243.650 C 224.571 241.722 228.608 245.973 230.750 247.400 C 233.186 249.473 236.507 251.121 238 254.150 C 239.990 258.209 239.509 263.068 240 267.400 C 240.425 270.734 240.885 274.002 240.750 277.150 C 240.619 279.600 241.854 283.730 239.500 284.400 C 235.667 285.485 230.977 283.230 228 280.400 C 226.419 279.077 228.264 276.349 228.250 274.150 C 228.228 269.905 228.603 265.524 228 261.400 C 227.119 255.425 223.474 248.627 224.250 243.650 Z " transform="matrix(-1, 0, 0, 1, 320, -64.6)"/>
      <g id="ID0.7576187397353351">
        <path id="ID0.9109134683385491" fill="#080016" stroke="#030007" stroke-width="9" stroke-linecap="round" d="M 257 277 C 259.123 293.392 259.389 310.676 259 327.500 C 258.851 334.030 261.182 343.853 255.500 347 C 245.877 351.613 232.326 351.435 223.500 345.500 C 218.097 341.865 224.460 332.366 224.500 326 C 224.126 315.195 221.722 304.452 222.500 294 C 223.591 279.535 223.578 264.239 229.500 251 C 233.016 243.159 242.309 236.697 249 235 C 251.809 233.943 247.846 242.061 248.500 245.500 C 250.470 255.839 255.603 266.226 257 277 Z " transform="matrix(-1, 0, 0, 1, 348.75, -81)"/>
        <path id="ID0.7683732970617712" fill="#080013" stroke="none" stroke-linecap="round" d="M 272 223 C 272.307 219.249 281.443 232.366 283 238.500 C 286.495 252.295 286.815 266.120 287 280 C 287.116 288.331 284.619 296.971 284.500 305.500 C 284.431 310.783 291.429 318.666 287 322 C 280.132 327.172 262.755 325.209 261 324 C 259.267 322.303 273.867 319.258 278 314.500 C 279.990 312.209 276.291 309.238 276.500 305.500 C 277.336 290.566 281.939 275.627 281 260.500 C 280.419 247.754 271.420 230.003 272 223 Z " transform="matrix(1, 0, 0, 1, -165, -60)"/>
      </g>
      <path id="ID0.08257233118638396" fill="#6C7681" stroke="none" stroke-linecap="round" d="M 224.250 243.650 C 224.571 241.722 228.608 245.973 230.750 247.400 C 233.186 249.473 236.507 251.121 238 254.150 C 239.990 258.209 239.509 263.068 240 267.400 C 240.425 270.734 240.885 274.002 240.750 277.150 C 240.619 279.600 241.854 283.730 239.500 284.400 C 235.667 285.485 230.977 283.230 228 280.400 C 226.419 279.077 228.264 276.349 228.250 274.150 C 228.228 269.905 228.603 265.524 228 261.400 C 227.119 255.425 223.474 248.627 224.250 243.650 Z " transform="matrix(1, 0, 0, 1, -174.5, -65.35)"/>
      <g id="ID0.7576187397353351">
        <path id="ID0.9109134683385491" fill="#080016" stroke="#030007" stroke-width="9" stroke-linecap="round" d="M 257 277 C 259.123 293.392 259.389 310.676 259 327.500 C 258.851 334.030 261.182 343.853 255.500 347 C 245.877 351.613 232.326 351.435 223.500 345.500 C 218.097 341.865 224.460 332.366 224.500 326 C 224.126 315.195 221.722 304.452 222.500 294 C 223.591 279.535 223.578 264.239 229.500 251 C 233.016 243.159 242.309 236.697 249 235 C 251.809 233.943 247.846 242.061 248.500 245.500 C 250.470 255.839 255.603 266.226 257 277 Z " transform="matrix(1, 0, 0, 1, -202.7, -81)"/>
        <path id="ID0.7683732970617712" fill="#080013" stroke="none" stroke-linecap="round" d="M 272 223 C 272.307 219.249 281.443 232.366 283 238.500 C 286.495 252.295 286.815 266.120 287 280 C 287.116 288.331 284.619 296.971 284.500 305.500 C 284.431 310.783 291.429 318.666 287 322 C 280.132 327.172 262.755 325.209 261 324 C 259.267 322.303 273.867 319.258 278 314.500 C 279.990 312.209 276.291 309.238 276.500 305.500 C 277.336 290.566 281.939 275.627 281 260.500 C 280.419 247.754 271.420 230.003 272 223 Z " transform="matrix(-1, 0, 0, 1, 311.05, -60)"/>
      </g>
      <path id="ID0.2914486052468419" fill="#E1E1E1" stroke="none" stroke-linecap="round" d="M 238.500 222.600 C 240.616 222.702 242.699 221.994 244.750 221.500 C 246.378 220.990 247.906 220.184 249.500 219.600 C 252.299 218.574 256.906 214.988 257.900 216.500 C 259.062 218.275 255.357 223.230 253.600 226.350 C 252.776 227.818 251.620 228.944 250.400 230 C 250.017 230.331 248.739 231.115 249 230.600 C 250.017 228.265 251.796 226.341 253 224.200 C 253.896 222.609 256.395 219.450 255.250 219.200 C 253.352 218.788 250.021 222.104 247.100 222.850 C 244.207 223.722 241.143 223.943 238 224 C 235.029 224.055 232.033 223.827 229.100 223.350 C 227.401 223.086 225.704 222.390 224.100 221.600 C 222.787 221.049 220.877 218.661 220.400 219.350 C 219.794 220.254 221.210 223.309 222 225 C 222.809 226.719 225.143 228.686 225.250 229.700 C 225.316 230.314 222.900 229.119 222.400 228.200 C 220.248 224.543 216.141 218.496 217.600 216.500 C 218.885 214.747 224.276 219.439 227.750 220.500 C 231.258 221.572 234.857 222.421 238.500 222.600 Z " transform="matrix(1, 0, 0, 1, -164, -58)"/>
    </g>
    <path id="ID0.17487987875938416" fill="#9F2121" stroke="none" stroke-linecap="round" d="M 231.350 204.300 C 232.796 204.549 234.066 205.515 235.350 206.300 C 236.260 206.888 237.328 207.436 237.900 208.400 C 238.117 208.767 237.524 209.355 237.100 209.400 C 236.363 209.478 235.702 208.953 235 208.750 C 233.992 208.457 233.040 208.253 232.100 208 C 231.042 207.670 229.612 207.780 229 207 C 228.629 206.525 229.572 205.859 230 205.400 C 230.417 204.956 230.782 204.202 231.350 204.300 Z " transform="matrix(1, 0, 0, 1, 12, 0)"/>
    <path id="ID0.2313180356286466" fill="#9F2121" stroke="none" stroke-linecap="round" d="M 235.800 216.050 C 236.028 215.919 236.328 215.692 236.550 215.800 C 236.762 215.904 236.837 216.346 236.700 216.550 C 236.566 216.747 236.204 216.656 235.950 216.700 C 235.620 216.706 234.990 216.826 234.950 216.700 C 234.920 216.570 235.515 216.216 235.800 216.050 Z " transform="matrix(1, 0, 0, 1, 12, 0.05)"/>
    <path id="ID0.06561286142095923" fill="#ED8501" stroke="#995900" stroke-width="8" stroke-linecap="round" d="M 254 34 C 270.559 34.626 288.810 40.462 303 51 C 313.569 58.840 319.804 72.237 324 86 C 325.806 91.961 324.062 103.886 318 104 C 300.002 103.026 285.413 84.486 268 84 C 261.887 83.843 266.844 101.125 261 101 C 246.056 100.636 233.762 85.972 219 85 C 210.679 84.449 202.109 98.866 196 96 C 190.826 93.578 192.887 80.735 196 74 C 201.018 63.413 209.133 53.487 219 47 C 229.524 40.084 241.653 33.808 254 34 Z " transform="matrix(1, 0, 0, 1, -13, 1)"/>
    <path id="ID0.040927080903202295" fill="#CC7700" stroke="none" stroke-linecap="round" d="M 284 65 C 287.531 66.935 292.607 79.902 295 88.500 C 296.105 92.490 296.035 98.139 293 101 C 290.438 102.998 286.482 99.839 283.500 98.500 C 274.564 94.488 265.998 89.740 257 86 C 249.775 82.909 245.078 79.756 240 82.500 C 235.373 85.007 239.989 94.502 236 98 C 232.724 100.349 227.705 96.664 224 95.500 C 213.468 91.813 204.124 83.277 193 83 C 185.133 82.809 172.292 95.321 172 95 C 171.833 94.309 182.189 79.115 190.500 77.500 C 202.115 75.240 213.299 86.422 225 85.500 C 230.481 84.722 233.502 77.639 236 73 C 241.347 63.063 244.983 41.685 248.500 41.500 C 252.022 41.317 246.595 63.180 253 71 C 259.274 78.658 270.946 82.555 281 81 C 286.348 80.158 280.922 63.454 284 65 Z " transform="matrix(1, 0, 0, 1, 12, 0)"/>
    <path id="ID0.22289733635261655" fill="#FF9400" stroke="none" stroke-linecap="round" d="M 215 41 C 224.398 37.185 240.577 40.906 245 42.500 C 247.581 43.440 234.025 43.701 229.500 46.500 C 224.213 49.792 222.958 58.855 217 61.500 C 211.163 63.421 204.195 56.291 198.500 58.500 C 192.037 61.018 187.785 67.515 183.500 73 C 178.943 78.831 172.301 92.937 171.500 92.500 C 171.066 91.926 172.791 74.727 178 68.500 C 187.863 56.712 200.725 46.371 215 41 Z " transform="matrix(1, 0, 0, 1, 12, 0)"/>
    <g id="ID0.2857655715197325" transform="matrix(1, 0, 0, 1, 173, 31)">
      <g id="ID0.6140896948054433">
        <path id="ID0.06815083650872111" fill="#491C18" stroke="#3F1715" stroke-width="6" stroke-linecap="round" d="M 214 180 C 217.327 181.176 212.585 190.132 213.500 195 C 214.610 200.899 217.775 206.253 219.500 212 C 220.963 216.861 223.468 224.608 222.400 226.750 C 221.858 228.289 218.239 222.381 216 220 C 210.721 214.366 204.418 209.536 200.500 202.750 C 198.293 198.938 195.807 193.620 198 189.750 C 201.012 184.450 209.577 178.542 214 180 Z " transform="matrix(1, 0, 0, 1, -166.15, -26.5)"/>
        <path id="ID0.973612844478339" fill="#612520" stroke="none" stroke-linecap="round" d="M 200.750 189.500 C 203.166 186.233 209.713 182.573 210.750 183.250 C 211.821 183.678 206.594 188.739 206 192.250 C 205.480 195.341 206.881 198.703 207.750 201.500 C 208.572 204.166 210.040 206.614 211.500 209 C 213.142 211.808 215.753 213.994 217.500 216.750 C 218.364 218.115 219.153 219.755 219.150 220.750 C 219.153 221.373 218.383 220.936 217.500 220 C 213.983 216.268 210.275 212.800 207.250 208.500 C 204.659 204.919 202.315 201.002 200.750 196.500 C 199.988 194.294 199.364 191.374 200.750 189.500 Z " transform="matrix(1, 0, 0, 1, -166.15, -26.5)"/>
      </g>
      <g id="ID0.6140896948054433">
        <path id="ID0.06815083650872111" fill="#491C18" stroke="#3F1715" stroke-width="6" stroke-linecap="round" d="M 214 180 C 217.327 181.176 212.585 190.132 213.500 195 C 214.610 200.899 218.160 206.148 219.500 212 C 220.603 216.820 221.907 224.344 221 226.600 C 220.278 228.068 217.784 222.115 216 220 C 211.021 214.097 204.418 209.536 200.500 202.750 C 198.293 198.938 195.807 193.620 198 189.750 C 201.012 184.450 209.577 178.542 214 180 Z " transform="matrix(-1, 0, 0, 1, 312.25, -27.85)"/>
        <path id="ID0.973612844478339" fill="#612520" stroke="none" stroke-linecap="round" d="M 200.750 189.500 C 203.166 186.233 209.713 182.573 210.750 183.250 C 211.821 183.678 206.594 188.739 206 192.250 C 205.480 195.341 206.881 198.703 207.750 201.500 C 208.572 204.166 210.040 206.614 211.500 209 C 213.142 211.808 215.811 213.959 217.500 216.750 C 218.774 218.845 219.875 222.708 219.750 223.350 C 219.875 224.015 218.495 221.137 217.500 220 C 214.138 216.127 210.275 212.800 207.250 208.500 C 204.659 204.919 202.315 201.002 200.750 196.500 C 199.988 194.294 199.364 191.374 200.750 189.500 Z " transform="matrix(-1, 0, 0, 1, 312.25, -27.85)"/>
      </g>
    </g>
  </g>
</svg>