<svg version="1.1" width="173" height="299" viewBox="-1 -1 173 299" xmlns="http://www.w3.org/2000/svg" xmlns:xlink="http://www.w3.org/1999/xlink">
  <!-- Exported by Scratch - http://scratch.mit.edu/ -->
  <g id="ID0.07973293215036392">
    <g id="ID0.7143896697089076">
      <g id="ID0.6453377772122622">
        <path id="ID0.8428573221899569" fill="#CFAF7A" stroke="#C7A875" stroke-width="7" d="M 277 165 C 279.759 165 282.259 166.653 284.069 169.323 C 285.879 171.993 287 175.681 287 179.750 C 287 183.819 285.879 187.507 284.069 190.177 C 282.259 192.847 279.759 194.500 277 194.500 C 274.241 194.500 271.741 192.847 269.931 190.177 C 268.121 187.507 267 183.819 267 179.750 C 267 175.681 268.121 171.993 269.931 169.323 C 271.741 166.653 274.241 165 277 165 Z " transform="matrix(-1, 0, 0, 1, 319.6, -12.35)"/>
        <path id="ID0.9115952169522643" fill="#F6DDBF" stroke="#DEC4AC" stroke-width="9" stroke-linecap="round" d="M 239.750 192.500 C 242.941 192.253 246.805 185.897 248.500 188.500 C 254.429 199.027 260.132 211.836 257.750 223.500 C 256.475 229.744 246.060 229.692 239.750 230 C 230.590 230.447 220.629 230.242 212.500 226 C 209.521 224.441 212.422 219.167 213.500 216 C 213.897 214.839 215.471 216.454 216.500 214.500 C 220.614 206.674 220.376 195.972 226.750 189.750 C 230.028 186.838 235.474 192.827 239.750 192.500 Z " transform="matrix(1, 0, 0, 1, -148.15, -39.35)"/>
        <path id="ID0.8428573221899569" fill="#CFAF7A" stroke="#C7A875" stroke-width="7" d="M 277 165 C 279.759 165 282.259 166.653 284.069 169.323 C 285.879 171.993 287 175.681 287 179.750 C 287 183.819 285.879 187.507 284.069 190.177 C 282.259 192.847 279.759 194.500 277 194.500 C 274.241 194.500 271.741 192.847 269.931 190.177 C 268.121 187.507 267 183.819 267 179.750 C 267 175.681 268.121 171.993 269.931 169.323 C 271.741 166.653 274.241 165 277 165 Z " transform="matrix(1, 0, 0, 1, -145.15, -12.35)"/>
        <path id="ID0.2581713180989027" fill="#FFE9CC" stroke="#DEC4AC" stroke-width="9" stroke-linecap="round" d="M 189.500 54 C 207.781 53.533 227.586 62.906 240 76.500 C 252.659 90.365 258.232 111.533 258 130.500 C 257.835 146.001 250.170 163.189 238.500 174 C 226.386 185.137 208.602 192.318 192 192 C 174.560 191.613 156.157 184.652 143.500 173 C 131.667 161.603 124.436 144.016 124 128 C 123.522 110.398 129.486 90.829 141 78 C 153.050 64.600 171.546 54.459 189.500 54 Z " transform="matrix(1, 0, 0, 1, -103.15, -29.35)"/>
        <path id="ID0.17645040387287736" fill="#F6DDBF" stroke="none" stroke-linecap="round" d="M 282.300 149.950 C 286.398 133.073 275.357 111.548 279.800 97.950 C 281.563 92.613 292.128 105.012 293.800 110.950 C 298.156 124.462 299.462 139.481 296.800 152.800 C 294.724 163.145 288.377 172.800 281.050 180.300 C 273.719 187.538 264.106 192.609 254.300 195.550 C 245.777 198.099 227.275 198.197 227.800 196.950 C 228.091 195.458 249.288 192.256 257.300 185.450 C 268.355 176.103 278.888 163.997 282.300 149.950 Z " transform="matrix(1, 0, 0, 1, -148.15, -39.35)"/>
        <g id="ID0.36412396281957626">
          <path id="ID0.8147899541072547" fill="#FFFFFF" stroke="#CCCCCC" stroke-width="3" stroke-linecap="round" d="M 116.150 161 C 120.895 160.827 126.458 161.990 129.800 165.100 C 133.101 168.175 134.761 173.313 134.650 177.750 C 134.548 181.774 132.468 186.075 129.400 188.600 C 126.153 191.353 121.446 192.548 117.300 192.250 C 113.226 191.957 108.954 190.077 106.150 187.100 C 103.547 184.335 102.392 180.285 102.300 176.600 C 102.216 172.894 103.254 168.763 105.650 166.100 C 108.254 163.211 112.351 161.139 116.150 161 Z " transform="matrix(1, 0, 0, 1, -62.15, -68.35)"/>
          <path id="ID0.8147899541072547" fill="#5F6979" stroke="#5F6979" stroke-width="3" stroke-linecap="round" d="M 116.150 161 C 120.895 160.827 126.458 161.990 129.800 165.100 C 133.101 168.175 134.761 173.313 134.650 177.750 C 134.548 181.774 132.468 186.075 129.400 188.600 C 126.153 191.353 121.446 192.548 117.300 192.250 C 113.226 191.957 108.954 190.077 106.150 187.100 C 103.547 184.335 102.392 180.285 102.300 176.600 C 102.216 172.894 103.254 168.763 105.650 166.100 C 108.254 163.211 112.351 161.139 116.150 161 Z " transform="matrix(0.5824817419052124, 0, 0, 0.5824817419052124, -12.55, 5.35)"/>
          <path id="ID0.8096814667806029" fill="#000000" stroke="none" stroke-linecap="round" d="M 119.900 172.100 C 121.339 172.121 122.912 172.542 123.800 173.500 C 124.654 174.422 124.905 175.879 124.800 177.100 C 124.620 178.456 124.039 179.918 123 180.750 C 122.074 181.488 120.702 181.488 119.500 181.400 C 118.357 181.316 117.131 180.890 116.319 180.081 C 115.504 179.271 114.999 178.051 115 176.900 C 115.001 175.605 115.398 174.250 116.300 173.400 C 117.260 172.482 118.677 172.080 119.900 172.100 Z " transform="matrix(1, 0, 0, 1, -63.65, -68.35)"/>
          <path id="ID0.7386001590639353" fill="#FFFFFF" stroke="none" stroke-linecap="round" d="M 120.650 173.700 C 121.383 174.034 121.944 174.821 122.150 175.600 C 122.370 176.458 122.049 178.220 121.700 178.250 C 121.350 178.280 121.159 176.440 120.500 175.800 C 119.956 175.201 119.104 174.945 118.300 174.750 C 117.605 174.576 116.329 174.940 116.150 174.650 C 115.986 174.385 117.011 173.628 117.650 173.500 C 118.609 173.290 119.700 173.267 120.650 173.700 Z " transform="matrix(1, 0, 0, 1, -62.15, -68.35)"/>
        </g>
        <g id="ID0.36412396281957626">
          <path id="ID0.8147899541072547" fill="#FFFFFF" stroke="#CCCCCC" stroke-width="3" stroke-linecap="round" d="M 116.150 161 C 120.895 160.827 126.458 161.990 129.800 165.100 C 133.101 168.175 134.761 173.313 134.650 177.750 C 134.548 181.774 132.468 186.075 129.400 188.600 C 126.153 191.353 121.446 192.548 117.300 192.250 C 113.226 191.957 108.954 190.077 106.150 187.100 C 103.547 184.335 102.392 180.285 102.300 176.600 C 102.216 172.894 103.254 168.763 105.650 166.100 C 108.254 163.211 112.351 161.139 116.150 161 Z " transform="matrix(1, 0, 0, 1, 1.1, -68.85)"/>
          <path id="ID0.8147899541072547" fill="#5F6979" stroke="#5F6979" stroke-width="3" stroke-linecap="round" d="M 116.150 161 C 120.895 160.827 126.458 161.990 129.800 165.100 C 133.101 168.175 134.761 173.313 134.650 177.750 C 134.548 181.774 132.468 186.075 129.400 188.600 C 126.153 191.353 121.446 192.548 117.300 192.250 C 113.226 191.957 108.954 190.077 106.150 187.100 C 103.547 184.335 102.392 180.285 102.300 176.600 C 102.216 172.894 103.254 168.763 105.650 166.100 C 108.254 163.211 112.351 161.139 116.150 161 Z " transform="matrix(0.5824817419052124, 0, 0, 0.5824817419052124, 50.8, 4.85)"/>
          <path id="ID0.8096814667806029" fill="#000000" stroke="none" stroke-linecap="round" d="M 119.900 172.100 C 121.339 172.121 122.912 172.542 123.800 173.500 C 124.654 174.422 124.905 175.879 124.800 177.100 C 124.620 178.456 124.039 179.918 123 180.750 C 122.074 181.488 120.702 181.488 119.500 181.400 C 118.357 181.316 117.131 180.890 116.319 180.081 C 115.504 179.271 114.999 178.051 115 176.900 C 115.001 175.605 115.398 174.250 116.300 173.400 C 117.260 172.482 118.677 172.080 119.900 172.100 Z " transform="matrix(1, 0, 0, 1, -0.25, -68.85)"/>
          <path id="ID0.7386001590639353" fill="#FFFFFF" stroke="none" stroke-linecap="round" d="M 120.650 173.700 C 121.383 174.034 121.944 174.821 122.150 175.600 C 122.370 176.458 122.049 178.220 121.700 178.250 C 121.350 178.280 121.159 176.440 120.500 175.800 C 119.956 175.201 119.104 174.945 118.300 174.750 C 117.605 174.576 116.329 174.940 116.150 174.650 C 115.986 174.385 117.011 173.628 117.650 173.500 C 118.609 173.290 119.700 173.267 120.650 173.700 Z " transform="matrix(1, 0, 0, 1, 1.1, -68.85)"/>
        </g>
        <g id="ID0.20676132198423147">
          <path id="ID0.04738290561363101" fill="none" stroke="#D5C2AC" stroke-width="4" stroke-linecap="round" d="M 227.500 184 C 227.500 184 231.933 185.732 234.250 186 C 237.084 186.321 239.795 186.474 242.500 186 C 244.873 185.586 249.500 183.750 249.500 183.750 " transform="matrix(1, 0, 0, 1, -148.4, -41.85)"/>
          <path id="ID0.06047635758295655" fill="none" stroke="#D5C2AC" stroke-width="4" stroke-linecap="round" d="M 224.750 179 C 224.750 179 225.724 181.288 225.750 182.500 C 225.984 183.508 225.894 184.564 225.500 185.500 C 225.172 186.408 224 188 224 188 " transform="matrix(1, 0, 0, 1, -148.4, -41.85)"/>
        </g>
        <path id="ID0.332860192283988" fill="#7A6C44" stroke="#645638" stroke-width="6" stroke-linecap="round" d="M 218.050 206.500 C 221.283 205.459 224.985 207.767 228.500 208 C 236.461 208.486 244.795 208.826 253.050 208.500 C 259.241 208.496 266.023 204.216 271.800 207 C 275.504 208.775 274.275 215.149 273.800 219.050 C 272.783 227.378 268.679 235.362 267.700 243.500 C 266.708 251.766 268.580 260.525 267.700 268.500 C 267.169 273.575 267.112 280.148 263 283 C 257.043 287.140 248.485 286.531 241.500 286.500 C 233.992 286.459 226.032 286.691 219.150 283.500 C 215.796 282.320 214.295 278.219 213.400 274.500 C 210.899 264.052 211.287 253.050 209.250 242.500 C 207.561 233.759 199.572 224.824 202.050 216.050 C 203.786 209.941 212.148 208.410 218.050 206.500 Z " transform="matrix(0.9583028554916382, 0, 0, 1, -141.15, -32.35)"/>
        <path id="ID0.027637152932584286" fill="#101010" stroke="#2E281C" stroke-width="7" stroke-linecap="round" d="M 216 315.500 C 219.867 312.700 225.548 313.184 230.250 314 C 232.839 314.409 236.119 316.178 236.750 318.750 C 237.346 322.224 235.281 325.982 233.250 328.750 C 230.972 331.943 227.516 334.282 224 336 C 220.407 337.755 216.241 339.977 212.250 339.250 C 208.930 338.636 204.396 335.485 205 332 C 205.964 325.553 210.505 319.481 216 315.500 Z " transform="matrix(0.9383431077003479, 0.3457053601741791, -0.3457053601741791, 0.9383431077003479, -27.4, -100.65)"/>
        <path id="ID0.027637152932584286" fill="#2E281C" stroke="#2E281C" stroke-width="7" stroke-linecap="round" d="M 216 315.500 C 219.867 312.700 225.548 313.184 230.250 314 C 232.839 314.409 236.119 316.178 236.750 318.750 C 237.346 322.224 235.281 325.982 233.250 328.750 C 230.972 331.943 227.516 334.282 224 336 C 220.407 337.755 216.241 339.977 212.250 339.250 C 208.930 338.636 204.396 335.485 205 332 C 205.964 325.553 210.505 319.481 216 315.500 Z " transform="matrix(-0.9383431077003479, 0.34570538997650146, 0.34570538997650146, 0.9383431077003479, 205.7, -100.55)"/>
        <path id="ID0.11989733157679439" fill="#70613F" stroke="#645638" stroke-width="7" stroke-linecap="round" d="M 238 289.500 C 248.298 289.971 260.632 283.901 269.500 289.500 C 275.277 293.149 271.566 303.156 271.500 310 C 271.055 313.982 271.619 319.789 268 321.500 C 262.049 324.314 255.158 320.860 248.750 320.750 C 243.910 320.671 238.686 320.521 233.500 320.750 C 228.100 321.104 222.177 325.038 217 322.500 C 213.219 320.643 213.330 314.646 213 310.500 C 212.446 303.354 211.237 295.072 214.500 289 C 216.237 285.763 221.784 288.009 225.500 288 C 229.523 287.990 233.814 289.305 238 289.500 Z " transform="matrix(1, 0, 0, 1, -150.15, -46.85)"/>
        <path id="ID0.28951870184391737" fill="#464646" stroke="none" stroke-linecap="round" d="M 217.500 287.600 C 221.314 285.497 219.562 285.122 221 285.050 C 223.779 284.916 226.226 286.269 228.750 286.550 C 231.978 287.186 235.169 287.898 238.250 287.800 C 242.520 287.660 246.760 286.895 251 286.300 C 253.796 285.916 257.350 283.174 260 284.800 C 262.229 286.334 263.948 291.643 261.500 293.100 C 254.643 297.179 245.851 296.840 238 297.600 C 233.339 297.932 228.682 296.498 224.250 296.350 C 220.255 296.218 214.023 298.913 212.250 296.600 C 210.701 294.571 215.295 290.270 217.500 287.600 Z " transform="matrix(1, 0, 0, 1, -149.4, -42.2)"/>
        <path id="ID0.15153912967070937" fill="#70613F" stroke="none" stroke-linecap="round" d="M 357.750 194 C 359.787 191.490 364.211 192.613 367.250 192 C 369.828 191.494 372.228 189.991 375 190.500 C 377.257 190.941 379.788 192.746 380.250 195 C 381.934 203.266 379.978 212.371 380.500 221 C 380.947 227.847 385.383 235.635 383.250 240.750 C 382.043 243.239 377.888 238.185 375 238 C 369.655 237.657 362.887 243.439 359 239.750 C 354.261 235.245 356.758 227.122 356.250 220.750 C 355.848 215.688 355.765 210.681 356 205.750 C 356.266 201.745 355.312 197.006 357.750 194 Z " transform="matrix(-1, 0, 0, 1, 437.3, -14.6)"/>
        <path id="ID0.15153912967070937" fill="#70613F" stroke="none" stroke-linecap="round" d="M 357.750 194 C 359.787 191.490 364.211 192.613 367.250 192 C 369.828 191.494 372.228 189.991 375 190.500 C 377.257 190.941 379.788 192.746 380.250 195 C 381.934 203.266 379.978 212.371 380.500 221 C 380.947 227.847 385.383 235.635 383.250 240.750 C 382.043 243.239 377.888 238.185 375 238 C 369.655 237.657 362.887 243.439 359 239.750 C 354.261 235.245 356.758 227.122 356.250 220.750 C 355.848 215.688 355.765 210.681 356 205.750 C 356.266 201.745 355.312 197.006 357.750 194 Z " transform="matrix(1, 0, 0, 1, -260.4, -14.1)"/>
        <g id="ID0.7576187397353351">
          <path id="ID0.9109134683385491" fill="#A28C62" stroke="#6D5D43" stroke-width="9" stroke-linecap="round" d="M 267.750 287 C 269.916 291.993 272.513 297.424 272.750 303 C 273.012 309.224 271.902 315.584 269.750 321.500 C 266.079 330.436 264.061 342.476 255.500 347 C 246.068 351.981 232.326 351.435 223.500 345.500 C 218.097 341.865 224.460 332.366 224.500 326 C 224.126 315.195 221.722 304.452 222.500 294 C 223.591 279.535 223.578 264.239 229.500 251 C 233.016 243.159 242.309 236.697 249 235 C 251.809 233.943 247.240 241.973 248.500 245.500 C 253.536 259.595 261.826 272.810 267.750 287 Z " transform="matrix(-1, 0, 0, 1, 364.6, -62.35)"/>
          <path id="ID0.7683732970617712" fill="#8A7655" stroke="none" stroke-linecap="round" d="M 272 223 C 272.307 219.249 281.443 232.366 283 238.500 C 286.495 252.295 286.815 266.120 287 280 C 287.116 288.331 284.619 296.971 284.500 305.500 C 284.431 310.783 290.468 317.680 287 322 C 283.255 326.551 275.595 324.927 269.750 324.750 C 265.729 324.412 256.868 322.310 258.250 320.500 C 260.437 317.717 272.647 318.951 278 314.500 C 280.336 312.558 276.291 309.238 276.500 305.500 C 277.336 290.566 281.939 275.627 281 260.500 C 280.419 247.754 271.420 230.003 272 223 Z " transform="matrix(1, 0, 0, 1, -149.15, -41.35)"/>
        </g>
        <g id="ID0.7576187397353351">
          <path id="ID0.9109134683385491" fill="#A28C62" stroke="#6D5D43" stroke-width="9" stroke-linecap="round" d="M 258.700 271 C 263.375 281.749 271.706 290.707 273.200 302 C 274.748 313.598 272.068 326.527 267.700 338 C 265.795 342.474 260.674 345.928 255.500 347 C 245.060 349.121 232.326 351.435 223.500 345.500 C 218.097 341.865 224.460 332.366 224.500 326 C 224.126 315.195 221.722 304.452 222.500 294 C 223.591 279.535 223.578 264.239 229.500 251 C 233.016 243.159 242.309 236.697 249 235 C 251.809 233.943 247.666 242.101 248.500 245.500 C 250.750 254.713 255.057 262.612 258.700 271 Z " transform="matrix(1, 0, 0, 1, -186.85, -62.35)"/>
          <path id="ID0.7683732970617712" fill="#8A7655" stroke="none" stroke-linecap="round" d="M 272 223 C 272.307 219.249 281.443 232.366 283 238.500 C 286.495 252.295 286.815 266.120 287 280 C 287.116 288.331 284.619 296.971 284.500 305.500 C 284.431 310.783 291.907 319.394 287 322 C 277.875 326.842 257.095 321.741 255.550 320.500 C 254.192 319.322 271.882 319.013 278 314.500 C 280.443 312.695 276.291 309.238 276.500 305.500 C 277.336 290.566 281.939 275.627 281 260.500 C 280.419 247.754 271.420 230.003 272 223 Z " transform="matrix(-1, 0, 0, 1, 326.9, -41.35)"/>
        </g>
        <path id="ID0.6288565471768379" fill="#CFAF7A" stroke="#C7A875" stroke-width="7" d="M 228.500 186.500 C 234.675 186.270 241.639 189.329 247.500 186.500 C 257.148 182.283 265.360 174.735 272.500 166.500 C 280.205 157.615 289.736 135.764 291 136.500 C 292.608 137.330 288.331 161.159 283.500 172.500 C 278.994 183.080 270.583 191.629 264 201 C 258.157 209.312 252.236 217.462 246.500 226 C 244.252 229.340 242.421 233.374 239 235.500 C 234.724 238.159 229.528 240.950 224.500 240.500 C 218.743 239.482 213.711 235.270 209.500 231.500 C 202.687 225.414 196.976 218.122 192 210.500 C 183.538 197.507 175.334 184.013 169 169.500 C 164.932 160.020 160.082 139.014 161 139 C 161.922 138.999 169.859 162.428 178.500 171 C 186.972 179.354 198.914 184.846 210.500 188.500 C 215.879 190.181 222.441 186.710 228.500 186.500 Z " transform="matrix(1, 0, 0, 1, -138.65, -31.35)"/>
        <path id="ID0.869144746568054" fill="#D5BC96" stroke="none" stroke-linecap="round" d="M 222 190.500 C 226.827 190.307 223.042 219.946 231.500 218.500 C 245.542 216.571 267.111 182.465 267 183.750 C 266.889 185.035 244.165 217.678 230 232.500 C 226.603 236.032 221.858 236.505 217.500 235.500 C 213.066 234.418 210.324 229.520 207.250 226.500 C 201.745 221.095 196.077 215.757 191.500 209.500 C 185.772 201.095 172.960 181.248 176.500 182.750 C 180.276 184.368 197.311 217.216 211.500 219.500 C 220.259 220.906 217.123 190.695 222 190.500 Z " transform="matrix(1, 0, 0, 1, -134.15, -31.35)"/>
        <path id="ID0.20808327943086624" fill="#CFAF7A" stroke="#C7A875" stroke-width="7" stroke-linecap="round" d="M 228 137 C 235.727 135.275 244.023 138.086 251.500 141.500 C 255.677 143.404 259.474 147.157 261 151.500 C 263.579 158.773 264.932 167.467 263.500 175.500 C 260.658 188.653 250.943 212.390 248.500 213.500 C 246.054 214.610 249.077 192.265 249.500 181.500 C 249.410 175.612 250.158 169.637 249.500 163.500 C 249.044 158.995 249.561 152.503 245.500 150.500 C 238.940 147.235 230.272 147.795 223.500 150.500 C 218.676 152.480 215.647 157.916 214 163 C 211.902 169.496 213.914 176.672 213.500 183.500 C 213.571 192.486 215.591 212.804 213 210.500 C 210.225 208.051 202.245 184.634 201 171.500 C 200.307 164.143 202.076 155.916 206.500 150 C 211.504 143.309 219.611 138.319 228 137 Z " transform="matrix(1, 0, 0, 1, -145.15, -12.35)"/>
        <path id="ID0.4780903123319149" fill="#CFAF7A" stroke="#C7A875" stroke-width="7" stroke-linecap="round" d="M 233 223.500 C 239.187 223.148 245.949 228.792 248 234.500 C 250.164 240.432 245.733 246.825 243.500 252.500 C 240.942 259.015 238.729 270.255 233.500 271 C 228.927 271.644 225.929 261.388 223.500 256 C 221.027 249.724 217.239 242.710 219 236.500 C 220.756 230.376 226.688 223.861 233 223.500 Z " transform="matrix(1, 0, 0, 1, -145.15, -12.35)"/>
        <path id="ID0.27968615060672164" fill="none" stroke="#CEBD73" stroke-width="7" stroke-linecap="round" d="M 226.500 221.750 C 226.500 221.750 229.878 223.384 231.500 223.500 C 233.677 223.652 235.877 223.443 238 223 C 239.519 222.686 242.150 221 242.150 221 " transform="matrix(1, 0, 0, 1, -145.15, -12.35)"/>
        <path id="ID0.762945500202477" fill="#CFAF7A" stroke="#C7A875" stroke-width="7" stroke-linecap="round" d="M 294 121.500 C 295.679 122.643 293.308 143.567 293.936 153.827 C 294.307 159.761 297.324 165.612 296.500 171.500 C 294.079 188.765 287.292 214.700 283.500 223 C 281.658 227.095 283.784 206.809 284 199 C 284.173 192.661 286.037 186.095 285.500 180 C 285.015 173.694 282.164 167.779 281.500 161.500 C 281.041 157.183 281.222 152.865 282.500 148.500 C 285.258 139.127 292.127 120.989 294 121.500 Z " transform="matrix(1, 0, 0, 1, -145.15, -12.35)"/>
        <path id="ID0.01928310003131628" fill="#CFAF7A" stroke="#C7A875" stroke-width="7" stroke-linecap="round" d="M 263 39.500 C 278.438 49.285 288.883 65.076 300.500 79 C 306.237 85.863 311.209 93.192 313.500 101.500 C 315.390 106.778 312.785 112.499 312.500 118 C 311.973 128.498 312.769 139.706 312 150.500 C 311.129 162.370 312.254 174.731 308.500 186 C 303.861 199.924 288.697 224.048 287 223 C 285.340 222.928 293.437 196.007 295 181.500 C 296.008 172.231 296.663 162.729 295 153.500 C 293.536 145.367 288.132 137.861 287 130 C 285.867 122.238 291.687 113.351 288.500 106.500 C 282.569 93.756 271.770 83.198 261 74.500 C 250.426 65.919 233.210 66.012 225.500 55.500 C 221.059 49.441 223.507 36.203 230.500 33.500 C 241.168 29.448 253.708 33.610 263 39.500 Z " transform="matrix(1, 0, 0, 1, -145.15, -12.35)"/>
        <path id="ID0.762945500202477" fill="#CFAF7A" stroke="#C7A875" stroke-width="7" stroke-linecap="round" d="M 294 121.500 C 295.679 122.643 293.308 143.567 293.936 153.827 C 294.307 159.761 296.500 164.603 296.500 171.500 C 296.500 178.397 295.849 183.543 293.936 189.173 C 289.887 201.087 279.404 225.027 278.250 224 C 277.494 222.951 284.846 194.734 285.500 180 C 285.779 173.704 282.164 167.779 281.500 161.500 C 281.041 157.183 281.222 152.865 282.500 148.500 C 285.258 139.127 292.127 120.989 294 121.500 Z " transform="matrix(-1, 0, 0, 1, 319.6, -12.35)"/>
        <path id="ID0.01928310003131628" fill="#CFAF7A" stroke="#C7A875" stroke-width="7" stroke-linecap="round" d="M 263 39.500 C 278.438 49.285 288.883 65.076 300.500 79 C 306.237 85.863 311.209 93.192 313.500 101.500 C 315.390 106.778 312.785 112.499 312.500 118 C 311.973 128.498 312.005 139.683 312 150.500 C 311.941 161.848 317.726 173.563 313.750 184 C 307.651 199.979 285.248 225.170 283.750 225 C 282.389 224.959 297.829 198.009 300.250 183 C 301.832 173.146 297.157 163.174 295 153.500 C 293.128 145.457 288.132 137.861 287 130 C 285.867 122.238 291.687 113.351 288.500 106.500 C 282.569 93.756 271.770 83.198 261 74.500 C 250.426 65.919 233.210 66.012 225.500 55.500 C 221.059 49.441 223.507 36.203 230.500 33.500 C 241.168 29.448 253.708 33.610 263 39.500 Z " transform="matrix(-1, 0, 0, 1, 319.6, -12.35)"/>
        <path id="ID0.05892228242009878" fill="#816F3A" stroke="#5F522B" stroke-width="7" stroke-linecap="round" d="M 234 27 C 244.015 23.286 253.533 21.070 263 19 C 271.224 17.398 279.648 15.311 287 16 C 297.279 16.980 307.935 17.505 317 24 C 323.645 28.822 325.134 38.901 326 47 C 326.608 56.122 331.016 68.131 324 74.500 C 316.799 80.922 304.669 73.417 295 73 C 284.578 72.581 275.301 71.305 266 72 C 254.055 72.811 242.351 76.833 231.500 77.500 C 220.537 78.178 205.468 84.490 198.500 76 C 191.060 66.835 194.436 51.850 201 43 C 208.193 33.296 222.563 31.289 234 27 Z " transform="matrix(1, 0, 0, 1, -176.15, -12.35)"/>
        <path id="ID0.2571683139540255" fill="#736334" stroke="none" stroke-linecap="round" d="M 247 38.500 C 256.398 38.251 276.354 42.822 275 45 C 273.439 47.209 250.387 47.371 238.500 50.500 C 222.713 54.659 206.533 59.960 191.500 67.500 C 184.094 71.095 178.622 77.785 172 83.500 C 167.541 87.350 161.027 98.974 159 95.500 C 155.415 89.352 154.239 72.577 160.500 64.500 C 168.953 53.991 184.264 51.305 197 47.500 C 213.207 42.658 230.037 38.939 247 38.500 Z " transform="matrix(1, 0, 0, 1, -134.15, -31.35)"/>
        <path id="ID0.04388945270329714" fill="#BDA36D" stroke="none" stroke-linecap="round" d="M 272 82 C 277.865 80.033 277.742 63.119 279.500 65 C 281.416 66.966 284.777 82.915 281 90.500 C 278.405 94.664 270.672 90.139 266 90 C 251.647 89.256 237.340 87.422 223 87.500 C 216.518 87.530 210.808 89.579 205 91 C 202.130 91.415 199.716 92.611 197 93 C 193.083 93.568 189.676 93.914 186 94.500 C 182.339 94.581 178.961 94.680 175 95 C 170.847 95.299 166.336 96.670 162.500 95.500 C 160.291 94.817 157.462 90.362 159 89.500 C 161.657 88.017 166.674 90.721 170.500 90.500 C 177.128 90.124 183.568 89.537 190 89 C 202.227 87.205 214.255 84.348 226.500 83.500 C 241.619 82.448 256.639 87.117 272 82 Z " transform="matrix(1, 0, 0, 1, -134.15, -31.35)"/>
        <g id="ID0.9427319108508527">
          <path id="ID0.5442910422571003" fill="none" stroke="#4F4424" stroke-width="8" stroke-linecap="round" d="M 189.200 42.300 C 189.200 42.300 182.810 49.052 180.600 52.800 C 178.713 56.017 177.515 59.775 176.700 63.300 C 176.215 65.639 177 70.500 177 70.500 " transform="matrix(0.9485496282577515, 0.3166285455226898, -0.3166285455226898, 0.9485496282577515, -132.15, -77.35)"/>
          <path id="ID0.5157428346574306" fill="none" stroke="#553A29" stroke-width="3" stroke-linecap="round" d="M 131 95.750 C 131 95.750 131.356 89.362 132.750 86.250 C 133.202 85.231 135.798 83.509 135.750 84.750 C 135.559 89.714 132.542 99.160 132.250 99.250 C 131.958 99.340 131.691 86.882 132.500 85.750 C 133.248 84.703 135.148 91.140 136 94 C 136.333 95.117 135.788 96.354 136 97.500 C 136.211 98.640 137.250 102.030 137.250 100.750 C 137.250 95.629 135.755 84.981 136 85 C 136.245 85.019 138.488 96.171 140.500 101 C 141.003 102.207 141.273 98.314 141 97 C 140.337 93.803 138.910 90.802 137.750 87.750 C 137.327 86.636 135.546 83.328 136.250 84.500 C 139.068 89.190 141.517 94.294 144 99.250 C 144.622 100.489 142.948 100.040 143.250 99.750 C 147.821 94.209 143.470 90.291 142.250 85.750 C 141.716 84.119 142.850 85.238 143.250 86 C 144.842 89.035 146.653 94.999 147.250 96 C 147.751 96.596 147.133 91.491 146 90 C 143.879 87.239 138.052 81.831 138 83.250 C 137.946 84.787 146 97.750 146 97.750 " transform="matrix(1, 0, 0, 1, -123.65, -39.1)"/>
        </g>
        <path id="ID0.31024565314874053" fill="#D5BC96" stroke="none" stroke-linecap="round" d="M 162.500 145.250 C 163.835 144.668 158.838 160.661 157 168.500 C 155.008 176.147 150.908 183.496 151 191.750 C 151.116 202.606 158.262 222.497 157.250 223.750 C 156.238 225.003 145.408 209.475 143.750 200.750 C 141.985 191.462 144.424 181.238 147.500 172 C 150.781 162.421 161.165 145.832 162.500 145.250 Z " transform="matrix(1, 0, 0, 1, -134.15, -31.35)"/>
        <path id="ID0.31024565314874053" fill="#D5BC96" stroke="none" stroke-linecap="round" d="M 156.700 135 C 157.911 134.394 160.242 140.890 159.950 144 C 158.771 152.574 153.952 160.433 152.450 168.750 C 151.088 176.302 150.246 184.119 151 191.750 C 152.068 202.553 157.795 223.655 157.250 223.750 C 156.705 223.845 145.869 203.645 143.950 192.500 C 142.408 183.548 144.925 173.999 146.950 165 C 148.435 158.595 152.055 152.920 153.950 146.750 C 155.308 142.898 155.450 135.633 156.700 135 Z " transform="matrix(-1, 0, 0, 1, 304.75, -27.85)"/>
        <path id="ID0.788600530475378" fill="#D5BC96" stroke="none" stroke-linecap="round" d="M 219.250 246.750 C 221.472 245.973 223.212 248.791 224.500 250.500 C 226.223 252.809 227.896 255.852 228 259 C 228.239 265.870 226.885 272.733 225.500 279.750 C 225.052 282.015 224.195 286.253 222.500 286 C 220.361 285.668 218.948 281.468 217.750 279 C 215.926 274.837 214.815 270.527 213.500 266.250 C 212.471 262.899 209.917 259.341 211 256 C 212.309 251.965 215.380 248.147 219.250 246.750 Z " transform="matrix(1, 0, 0, 1, -134.15, -31.35)"/>
      </g>
      <g id="ID0.8093484854325652">
        <path id="ID0.7916949153877795" fill="none" stroke="#666666" stroke-width="2" stroke-linecap="round" d="M 57.250 229.850 C 58.974 226.431 64.467 227.669 68 227.500 C 73.179 227.259 78.337 227.924 83.500 228 C 88.935 228.082 94.184 227.815 99.500 228 C 102.843 228.137 107.727 226.793 110 229.500 C 113.632 233.816 114.421 239.790 113.500 245 C 112.288 251.841 109.352 258.795 104 263 C 98.381 267.787 90.313 269.919 83 270 C 76.524 270.081 69.665 267.937 64.500 264 C 60.274 260.783 57.033 255.705 56 250.500 C 54.622 243.538 54.073 235.823 57.250 229.850 Z " transform="matrix(0.7275195717811584, 0, 0, 0.5751906037330627, -5.05, -25.3)"/>
        <path id="ID0.7916949153877795" fill="none" stroke="#666666" stroke-width="2" stroke-linecap="round" d="M 56.550 230 C 58.494 226.555 64.313 227.740 68 227.500 C 73.169 227.172 78.337 227.924 83.500 228 C 88.935 228.082 94.184 227.815 99.500 228 C 102.843 228.137 107.727 226.793 110 229.500 C 113.632 233.816 114.421 239.790 113.500 245 C 112.288 251.841 109.352 258.795 104 263 C 98.381 267.787 90.313 269.919 83 270 C 76.524 270.081 69.665 267.937 64.500 264 C 60.274 260.783 57.108 255.691 56 250.500 C 54.557 243.716 53.549 236.032 56.550 230 Z " transform="matrix(-0.7275195717811584, 0, 0, 0.5751906037330627, 180.45, -25.5)"/>
        <path id="ID0.44750537630170584" fill="none" stroke="#666666" stroke-width="1" stroke-linecap="round" d="M 108.800 234.200 C 108.800 234.200 115.327 233.978 118.450 233.850 C 121.404 233.734 124.314 233.886 127.350 233.850 C 130.259 233.886 136.300 233.850 136.300 233.850 " transform="matrix(0.9845061898231506, 0, 0, 0.9084305763244629, -32.7, -106.55)"/>
      </g>
    </g>
    <path id="ID0.42677474999800324" fill="#D5BC96" stroke="none" stroke-linecap="round" d="M 228.750 163.500 C 228.885 164.219 225.567 173.379 224.750 178.500 C 224.374 180.932 224.722 183.846 225 186.500 C 225.279 189.144 225.988 191.925 226.250 194.750 C 226.821 199.590 227.865 210.008 227.500 209.500 C 227.136 208.992 224.376 196.550 223.250 190 C 222.835 187.591 222.651 184.834 222.750 182.250 C 222.862 179.417 223.080 176.217 224 173.250 C 225.102 169.898 228.616 162.781 228.750 163.500 Z " transform="matrix(1, 0, 0, 1, -163.15, -26.35)"/>
    <path id="ID0.42677474999800324" fill="#D5BC96" stroke="none" stroke-linecap="round" d="M 222.600 159.950 C 222.987 160.687 221.822 170.966 222.100 176.450 C 222.307 180.413 223.325 184.557 224.100 188.700 C 224.575 191.054 225.321 193.343 225.850 195.950 C 226.753 200.341 228.749 209.596 228.350 209.200 C 227.909 208.805 224.101 197.904 222.350 192.200 C 221.478 189.311 220.486 186.419 220.100 183.450 C 219.609 179.679 219.224 175.653 219.600 171.700 C 220.065 167.748 222.212 159.215 222.600 159.950 Z " transform="matrix(-1, 0, 0, 1, 334.7, -20.55)"/>
  </g>
</svg>