<svg version="1.1" width="213" height="298" viewBox="-1 -1 213 298" xmlns="http://www.w3.org/2000/svg" xmlns:xlink="http://www.w3.org/1999/xlink">
  <!-- Exported by Scratch - http://scratch.mit.edu/ -->
  <g id="ID0.7008198308758438">
    <path id="ID0.9115952169522643" fill="#E5E5E5" stroke="#CCCCCC" stroke-width="9" stroke-linecap="round" d="M 239.750 192.500 C 242.941 192.253 246.805 185.897 248.500 188.500 C 254.429 199.027 260.132 211.836 257.750 223.500 C 256.475 229.744 246.060 229.692 239.750 230 C 230.590 230.447 220.629 230.242 212.500 226 C 209.521 224.441 212.422 219.167 213.500 216 C 213.897 214.839 215.471 216.454 216.500 214.500 C 220.614 206.674 220.376 195.972 226.750 189.750 C 230.028 186.838 235.474 192.827 239.750 192.500 Z " transform="matrix(1, 0, 0, 1, -131.85, -58.7)"/>
    <path id="ID0.2581713180989027" fill="#FFFFFF" stroke="#CCCCCC" stroke-width="9" stroke-linecap="round" d="M 189.500 54 C 207.781 53.533 227.586 62.906 240 76.500 C 252.659 90.365 258.232 111.533 258 130.500 C 257.835 146.001 250.170 163.189 238.500 174 C 226.386 185.137 208.602 192.318 192 192 C 174.560 191.613 156.157 184.652 143.500 173 C 131.667 161.603 124.436 144.016 124 128 C 123.522 110.398 129.486 90.829 141 78 C 153.050 64.600 171.546 54.459 189.500 54 Z " transform="matrix(1, 0, 0, 1, -86.75, -48.65)"/>
    <path id="ID0.17645040387287736" fill="#E5E5E5" stroke="none" stroke-linecap="round" d="M 282.300 149.950 C 286.415 140.442 287.029 129.194 286.600 118.700 C 286.166 108.339 278.132 88.135 279.100 87.200 C 280.068 86.265 291.884 101.748 294.600 110.700 C 298.387 123.483 300.944 137.040 298.600 149.700 C 296.210 161.361 288.989 172.115 281.050 180.300 C 273.888 187.647 264.106 192.609 254.300 195.550 C 245.777 198.099 227.275 198.197 227.800 196.950 C 228.091 195.458 249.288 192.256 257.300 185.450 C 268.355 176.103 276.556 163.217 282.300 149.950 Z " transform="matrix(1, 0, 0, 1, -131.85, -58.7)"/>
    <g id="ID0.36412396281957626">
      <path id="ID0.8147899541072547" fill="#FFFFFF" stroke="#B4A3A0" stroke-width="3" stroke-linecap="round" d="M 116.150 161 C 120.895 160.827 126.458 161.990 129.800 165.100 C 133.101 168.175 134.761 173.313 134.650 177.750 C 134.548 181.774 132.468 186.075 129.400 188.600 C 126.153 191.353 121.446 192.548 117.300 192.250 C 113.226 191.957 108.954 190.077 106.150 187.100 C 103.547 184.335 102.392 180.285 102.300 176.600 C 102.216 172.894 103.254 168.763 105.650 166.100 C 108.254 163.211 112.351 161.139 116.150 161 Z " transform="matrix(1, 0, 0, 1, -45.8, -87.7)"/>
      <path id="ID0.8147899541072547" fill="#5B7F9C" stroke="#5B7F9C" stroke-width="3" stroke-linecap="round" d="M 116.150 161 C 120.895 160.827 126.458 161.990 129.800 165.100 C 133.101 168.175 134.761 173.313 134.650 177.750 C 134.548 181.774 132.468 186.075 129.400 188.600 C 126.153 191.353 121.446 192.548 117.300 192.250 C 113.226 191.957 108.954 190.077 106.150 187.100 C 103.547 184.335 102.392 180.285 102.300 176.600 C 102.216 172.894 103.254 168.763 105.650 166.100 C 108.254 163.211 112.351 161.139 116.150 161 Z " transform="matrix(0.5824817419052124, 0, 0, 0.5824817419052124, 3.75, -13.95)"/>
      <path id="ID0.8096814667806029" fill="#000000" stroke="none" stroke-linecap="round" d="M 119.900 172.100 C 121.339 172.121 122.912 172.542 123.800 173.500 C 124.654 174.422 124.905 175.879 124.800 177.100 C 124.620 178.456 124.039 179.918 123 180.750 C 122.074 181.488 120.702 181.488 119.500 181.400 C 118.357 181.316 117.131 180.890 116.319 180.081 C 115.504 179.271 114.999 178.051 115 176.900 C 115.001 175.605 115.398 174.250 116.300 173.400 C 117.260 172.482 118.677 172.080 119.900 172.100 Z " transform="matrix(1, 0, 0, 1, -47.3, -87.7)"/>
      <path id="ID0.7386001590639353" fill="#FFFFFF" stroke="none" stroke-linecap="round" d="M 120.650 173.700 C 121.383 174.034 121.944 174.821 122.150 175.600 C 122.370 176.458 122.049 178.220 121.700 178.250 C 121.350 178.280 121.159 176.440 120.500 175.800 C 119.956 175.201 119.104 174.945 118.300 174.750 C 117.605 174.576 116.329 174.940 116.150 174.650 C 115.986 174.385 117.011 173.628 117.650 173.500 C 118.609 173.290 119.700 173.267 120.650 173.700 Z " transform="matrix(1, 0, 0, 1, -45.8, -87.7)"/>
    </g>
    <g id="ID0.36412396281957626">
      <path id="ID0.8147899541072547" fill="#FFFFFF" stroke="#B4A3A0" stroke-width="3" stroke-linecap="round" d="M 116.150 161 C 120.895 160.827 126.458 161.990 129.800 165.100 C 133.101 168.175 134.761 173.313 134.650 177.750 C 134.548 181.774 132.468 186.075 129.400 188.600 C 126.153 191.353 121.446 192.548 117.300 192.250 C 113.226 191.957 108.954 190.077 106.150 187.100 C 103.547 184.335 102.392 180.285 102.300 176.600 C 102.216 172.894 103.254 168.763 105.650 166.100 C 108.254 163.211 112.351 161.139 116.150 161 Z " transform="matrix(1, 0, 0, 1, 17.5, -88.2)"/>
      <path id="ID0.8147899541072547" fill="#5B7F9C" stroke="#5B7F9C" stroke-width="3" stroke-linecap="round" d="M 116.150 161 C 120.895 160.827 126.458 161.990 129.800 165.100 C 133.101 168.175 134.761 173.313 134.650 177.750 C 134.548 181.774 132.468 186.075 129.400 188.600 C 126.153 191.353 121.446 192.548 117.300 192.250 C 113.226 191.957 108.954 190.077 106.150 187.100 C 103.547 184.335 102.392 180.285 102.300 176.600 C 102.216 172.894 103.254 168.763 105.650 166.100 C 108.254 163.211 112.351 161.139 116.150 161 Z " transform="matrix(0.5824817419052124, 0, 0, 0.5824817419052124, 67.05, -14.45)"/>
      <path id="ID0.8096814667806029" fill="#000000" stroke="none" stroke-linecap="round" d="M 119.900 172.100 C 121.339 172.121 122.912 172.542 123.800 173.500 C 124.654 174.422 124.905 175.879 124.800 177.100 C 124.620 178.456 124.039 179.918 123 180.750 C 122.074 181.488 120.702 181.488 119.500 181.400 C 118.357 181.316 117.131 180.890 116.319 180.081 C 115.504 179.271 114.999 178.051 115 176.900 C 115.001 175.605 115.398 174.250 116.300 173.400 C 117.260 172.482 118.677 172.080 119.900 172.100 Z " transform="matrix(1, 0, 0, 1, 16, -88.2)"/>
      <path id="ID0.7386001590639353" fill="#FFFFFF" stroke="none" stroke-linecap="round" d="M 120.650 173.700 C 121.383 174.034 121.944 174.821 122.150 175.600 C 122.370 176.458 122.049 178.220 121.700 178.250 C 121.350 178.280 121.159 176.440 120.500 175.800 C 119.956 175.201 119.104 174.945 118.300 174.750 C 117.605 174.576 116.329 174.940 116.150 174.650 C 115.986 174.385 117.011 173.628 117.650 173.500 C 118.609 173.290 119.700 173.267 120.650 173.700 Z " transform="matrix(1, 0, 0, 1, 17.5, -88.2)"/>
    </g>
    <g id="ID0.16988432686775923">
      <path id="ID0.027637152932584286" fill="#FFFFFF" stroke="#CCCCCC" stroke-width="7" stroke-linecap="round" d="M 216 315.500 C 219.867 312.700 225.548 313.184 230.250 314 C 232.839 314.409 236.119 316.178 236.750 318.750 C 237.346 322.224 235.281 325.982 233.250 328.750 C 230.972 331.943 227.516 334.282 224 336 C 220.407 337.755 216.241 339.977 212.250 339.250 C 208.930 338.636 204.396 335.485 205 332 C 205.964 325.553 210.505 319.481 216 315.500 Z " transform="matrix(0.9383431077003479, 0.3457053601741791, -0.3457053601741791, 0.9383431077003479, -15.6, -100.4)"/>
      <path id="ID0.814315521158278" fill="#E5E5E5" stroke="none" stroke-linecap="round" d="M 394.650 151.900 C 397.660 152.287 404.692 153.977 407.200 157.800 C 408.643 159.990 404.686 162.552 402.550 164 C 399.793 165.868 396.469 166.767 393.250 167.400 C 390.154 167.949 384.167 168.223 383.850 167.500 C 383.533 166.775 388.851 164.686 391.392 163.364 C 393.281 162.381 395.488 162.087 396.950 160.700 C 398.045 159.688 398.933 157.987 398.550 156.650 C 397.984 154.684 393.306 151.727 394.650 151.900 Z " transform="matrix(1, 0, 0, 1, -314.25, 121.5)"/>
    </g>
    <g id="ID0.16988432686775923">
      <path id="ID0.027637152932584286" fill="#FFFFFF" stroke="#CCCCCC" stroke-width="7" stroke-linecap="round" d="M 216 315.500 C 219.867 312.700 225.548 313.184 230.250 314 C 232.839 314.409 236.119 316.178 236.750 318.750 C 237.346 322.224 235.281 325.982 233.250 328.750 C 230.972 331.943 227.516 334.282 224 336 C 220.407 337.755 216.241 339.977 212.250 339.250 C 208.930 338.636 204.396 335.485 205 332 C 205.964 325.553 210.505 319.481 216 315.500 Z " transform="matrix(-0.9383431077003479, 0.3457053601741791, 0.3457053601741791, 0.9383431077003479, 224, -101.15)"/>
      <path id="ID0.814315521158278" fill="#E5E5E5" stroke="none" stroke-linecap="round" d="M 394.650 151.900 C 397.660 152.287 404.692 153.977 407.200 157.800 C 408.643 159.990 404.686 162.552 402.550 164 C 399.793 165.868 396.469 166.767 393.250 167.400 C 390.154 167.949 384.167 168.223 383.850 167.500 C 383.533 166.775 388.851 164.686 391.392 163.364 C 393.281 162.381 395.488 162.087 396.950 160.700 C 398.045 159.688 398.933 157.987 398.550 156.650 C 397.984 154.684 393.306 151.727 394.650 151.900 Z " transform="matrix(-1, 0, 0, 1, 522.65, 120.75)"/>
    </g>
    <g id="ID0.20676132198423147">
      <path id="ID0.04738290561363101" fill="none" stroke="#B4A3A0" stroke-width="4" stroke-linecap="round" d="M 227.500 184 C 227.500 184 231.309 182.248 233.350 181.950 C 236.366 181.512 239.431 181.191 242.350 181.700 C 245.199 182.118 250.350 184.700 250.350 184.700 " transform="matrix(1, 0, 0, 1, -132.05, -61.2)"/>
      <path id="ID0.06047635758295655" fill="none" stroke="#B4A3A0" stroke-width="4" stroke-linecap="round" d="M 224.750 179 C 224.750 179 225.724 181.288 225.750 182.500 C 225.984 183.508 225.894 184.564 225.500 185.500 C 225.172 186.408 224 188 224 188 " transform="matrix(1, 0, 0, 1, -132.05, -61.2)"/>
    </g>
    <path id="ID0.02970749046653509" fill="#161616" stroke="#000000" stroke-width="7" stroke-linecap="round" d="M 280.500 203 C 285.563 199.756 288.888 191.992 294.500 193 C 303.212 194.615 311.245 202.220 316 210 C 322.729 220.976 327.019 234.168 330 247 C 333.290 261.243 333.367 276.302 334 291 C 334.320 298.150 338.966 309.179 333 314 C 323.183 321.874 307.976 321.201 295 323 C 279.172 324.216 263.171 325.206 247 323 C 234.379 321.275 218.508 320.866 211 310 C 201.719 296.489 205.288 276.981 206 261 C 207.652 244.556 210.531 227.533 218 214 C 223.440 204.144 233.631 196.452 244.500 193 C 250.044 191.268 253.476 200.404 258.500 203.500 C 262.099 205.787 265.491 210.277 269.500 210 C 273.803 209.676 276.864 205.385 280.500 203 Z " transform="matrix(1, 0, 0, 1, -164.25, -43.5)"/>
    <path id="ID0.4865205166861415" fill="#1C1C1C" stroke="#000000" stroke-width="7" stroke-linecap="round" d="M 225 188 C 229.562 185.375 238.272 178.556 240 183 C 243.715 192.598 235.844 204.248 235 215 C 232.568 246.041 240.207 279.370 230 309 C 227.094 317.546 211.952 309.501 203 309 C 188.912 307.167 167.123 313.381 161 302 C 154.725 290.274 171.986 274.915 178 262 C 185.642 242.941 191.104 222.382 202 206 C 207.394 197.911 217.072 192.571 225 188 Z " transform="matrix(-1, 0, 0, 1, 369.15, -35.75)"/>
    <path id="ID0.4865205166861415" fill="#1C1C1C" stroke="#000000" stroke-width="7" stroke-linecap="round" d="M 225 188 C 229.562 185.375 238.272 178.556 240 183 C 243.715 192.598 235.844 204.248 235 215 C 232.568 246.041 240.207 279.370 230 309 C 227.094 317.546 211.952 309.501 203 309 C 188.912 307.167 167.123 313.381 161 302 C 154.725 290.274 171.986 274.915 178 262 C 185.642 242.941 191.104 222.382 202 206 C 207.394 197.911 217.072 192.571 225 188 Z " transform="matrix(1, 0, 0, 1, -156.25, -35.25)"/>
    <path id="ID0.034290522802621126" fill="#161616" stroke="none" stroke-linecap="round" d="M 221.500 194.250 C 228.024 195.630 232.577 206.811 231.500 211.750 C 230.583 215.181 220.214 207.313 217.500 211 C 209.757 221.520 209.170 235.948 204 248 C 199.149 259.308 189.842 270.014 187 283 C 185.605 288.728 197.197 297.481 192 301 C 184.256 306.191 161.558 308.447 161.500 298.500 C 161.377 276.548 182.490 258.504 191.500 238 C 196.498 227.655 197.096 215.406 203.500 206 C 207.442 200.212 214.480 192.793 221.500 194.250 Z " transform="matrix(-1, 0, 0, 1, 369, -35.5)"/>
    <path id="ID0.034290522802621126" fill="#161616" stroke="none" stroke-linecap="round" d="M 219.750 196.500 C 226.022 197.677 233.008 206.981 232.500 211 C 231.887 214.231 220.405 207.133 217.500 211 C 209.652 221.457 209.170 235.948 204 248 C 199.149 259.308 189.842 270.014 187 283 C 185.605 288.728 197.197 297.481 192 301 C 184.256 306.191 161.558 308.447 161.500 298.500 C 161.377 276.548 182.490 258.504 191.500 238 C 196.498 227.655 197.172 215.437 203.500 206 C 206.900 200.933 213.574 195.373 219.750 196.500 Z " transform="matrix(1, 0, 0, 1, -156.25, -35.5)"/>
    <path id="ID0.954876322299242" fill="#161616" stroke="#000000" stroke-width="7" stroke-linecap="round" d="M 237 182 C 241.374 182.147 242.814 188.528 246 191.500 C 251.190 196.337 258.360 199.418 262.500 205.250 C 265.566 209.568 266.279 215.103 266.250 220.250 C 266.229 222.583 264.823 226.378 262.750 225.750 C 255.324 223.926 249.131 218.757 243 214.250 C 238.342 210.826 234.555 206.557 231 202.250 C 228.030 198.860 222.188 195.362 223.500 191.250 C 225.157 186.056 231.641 181.825 237 182 Z " transform="matrix(1, 0, 0, 1, -156.25, -35.5)"/>
    <path id="ID0.9240048225037754" fill="#1C1C1C" stroke="#000000" stroke-width="7" stroke-linecap="round" d="M 300 197 C 299.535 204.813 289.346 209.025 284 215 C 277.301 222.498 265.315 228.637 263 239 C 257.335 264.363 261.984 318.822 262 318 C 261.179 316.943 254.486 255.572 257 225 C 257.830 214.907 265.342 206.395 271 198 C 275.348 191.563 280.257 182.462 288 182 C 294.311 181.671 300.358 190.637 300 197 Z " transform="matrix(1, 0, 0, 1, -156.25, -35.5)"/>
    <path id="ID0.8130692234262824" fill="#161616" stroke="none" stroke-linecap="round" d="M 289.500 185 C 291.672 185.212 292.786 188.121 293.750 190 C 295.140 192.940 297.825 196.633 296.250 199.500 C 293.160 205.125 286.523 208.111 281.750 212.500 C 278.662 215.339 275.336 218.178 272.250 221.250 C 268.419 225.345 262.418 233.404 261 234 C 259.694 234.557 263.681 227.067 266 224.250 C 272.742 216.065 281.901 209.744 288.500 201.250 C 289.998 199.117 290.361 195.981 289.250 193.750 C 287.796 190.936 281.287 190.506 281.500 188.250 C 281.718 186.099 286.489 184.716 289.500 185 Z " transform="matrix(1, 0, 0, 1, -156.25, -35.5)"/>
  </g>
</svg>