<?xml version="1.0" standalone="no"?>
<!DOCTYPE svg PUBLIC "-//W3C//DTD SVG 20010904//EN"
 "http://www.w3.org/TR/2001/REC-SVG-20010904/DTD/svg10.dtd">
<svg version="1.0" xmlns="http://www.w3.org/2000/svg"
 width="738.000000pt" height="1280.000000pt" viewBox="0 0 738.000000 1280.000000"
 preserveAspectRatio="xMidYMid meet">
<g transform="translate(0.000000,1280.000000) scale(0.100000,-0.100000)"
fill="#673ab7" stroke="none">
<path d="M3607 12753 c-9 -26 -47 -154 -86 -283 -85 -286 -250 -840 -446
-1495 -319 -1068 -412 -1377 -537 -1795 -71 -239 -188 -631 -260 -870 -71
-239 -187 -628 -258 -865 -71 -236 -187 -627 -259 -867 -234 -782 -390 -1304
-536 -1793 -79 -264 -202 -677 -274 -917 -72 -241 -189 -633 -260 -870 -71
-238 -195 -651 -274 -918 -80 -267 -206 -687 -280 -935 -119 -397 -134 -455
-128 -495 4 -25 12 -54 19 -66 68 -126 480 -283 977 -373 514 -93 1030 -147
1840 -193 293 -17 1387 -17 1695 0 920 49 1647 135 2104 247 486 120 758 266
733 392 -3 16 -80 269 -172 563 -92 294 -279 900 -417 1345 -445 1442 -989
3208 -1008 3270 -18 59 -465 1510 -1150 3730 -194 627 -360 1167 -370 1200
-10 33 -113 368 -230 745 -116 377 -252 818 -302 980 -50 162 -94 299 -98 303
-4 5 -15 -13 -23 -40z"/>
</g>
</svg>
