<?xml version="1.0" standalone="no"?>
<!DOCTYPE svg PUBLIC "-//W3C//DTD SVG 20010904//EN"
 "http://www.w3.org/TR/2001/REC-SVG-20010904/DTD/svg10.dtd">
<svg version="1.0" xmlns="http://www.w3.org/2000/svg"
 width="1280.000000pt" height="1237.000000pt" viewBox="0 0 1280.000000 1237.000000"
 preserveAspectRatio="xMidYMid meet">
<g transform="translate(0.000000,1237.000000) scale(0.100000,-0.100000)"
fill="#673ab7" stroke="none">
<path d="M11870 11945 c-19 -7 -91 -42 -160 -77 -187 -96 -231 -97 -443 -6
-154 65 -217 73 -264 34 -47 -40 -50 -85 -19 -268 16 -97 23 -169 19 -198 -9
-74 -47 -139 -143 -250 -132 -153 -154 -210 -105 -269 33 -38 91 -57 238 -76
217 -29 271 -64 382 -250 84 -140 138 -195 191 -195 63 0 95 34 175 192 113
224 149 252 385 308 140 33 199 61 220 102 32 61 7 106 -136 249 -73 72 -126
135 -141 165 -23 48 -24 54 -21 259 3 223 -2 252 -44 280 -28 18 -86 18 -134
0z"/>
<path d="M8590 11439 c-19 -12 -69 -54 -111 -94 -41 -39 -100 -84 -131 -99
-51 -25 -66 -27 -199 -30 -148 -3 -187 -12 -219 -51 -27 -32 -14 -100 38 -213
28 -59 53 -117 57 -130 15 -53 5 -139 -29 -250 -46 -146 -47 -184 -4 -224 36
-33 31 -33 288 -12 98 8 142 -5 235 -69 188 -129 217 -139 274 -91 33 28 50
76 76 213 26 137 61 190 185 276 197 138 194 213 -15 325 -151 81 -184 119
-236 279 -38 117 -51 143 -85 170 -34 27 -80 27 -124 0z"/>
<path d="M5047 5777 l-5048 -5042 368 -367 368 -368 5045 5045 5045 5045 -365
364 -365 365 -5048 -5042z"/>
<path d="M10925 9408 c-16 -6 -74 -39 -128 -74 -132 -84 -173 -93 -315 -71
-164 26 -206 21 -238 -28 -24 -36 -21 -93 11 -210 40 -145 34 -203 -34 -335
-77 -150 -79 -220 -7 -257 17 -9 78 -18 155 -23 69 -5 142 -14 161 -21 49 -17
107 -59 165 -119 78 -81 122 -110 168 -110 57 0 96 45 137 157 59 165 92 202
250 283 190 98 199 168 38 296 -140 112 -167 156 -193 317 -17 108 -32 153
-62 179 -25 23 -71 30 -108 16z"/>
</g>
</svg>
