<?xml version="1.0" standalone="no"?>
<!DOCTYPE svg PUBLIC "-//W3C//DTD SVG 20010904//EN"
 "http://www.w3.org/TR/2001/REC-SVG-20010904/DTD/svg10.dtd">
<svg version="1.0" xmlns="http://www.w3.org/2000/svg"
 width="640.000000pt" height="1280.000000pt" viewBox="0 0 640.000000 1280.000000"
 preserveAspectRatio="xMidYMid meet">
<g transform="translate(0.000000,1280.000000) scale(0.100000,-0.100000)"
fill="#673ab7" stroke="none">
<path d="M4096 12353 c-19 -1242 -110 -2443 -307 -4043 -40 -326 -97 -768
-124 -955 -8 -55 -37 -264 -65 -465 -54 -391 -60 -428 -180 -1235 -112 -749
-189 -1248 -195 -1253 -2 -3 -33 0 -67 5 -35 6 -64 10 -64 9 -3 -2 -324 -1135
-324 -1141 0 -3 11 -5 24 -5 13 0 37 -3 53 -6 29 -6 31 -9 36 -70 4 -38 2 -76
-4 -92 -6 -15 -82 -214 -168 -442 -87 -228 -284 -748 -440 -1156 l-283 -741
-68 -44 c-38 -24 -69 -47 -69 -51 -2 -16 21 -7 65 23 25 17 47 29 49 27 3 -2
-23 -75 -56 -162 -52 -137 -65 -185 -44 -164 3 3 36 85 73 181 l67 176 65 52
c36 28 95 81 133 117 37 37 67 64 67 62 0 -3 -41 -127 -90 -275 -49 -148 -90
-273 -90 -277 0 -5 4 -8 8 -8 5 0 21 36 37 80 15 45 30 78 33 76 3 -3 27 10
54 29 26 19 48 32 48 27 0 -4 -25 -74 -55 -156 -30 -82 -55 -156 -55 -163 0
-40 22 6 80 170 l65 182 76 80 c78 82 199 238 199 258 0 5 2 8 5 5 11 -11
-118 -357 -153 -408 -9 -14 -17 -33 -18 -42 -1 -10 -20 -56 -43 -104 -23 -47
-40 -89 -37 -92 9 -8 9 -7 71 116 31 61 59 112 62 112 3 0 2 -8 -2 -17 -26
-68 -71 -235 -63 -239 5 -3 7 -11 6 -17 -2 -7 1 -13 7 -15 5 -2 40 77 77 175
66 171 71 180 121 224 29 26 53 46 55 44 2 -2 -8 -80 -22 -174 -31 -200 -29
-181 -13 -181 10 0 21 52 41 192 15 106 30 197 34 203 12 19 127 153 129 151
2 -1 -42 -137 -97 -301 -55 -165 -98 -307 -95 -316 3 -10 1 -20 -5 -24 -11 -7
-4 -25 9 -25 25 0 206 470 265 685 3 11 3 -23 1 -75 -10 -197 -9 -211 5 -220
15 -9 10 -30 -34 -132 -10 -23 -12 -39 -6 -43 6 -3 22 21 36 54 15 34 31 61
35 61 5 0 9 15 10 33 0 17 3 27 5 20 3 -7 -2 -69 -11 -139 -13 -99 -23 -140
-46 -185 -32 -65 -33 -69 -19 -69 6 0 16 11 22 25 6 14 17 24 24 21 9 -3 15 7
19 32 4 20 25 80 48 132 22 52 60 145 84 205 l44 110 -5 -118 c-4 -98 -3 -117
9 -117 8 0 15 8 15 18 4 161 22 346 39 397 l19 60 7 -50 c11 -72 -2 -420 -22
-558 -14 -102 -14 -141 1 -126 2 2 16 80 30 174 14 93 30 171 35 173 5 2 8 11
5 20 -2 9 0 8 5 -3 5 -11 19 -87 31 -170 12 -82 24 -152 26 -154 16 -17 14 34
-10 200 -15 105 -26 193 -23 195 7 7 27 -80 27 -115 0 -29 19 -46 21 -18 0 6
8 -8 18 -33 10 -24 23 -46 30 -48 17 -6 14 12 -13 73 -14 31 -20 55 -14 55 8
0 9 40 4 132 l-6 133 47 -125 c25 -69 48 -147 51 -173 3 -36 8 -47 18 -43 10
4 14 -4 14 -30 0 -26 4 -35 13 -31 9 3 31 -30 67 -104 30 -60 58 -105 62 -101
5 5 -20 67 -54 138 l-63 129 -3 185 c-2 102 0 232 4 290 l7 105 18 -145 c10
-80 18 -209 18 -287 1 -120 3 -143 16 -143 10 0 15 -10 15 -29 0 -16 5 -31 10
-33 6 -2 16 -36 22 -76 6 -39 14 -72 19 -72 13 0 12 11 -17 235 -14 111 -27
278 -29 375 l-5 175 40 -114 40 -115 7 -220 c10 -269 28 -303 25 -46 l-2 175
80 -235 c44 -129 82 -260 86 -292 6 -52 17 -78 29 -66 2 2 -2 46 -10 98 -19
124 -19 125 16 57 48 -94 51 -55 3 48 -24 52 -48 115 -54 141 -11 49 -7 73 5
32 7 -22 76 -189 81 -197 1 -1 7 0 13 3 6 4 -1 31 -19 71 -49 110 -101 257
-110 308 l-7 49 72 -73 c71 -73 72 -75 138 -246 37 -95 67 -177 67 -183 0 -5
5 -10 10 -10 6 0 25 -29 42 -65 29 -58 48 -81 48 -56 0 5 -27 64 -59 132 -33
68 -78 170 -99 226 l-39 102 58 -39 c57 -39 58 -41 84 -127 35 -119 34 -115
44 -108 6 3 8 11 6 18 -3 7 -48 154 -100 327 -53 173 -98 324 -102 335 -3 11
22 -21 56 -72 34 -51 95 -127 135 -170 l74 -79 83 -244 c45 -135 84 -247 86
-249 1 -2 6 -1 10 2 3 4 1 25 -6 48 -8 26 -9 45 -3 51 6 6 -13 70 -49 169 -33
89 -59 163 -59 166 0 3 22 -11 50 -31 27 -19 52 -31 55 -26 3 5 -14 22 -37 39
-24 17 -53 39 -66 50 -31 27 -157 375 -428 1185 l-224 669 -6 335 -7 335 146
-8 c81 -4 147 -5 147 -4 0 2 -71 247 -158 544 l-157 540 -52 9 c-49 8 -52 10
-47 35 6 34 198 1267 274 1761 427 2777 591 4467 594 6105 l1 560 -146 3 -146
3 -7 -448z m-1169 -9129 c-9 -30 -12 -33 -18 -18 -14 34 -10 54 10 54 17 0 18
-3 8 -36z m48 9 c-18 -117 -15 -109 -29 -82 -10 19 -10 32 2 67 16 47 34 57
27 15z m84 -10 c0 -21 -4 -47 -9 -58 l-9 -20 -1 20 c-1 11 -1 31 0 44 1 14 -2
21 -9 17 -5 -4 -15 3 -21 14 -10 18 -8 20 20 20 28 0 30 -2 29 -37z m151 22
c0 -12 -88 -265 -95 -273 -1 -1 -12 24 -23 55 -18 49 -20 72 -15 146 l6 87 63
0 c50 0 64 -3 64 -15z m219 -57 l-1 -63 -18 40 c-34 75 -34 85 -6 85 25 0 26
-2 25 -62z m78 46 c6 -15 -18 -97 -38 -134 -5 -9 -9 19 -9 68 0 76 2 82 20 82
11 0 23 -7 27 -16z m109 -45 c-3 -34 -7 -92 -7 -128 -1 -36 -4 -56 -6 -43 -2
12 -8 22 -14 22 -5 0 -11 -10 -13 -22 -3 -13 -7 -32 -9 -43 -4 -15 -5 -14 -6
6 0 14 8 52 19 84 23 68 23 65 10 65 -5 0 -16 -15 -24 -32 l-14 -33 3 50 c2
28 4 69 4 93 1 40 2 42 32 42 l32 0 -7 -61z m-269 -1 c-3 -7 -5 -2 -5 12 0 14
2 19 5 13 2 -7 2 -19 0 -25z m-347 -32 c-13 -36 -16 -33 -12 16 3 30 7 37 13
25 6 -9 5 -26 -1 -41z m-61 -63 c1 -7 -3 -13 -8 -13 -13 0 -21 27 -14 47 6 15
7 15 14 -3 4 -10 8 -25 8 -31z m78 -5 c-5 -29 -14 -57 -20 -63 -11 -11 -2 51
13 91 15 39 18 28 7 -28z m502 -5 l0 -58 -15 30 c-12 23 -13 37 -5 58 16 41
21 33 20 -30z m-99 -25 c0 -10 -4 -18 -10 -18 -5 0 -10 10 -10 23 0 12 -3 33
-5 47 -5 22 -3 21 9 -5 9 -16 15 -38 16 -47z m-245 -65 c-19 -107 -29 -129
-39 -87 -5 20 1 54 20 111 16 45 30 80 32 78 3 -2 -3 -48 -13 -102z m-293 15
c-6 -6 -7 0 -4 19 5 21 7 23 10 9 2 -10 0 -22 -6 -28z m611 -28 c-8 -9 -23 25
-22 50 0 22 2 21 13 -10 8 -19 11 -37 9 -40z m-113 -11 c8 -31 8 -44 -1 -55
-6 -8 -9 -17 -5 -21 3 -3 6 0 6 7 0 7 2 11 5 8 3 -3 -1 -20 -9 -39 -15 -33
-15 -32 -16 54 0 48 2 87 5 87 2 0 9 -18 15 -41z m-299 -89 c-15 -42 -20 -49
-20 -28 -1 14 4 50 11 79 11 46 13 49 20 28 6 -17 2 -43 -11 -79z m546 48 c-3
-7 -5 -2 -5 12 0 14 2 19 5 13 2 -7 2 -19 0 -25z m-424 -83 c-6 -98 -6 -99
-19 -61 -12 33 -11 47 2 102 9 36 18 63 20 62 1 -2 0 -48 -3 -103z m-79 -77
c-19 -71 -24 -74 -42 -20 -9 27 -7 43 11 93 l22 61 13 -33 c12 -28 11 -42 -4
-101z m-304 78 c-13 -35 -13 -199 0 -191 13 8 7 -11 -275 -855 -251 -754 -255
-765 -297 -808 -61 -63 -210 -193 -215 -188 -4 4 74 211 465 1236 121 316 229
597 304 788 12 29 23 51 25 49 2 -3 -1 -16 -7 -31z m197 -8 c-3 -7 -5 -2 -5
12 0 14 2 19 5 13 2 -7 2 -19 0 -25z m615 -97 c4 -69 3 -72 -9 -43 -9 22 -11
51 -6 90 8 65 11 57 15 -47z m-345 47 c-3 -7 -5 -2 -5 12 0 14 2 19 5 13 2 -7
2 -19 0 -25z m-93 -198 c-3 -52 -8 -102 -10 -110 -3 -8 -16 15 -29 53 -24 67
-24 68 -7 152 l16 86 18 -43 c14 -35 16 -61 12 -138z m-117 99 c9 -33 7 -50
-8 -97 l-18 -57 0 98 c-1 53 3 97 7 97 4 0 13 -18 19 -41z m561 -129 c0 -8 -6
-1 -13 15 -8 17 -14 39 -14 50 0 13 5 8 14 -15 7 -19 13 -42 13 -50z m-71 -17
c-3 -10 -5 -4 -5 12 0 17 2 24 5 18 2 -7 2 -21 0 -30z m-327 -40 c-10 -16 -11
-15 -6 7 3 14 6 32 7 40 1 8 4 5 6 -7 2 -12 -1 -30 -7 -40z m-414 25 c-9 -36
6 -291 16 -276 18 26 -2 -33 -248 -727 -70 -200 -109 -268 -219 -390 l-45 -50
231 685 c127 377 238 706 247 733 16 48 29 65 18 25z m340 -178 c-4 -31 -21
-95 -40 -144 l-33 -88 -14 74 c-15 71 -14 77 15 216 l30 144 24 -74 c18 -57
22 -85 18 -128z m-79 148 c-3 -8 -6 -5 -6 6 -1 11 2 17 5 13 3 -3 4 -12 1 -19z
m552 -97 c1 -86 -5 -74 -13 24 -4 52 -2 73 3 60 5 -11 10 -49 10 -84z m66 -21
c19 -57 33 -105 31 -107 -4 -4 -76 197 -76 211 0 21 12 -7 45 -104z m-639 29
c-8 -35 -15 -54 -15 -41 -1 26 20 115 25 109 2 -2 -3 -32 -10 -68z m183 -51
l0 -93 -15 40 c-13 33 -13 50 -4 93 6 28 13 52 16 52 2 0 4 -42 3 -92z m358
-20 c-2 -13 -4 -5 -4 17 -1 22 1 32 4 23 2 -10 2 -28 0 -40z m-250 20 c-3 -8
-6 -5 -6 6 -1 11 2 17 5 13 3 -3 4 -12 1 -19z m518 -538 c109 -300 231 -642
270 -760 40 -118 76 -224 80 -235 25 -65 -158 165 -235 294 -35 58 -65 148
-180 526 l-139 457 -3 138 c-2 77 0 136 3 132 3 -4 95 -252 204 -552z m-513
386 c-4 -6 -10 -60 -13 -121 -5 -104 -5 -101 -6 55 -2 154 -1 162 12 121 8
-25 11 -49 7 -55z m-132 -102 c-18 -52 -19 -55 -15 -19 3 22 5 69 6 105 l1 65
14 -46 c13 -42 12 -51 -6 -105z m-325 -29 c-8 -22 -13 -29 -10 -15 2 14 8 53
12 85 l8 60 3 -45 c1 -25 -4 -63 -13 -85z m82 43 c-2 -18 -4 -6 -4 27 0 33 2
48 4 33 2 -15 2 -42 0 -60z m647 1 l6 -54 -15 60 c-17 70 -18 86 -5 64 5 -8
11 -40 14 -70z m-576 -39 l0 -25 -8 25 c-4 14 -8 45 -8 70 l1 45 8 -45 c4 -25
7 -56 7 -70z m65 -5 c-4 -35 -8 -44 -13 -30 -6 16 8 90 16 82 1 -1 0 -24 -3
-52z m-304 -109 l-20 -149 -74 -146 c-66 -129 -152 -276 -143 -245 7 26 253
693 254 691 1 -1 -6 -69 -17 -151z m417 7 c-25 -120 -37 -151 -30 -78 6 60 34
168 42 161 2 -3 -3 -40 -12 -83z m301 -10 c-2 -21 -4 -6 -4 32 0 39 2 55 4 38
2 -18 2 -50 0 -70z m110 75 c-3 -8 -6 -5 -6 6 -1 11 2 17 5 13 3 -3 4 -12 1
-19z m-774 -341 c-26 -78 -50 -146 -53 -150 -14 -17 30 216 61 325 l34 118 3
-76 c3 -67 -2 -90 -45 -217z m204 271 c-3 -8 -6 -5 -6 6 -1 11 2 17 5 13 3 -3
4 -12 1 -19z m558 -111 c8 -43 17 -131 19 -195 l6 -117 -26 75 c-22 64 -26 97
-30 225 -4 161 3 164 31 12z m150 -204 c53 -172 98 -321 101 -330 12 -40 -32
49 -73 146 -75 179 -104 273 -119 376 -13 97 -17 151 -9 130 3 -5 47 -151 100
-322z m-406 247 c0 -10 -3 -8 -9 5 -12 27 -12 43 0 25 5 -8 9 -22 9 -30z m-86
-232 c-3 -117 -9 -231 -14 -253 -5 -25 -6 11 -3 95 7 203 16 370 20 370 2 0 1
-96 -3 -212z m58 122 c0 -45 -2 -85 -5 -88 -3 -3 -6 37 -6 88 0 51 2 91 5 88
3 -3 6 -43 6 -88z m-394 -7 c-2 -16 -4 -3 -4 27 0 30 2 43 4 28 2 -16 2 -40 0
-55z m610 20 c-3 -10 -5 -2 -5 17 0 19 2 27 5 18 2 -10 2 -26 0 -35z m-140
-15 c-3 -7 -5 -2 -5 12 0 14 2 19 5 13 2 -7 2 -19 0 -25z m-420 -130 c-2 -29
-3 -6 -3 52 0 58 1 81 3 53 2 -29 2 -77 0 -105z m204 61 c-6 -37 -9 -44 -10
-23 -1 37 11 104 16 88 2 -5 -1 -35 -6 -65z m32 -114 c-6 -159 -7 -159 -19
-105 -11 47 -11 71 3 163 9 59 17 106 19 104 2 -1 0 -75 -3 -162z m197 161 c0
-3 -4 -8 -10 -11 -5 -3 -10 -1 -10 4 0 6 5 11 10 11 6 0 10 -2 10 -4z m-516
-53 c-5 -40 -126 -388 -140 -402 -16 -16 16 113 51 204 23 61 52 140 64 178
13 37 24 67 27 67 2 0 1 -21 -2 -47z m166 -23 l-11 -25 6 25 c2 14 5 36 6 50
l2 25 4 -25 c2 -14 -1 -37 -7 -50z m368 -25 c0 -11 -6 -3 -14 19 -7 21 -11 43
-7 50 8 11 20 -30 21 -69z m110 -35 c0 -66 -1 -70 -9 -35 -11 55 -10 157 1
130 5 -11 8 -54 8 -95z m-521 38 c-3 -7 -5 -2 -5 12 0 14 2 19 5 13 2 -7 2
-19 0 -25z m-331 -209 c-80 -326 -85 -340 -175 -475 -74 -113 -220 -282 -206
-239 4 11 51 143 106 294 85 233 109 287 159 365 33 50 84 134 113 187 28 53
53 96 55 94 2 -2 -22 -104 -52 -226z m695 176 c-9 -30 -9 -30 -10 10 -1 25 2
36 9 29 6 -6 6 -21 1 -39z m-454 -17 c-2 -13 -4 -5 -4 17 -1 22 1 32 4 23 2
-10 2 -28 0 -40z m560 -25 c-2 -16 -4 -3 -4 27 0 30 2 43 4 28 2 -16 2 -40 0
-55z m-396 -24 l-11 -34 5 34 c3 18 6 48 7 65 l1 31 4 -31 c2 -18 -1 -47 -6
-65z m76 69 c-3 -8 -6 -5 -6 6 -1 11 2 17 5 13 3 -3 4 -12 1 -19z m270 -20
c-3 -8 -6 -5 -6 6 -1 11 2 17 5 13 3 -3 4 -12 1 -19z m-18 -53 c0 -5 -4 -3 -9
5 -5 8 -9 22 -9 30 0 16 17 -16 18 -35z m-529 -65 c-4 -52 -8 -86 -9 -75 -2
11 -14 -41 -26 -115 -24 -140 -32 -268 -15 -239 15 26 42 110 50 159 7 42 8
42 8 10 2 -62 -52 -194 -113 -279 -31 -44 -68 -90 -82 -103 l-25 -23 6 25 c3
14 15 90 26 170 19 134 26 161 102 357 45 117 82 211 83 210 1 -1 -2 -45 -5
-97z m498 -45 c6 -22 14 -58 17 -80 4 -22 10 -56 16 -75 5 -19 10 -53 11 -75
1 -22 5 30 8 115 5 141 6 131 8 -110 2 -287 -7 -526 -19 -513 -4 4 -30 76 -58
158 l-51 150 0 145 c0 102 6 188 22 290 22 140 23 143 29 90 4 -30 11 -73 17
-95z m227 -129 c37 -192 30 -230 -12 -66 -26 101 -36 161 -38 240 l-4 105 15
-75 c8 -41 26 -133 39 -204z m224 -31 c48 -99 84 -195 125 -330 32 -104 68
-223 81 -262 13 -40 21 -73 19 -73 -10 0 -89 58 -107 77 -26 30 -101 269 -172
548 -78 312 -86 358 -44 255 16 -41 61 -138 98 -215z m-799 178 c-5 -38 -14
-81 -19 -94 -9 -21 -10 -18 -10 20 -1 40 28 156 36 147 2 -1 -1 -34 -7 -73z
m59 -187 c-27 -122 -81 -327 -85 -323 -10 10 49 439 68 501 l23 70 7 -79 c6
-62 3 -98 -13 -169z m530 150 c1 -54 -5 -42 -12 24 -4 36 -3 48 3 35 5 -11 9
-38 9 -59z m28 52 c-3 -8 -6 -5 -6 6 -1 11 2 17 5 13 3 -3 4 -12 1 -19z m-449
-208 c-1 -106 -14 -95 -32 27 -11 71 -15 134 -11 150 7 24 10 17 26 -52 10
-44 18 -100 17 -125z m-483 135 c-3 -25 -17 -69 -31 -98 -14 -28 -23 -43 -21
-32 9 39 51 175 55 175 2 0 1 -20 -3 -45z m226 -46 l-11 -34 5 34 c3 18 6 45
6 60 l2 26 4 -26 c2 -15 -1 -42 -6 -60z m843 -236 c4 -13 5 -23 3 -23 -13 0
-65 172 -71 230 -5 59 -3 54 27 -60 18 -69 37 -135 41 -147z m-83 13 c28 -182
32 -241 10 -160 -5 22 -20 75 -31 119 -24 88 -40 301 -19 255 6 -14 24 -110
40 -214z m-694 102 c-2 -13 -4 -3 -4 22 0 25 2 35 4 23 2 -13 2 -33 0 -45z
m-316 -38 c-10 -79 -173 -515 -203 -545 -19 -18 -20 -19 -14 -1 3 10 33 109
67 220 33 110 81 245 106 298 26 54 48 97 49 95 1 -1 -1 -32 -5 -67z m-327
-210 c-46 -129 -91 -254 -100 -278 -12 -31 -30 -52 -71 -82 -31 -22 -58 -39
-60 -37 -1 2 28 97 67 211 l69 207 69 82 c38 45 77 95 87 110 10 15 19 26 21
25 1 -2 -35 -109 -82 -238z m605 45 c1 -101 -18 -259 -37 -305 -8 -18 -11 29
-11 182 -1 178 2 213 17 244 l17 37 6 -29 c4 -16 7 -74 8 -129z m268 88 c-2
-16 -4 -5 -4 22 0 28 2 40 4 28 2 -13 2 -35 0 -50z m-140 -105 c-5 -153 -8
-169 -40 -257 l-34 -94 -6 39 c-15 91 -7 174 27 289 19 63 38 130 42 149 13
73 17 32 11 -126z m518 45 c8 -27 15 -52 14 -58 0 -10 -30 69 -43 115 -13 46
14 -6 29 -57z m271 -298 c5 -16 0 -14 -26 10 -79 74 -88 93 -104 220 -9 66
-16 126 -16 135 1 13 128 -306 146 -365z m-741 278 c-3 -24 -9 -43 -11 -40 -3
3 -2 29 2 58 4 30 9 48 12 41 2 -7 1 -34 -3 -59z m524 4 c1 -5 -3 -5 -9 -2 -5
3 -10 16 -9 28 0 21 1 21 9 2 5 -11 9 -24 9 -28z m-1014 -147 c-16 -121 -18
-125 -75 -170 l-38 -30 61 160 c33 88 62 158 64 157 1 -2 -4 -54 -12 -117z
m617 -49 c3 -104 2 -111 -10 -80 -11 26 -12 58 -6 139 9 117 12 107 16 -59z
m-452 13 c-66 -217 -158 -470 -167 -460 -3 2 0 13 5 23 5 10 51 143 102 295
52 153 95 276 97 275 1 -2 -15 -61 -37 -133z m906 -21 c19 -58 36 -124 39
-147 3 -23 -18 27 -50 119 -59 176 -63 190 -39 156 9 -13 32 -71 50 -128z
m-740 -193 c8 0 14 -9 14 -21 0 -21 -60 -173 -65 -167 -2 2 3 48 10 103 8 55
15 107 16 115 1 8 4 5 6 -7 2 -13 11 -23 19 -23z m-544 -150 c-25 -66 -46
-119 -48 -117 -4 3 61 210 70 226 4 6 11 11 15 11 5 0 -12 -54 -37 -120z
m1347 30 c0 -8 -7 1 -14 20 -18 46 -17 64 0 25 8 -16 14 -37 14 -45z"/>
</g>
</svg>
