<?xml version="1.0" standalone="no"?>
<!DOCTYPE svg PUBLIC "-//W3C//DTD SVG 20010904//EN"
 "http://www.w3.org/TR/2001/REC-SVG-20010904/DTD/svg10.dtd">
<svg version="1.0" xmlns="http://www.w3.org/2000/svg"
 width="515.000000pt" height="1280.000000pt" viewBox="0 0 515.000000 1280.000000"
 preserveAspectRatio="xMidYMid meet">
<g transform="translate(0.000000,1280.000000) scale(0.100000,-0.100000)"
fill="#673ab7" stroke="none">
<path d="M2414 12780 c-194 -12 -256 -24 -519 -101 l-240 -71 -238 -126 c-231
-123 -243 -131 -425 -280 -175 -144 -197 -166 -340 -341 -144 -176 -159 -198
-274 -411 -119 -221 -122 -229 -195 -465 l-74 -240 -25 -245 -25 -245 22 -245
22 -245 72 -241 c71 -237 75 -245 186 -452 98 -182 129 -230 226 -348 62 -76
110 -141 107 -146 -3 -4 -51 -8 -107 -8 -160 -1 -409 -17 -439 -29 -25 -9 -28
-16 -28 -54 0 -38 6 -49 43 -89 24 -25 83 -68 132 -97 76 -45 119 -60 304
-113 222 -62 478 -160 581 -223 68 -41 149 -78 260 -119 78 -29 85 -34 88 -60
3 -24 -4 -36 -38 -65 l-42 -36 16 -39 c19 -45 77 -129 191 -276 153 -197 197
-306 215 -530 7 -84 6 -109 -6 -127 -19 -30 -17 -70 6 -122 11 -24 20 -51 20
-61 0 -9 -26 -40 -59 -68 -40 -35 -79 -85 -128 -164 -61 -98 -74 -127 -97
-221 -23 -96 -26 -120 -20 -220 11 -224 55 -390 174 -667 69 -162 111 -286
147 -440 24 -106 26 -132 27 -340 0 -189 -3 -245 -22 -350 -39 -224 -55 -277
-96 -319 -43 -44 -46 -75 -10 -112 l27 -28 -36 -65 c-59 -107 -246 -355 -281
-373 -102 -52 -130 -113 -80 -172 19 -23 24 -38 20 -56 -4 -14 -11 -25 -16
-25 -5 0 -35 -12 -66 -27 -75 -35 -94 -71 -72 -137 9 -26 12 -49 7 -51 -7 -5
-853 -205 -865 -205 -3 0 -69 -62 -147 -138 -140 -136 -143 -139 -204 -152
-35 -7 -68 -18 -73 -26 -6 -7 -10 -34 -8 -61 3 -48 3 -48 63 -79 l60 -31 3
-392 2 -393 -22 -18 c-13 -11 -38 -24 -56 -30 -39 -14 -52 -36 -52 -87 0 -53
10 -63 66 -71 l49 -7 3 -318 c2 -241 5 -319 15 -322 6 -2 108 -14 225 -26 180
-18 220 -19 258 -9 43 12 55 26 254 279 116 146 210 274 210 283 0 9 4 19 9
22 12 8 314 -23 322 -32 4 -4 12 -24 19 -45 12 -40 17 -42 107 -51 39 -4 70 1
120 18 67 23 69 23 217 8 130 -12 153 -12 186 1 33 13 62 12 281 -9 134 -13
256 -23 272 -24 26 0 27 -2 22 -37 -5 -36 5 -53 223 -358 l229 -320 209 -22
c282 -29 284 -29 390 13 49 19 94 41 101 47 9 10 172 617 185 691 2 13 29 28
93 52 50 19 97 34 105 34 8 0 63 -67 122 -149 117 -161 117 -161 215 -161 55
0 79 -12 87 -44 5 -22 12 -24 84 -31 72 -6 83 -4 157 25 44 17 86 36 93 42 9
8 12 82 12 308 l0 297 50 21 50 21 0 53 c0 29 -4 58 -8 63 -4 6 -29 19 -57 30
l-50 21 -3 381 -2 381 29 24 c15 12 43 31 60 40 31 17 32 20 29 75 l-3 58 -54
3 c-54 3 -54 3 -201 137 l-148 133 -63 6 c-35 4 -172 13 -304 21 -132 8 -279
18 -327 21 l-88 7 0 37 c0 75 -37 122 -138 174 -39 20 -40 29 -7 68 26 31 32
67 15 98 -5 10 -41 41 -78 68 -58 42 -85 73 -179 208 -61 88 -122 182 -136
209 l-25 50 24 28 c32 38 30 69 -7 112 -57 64 -106 303 -124 605 -16 257 53
571 189 865 156 334 203 630 142 896 -21 92 -31 117 -91 212 -49 78 -84 121
-126 155 -32 26 -61 56 -65 66 -4 13 4 38 22 72 27 50 28 55 15 86 -25 56 -25
176 -1 300 27 143 72 225 253 461 123 161 163 230 151 262 -3 8 -21 23 -40 34
-26 16 -34 27 -34 49 0 37 9 44 95 72 39 12 131 54 205 92 195 102 421 189
668 258 185 53 228 69 302 112 47 28 109 74 138 102 43 42 52 56 52 86 0 19
-4 40 -8 47 -9 14 -225 33 -391 34 -64 0 -138 4 -165 7 l-49 7 117 140 c104
125 129 163 236 361 119 219 121 224 194 465 l74 244 23 242 22 243 -23 242
-23 243 -74 243 c-75 243 -75 243 -198 468 -118 215 -130 233 -287 420 -161
193 -166 198 -357 346 -189 146 -200 153 -435 269 l-241 119 -230 59 c-126 33
-259 65 -294 70 -91 15 -402 21 -557 11z m411 -880 c165 -22 309 -63 440 -125
39 -19 75 -34 80 -35 6 -1 18 -9 28 -17 9 -9 17 -13 17 -9 0 6 208 -129 220
-143 3 -3 21 -18 40 -32 59 -44 182 -170 240 -245 60 -77 62 -81 118 -169 50
-80 122 -232 122 -258 0 -7 5 -18 12 -25 7 -7 9 -12 5 -12 -4 0 -1 -13 8 -30
8 -16 15 -32 15 -35 -1 -3 5 -29 13 -58 15 -54 29 -124 47 -238 13 -82 13
-278 1 -350 -5 -30 -15 -85 -21 -124 -17 -109 -50 -230 -80 -300 -5 -11 -16
-38 -25 -60 -19 -45 -17 -41 -75 -155 -24 -47 -47 -87 -50 -90 -4 -3 -24 -32
-45 -65 -40 -62 -253 -282 -340 -352 -27 -22 -77 -57 -110 -78 -33 -22 -62
-42 -65 -46 -3 -3 -45 -25 -95 -49 -115 -53 -121 -56 -175 -74 -25 -8 -75 -26
-111 -39 -37 -13 -89 -28 -115 -32 -27 -5 -58 -9 -69 -11 -11 -2 -63 -7 -115
-11 -83 -7 -89 -8 -50 -14 28 -4 -2 -7 -83 -7 -71 -1 -126 2 -123 7 3 4 -36
11 -87 15 -130 10 -154 13 -185 21 -15 5 -34 9 -42 10 -25 3 -229 66 -275 85
-117 48 -238 116 -257 144 -5 7 -8 7 -8 1 0 -7 -3 -7 -8 0 -4 6 -25 23 -47 39
-78 57 -290 281 -350 370 -32 49 -64 98 -70 110 -102 196 -155 315 -170 386
-51 238 -55 268 -55 448 0 187 10 269 47 407 14 50 26 97 27 105 3 16 7 25 39
110 34 89 115 238 185 340 36 52 68 97 71 100 3 3 24 27 46 54 52 66 121 135
170 171 22 17 42 33 45 36 3 4 40 32 83 62 71 51 120 78 257 140 129 59 271
98 455 125 86 13 376 14 470 2z"/>
</g>
</svg>
