<svg version="1.1" width="418" height="323" viewBox="19 -1 418 323" xmlns="http://www.w3.org/2000/svg" xmlns:xlink="http://www.w3.org/1999/xlink">
  <!-- Exported by Scratch - http://scratch.mit.edu/ -->
  <path id="ID0.13179571134969592" fill="#000000" stroke="#383A38" stroke-width="2" stroke-linecap="round" d="M 244 121 C 262.792 119.066 286.497 120.622 299.500 134.500 C 315.719 151.804 315.208 179.252 319 202.500 C 322.085 221.401 323.080 241.156 320 260 C 319.329 264.844 310.394 259.818 309.500 262.500 C 308.639 265.094 317.364 267.035 316.500 270.500 C 315.165 278.432 310.929 287.018 304 291 C 300.318 293.095 298.418 282.644 295 283.500 C 290.918 284.394 292.449 292.438 289 294.500 C 285.580 296.554 280.560 295.335 277 293.500 C 273.005 291.439 271.881 284.290 268 284 C 265.036 283.803 266.968 293.047 263.500 293.500 C 257.989 294.209 253.476 286.699 247.500 286.500 C 243.492 286.329 240.596 294.214 236.500 292.500 C 231.341 290.335 233.157 278.951 228 278 C 223.725 277.198 222.900 286.259 218.500 288.500 C 214.029 290.773 208.333 291.553 203.500 290 C 200.593 289.061 202.860 281.866 200 281.500 C 196.176 281.021 194.087 287.913 190 287.500 C 186.601 287.160 184.095 283.232 183 280 C 181.665 275.989 185.229 271.071 182.500 268 C 180.696 265.405 174.689 270.446 173 267.500 C 169.743 261.735 171.640 254.311 172 247.500 C 172.356 240.884 176.989 234.594 176 228 C 175.173 222.344 166.814 218.614 168.500 212.500 C 175.066 188.857 183.564 164.552 199.464 145.619 C 210.358 132.642 227.143 122.732 244 121 Z " transform="matrix(1, 0, 0, 1, -134.8, -107.75)"/>
  <path id="ID0.5713645899668336" fill="#FFEFE3" stroke="#8A6047" stroke-width="2" stroke-linecap="round" d="M 170.250 137.750 C 172.848 138.030 175.969 137.918 177.709 139.737 C 179.899 142.025 180.750 145.232 180.750 148.750 C 180.750 152.268 179.478 155.146 177.709 157.763 C 176.550 159.464 174.812 161.040 173 161 C 170.307 160.939 167.990 159.171 166 157.500 C 163.726 155.582 161.028 153.785 160.500 151 C 159.693 146.745 159.373 141.476 162 138 C 163.687 135.770 167.560 137.446 170.250 137.750 Z " transform="matrix(1, 0, 0, 1, -115, -37)"/>
  <path id="ID0.5713645899668336" fill="#FFEFE3" stroke="#8A6047" stroke-width="2" stroke-linecap="round" d="M 170.250 137.750 C 172.848 138.030 175.969 137.918 177.709 139.737 C 179.899 142.025 180.750 145.232 180.750 148.750 C 180.750 152.268 179.478 155.146 177.709 157.763 C 176.550 159.464 174.812 161.040 173 161 C 170.307 160.939 167.990 159.171 166 157.500 C 163.726 155.582 161.028 153.785 160.500 151 C 159.693 146.745 159.373 141.476 162 138 C 163.687 135.770 167.560 137.446 170.250 137.750 Z " transform="matrix(-1, 0, 0, 1, 344.9, -37)"/>
  <path id="ID0.6597675303928554" fill="#FFEFE3" stroke="#8A6047" stroke-width="2" stroke-linecap="round" d="M 228.750 173 C 231.260 173.026 234.603 173.459 236.500 175.500 C 238.025 177.663 237.396 180.977 237.500 183.750 C 237.584 186.112 238.918 189.004 237.500 191 C 235.445 193.271 231.884 194.395 228.750 194.500 C 225.972 194.590 222.767 193.394 221 191 C 219.411 189.271 219.993 186.370 220 183.750 C 220.008 180.983 219.327 177.603 221 175.500 C 222.780 173.361 226.050 172.970 228.750 173 Z " transform="matrix(1, 0, 0, 1, -115, -37)"/>
  <path id="ID0.3272543582133949" fill="#FFEFE3" stroke="#8A6047" stroke-width="2" stroke-linecap="round" d="M 203 194 C 206.430 191.127 215.525 184.001 215.450 188.250 C 215.216 201.524 211.172 217.713 202.700 229.250 C 194.832 239.643 180.607 243.881 169.500 250 C 166.314 251.753 162.284 254.327 159 253 C 156.900 252.135 160.936 247.479 159.500 245.500 C 156.321 241.101 149.298 240.268 147 235 C 145.735 232.070 148.476 227.577 151.500 226.500 C 156.713 224.642 163.093 230.795 167.500 228 C 181.455 219.207 190.467 204.500 203 194 Z " transform="matrix(-1, 0, 0, 1, 344.4, -35.75)"/>
  <path id="ID0.3272543582133949" fill="#FFEFE3" stroke="#8A6047" stroke-width="2" stroke-linecap="round" d="M 203 194 C 206.065 191.369 213.803 184.607 213.500 188.500 C 212.354 203.206 208.884 219.019 200.250 231 C 193.244 240.877 179.973 244.455 169.500 250 C 166.286 251.701 162.284 254.327 159 253 C 156.900 252.135 160.936 247.479 159.500 245.500 C 156.321 241.101 149.298 240.268 147 235 C 145.735 232.070 148.476 227.577 151.500 226.500 C 156.713 224.642 163.093 230.795 167.500 228 C 181.455 219.207 190.767 204.501 203 194 Z " transform="matrix(1, 0, 0, 1, -115, -37)"/>
  <path id="ID0.11616381211206317" fill="#FFEFE3" stroke="#8A6047" stroke-width="2" stroke-linecap="round" d="M 201.500 259.750 C 204.445 265.895 211.477 268.937 217.104 272.991 C 220.347 275.329 226.515 275.125 227.500 279 C 229.480 286.799 226.246 294.955 225 302.750 C 223.079 314.290 220.387 325.718 218 337 C 217.149 341.023 216.931 345.363 215 349 C 214.367 350.187 212.521 349.768 211.250 349.750 C 207.669 350.103 204.012 350.359 200.500 350 C 197.446 349.688 192.800 350.560 191.500 348 C 190.227 345.464 194.897 343.102 195 339.500 C 195.411 325.095 192.620 310.512 193 296 C 193.372 274.906 194.621 243.967 197.250 232.750 C 198.548 227.267 197.503 251.532 201.500 259.750 Z " transform="matrix(1, 0, 0, 1, -115, -37)"/>
  <path id="ID0.11616381211206317" fill="#FFEFE3" stroke="#8A6047" stroke-width="2" stroke-linecap="round" d="M 206.500 262 C 208.660 266.604 213.252 269.677 217.104 272.991 C 220.015 275.491 226.475 275.136 227.500 279 C 229.464 286.412 226.152 294.127 224.950 301.500 C 222.987 313.456 220.416 325.335 218 337 C 217.165 341.032 217.056 345.432 215 349 C 214.291 350.218 212.312 349.550 210.950 349.750 C 207.474 349.884 203.928 350.263 200.500 350 C 197.439 349.765 192.800 350.560 191.500 348 C 190.227 345.464 194.923 343.124 195 339.500 C 195.308 325.006 192.128 310.499 192.700 296 C 193.364 274.938 194.592 243.056 198.700 233 C 200.934 227.527 202.249 252.936 206.500 262 Z " transform="matrix(-1, 0, 0, 1, 343.4, -37)"/>
  <path id="ID0.9100666306912899" fill="#FFEFE3" stroke="#8A6047" stroke-width="2" stroke-linecap="round" d="M 228.250 63 C 244.561 62.645 262.124 67.769 275 78 C 285.549 86.763 290.882 101.773 293 115.500 C 295.059 128.844 289.393 142.303 286 155.500 C 284.536 161.728 284.074 169.637 278.500 173.500 C 268.788 180.199 255.903 180.449 244.500 183.500 C 239.143 184.618 233.718 186.220 228.250 186 C 223.219 185.788 218.710 184.146 214 183 C 202.431 180.159 189.686 180.785 180 174.500 C 174.470 170.950 174.565 162.737 173 156.500 C 169.646 143.137 162.648 129.310 164.500 115.500 C 166.388 102.237 172.733 88.222 183 79.500 C 195.475 69.482 212.298 63.347 228.250 63 Z " transform="matrix(1, 0, 0, 1, -114.1, -42.5)"/>
  <path id="ID0.6700269407592714" fill="#FFEFE3" stroke="#8A6047" stroke-width="2" stroke-linecap="round" d="M 227.500 185 C 235.669 185.026 246.554 185.554 250 192.500 C 260.056 212.554 261.267 235.866 264 258 C 264.910 265.364 266.364 275.266 260.500 280 C 252.676 286.740 240.482 286.763 230 286.500 C 219.340 286.233 206.924 285.464 199 278.500 C 193.003 273.504 193.766 263.515 194.500 256 C 196.581 234.741 197.528 212.244 206.500 193 C 209.694 186.069 220.029 184.982 227.500 185 Z " transform="matrix(1, 0, 0, 1, -115, -37)"/>
  <path id="ID0.33893158473074436" fill="none" stroke="#660000" stroke-width="4" stroke-linecap="round" d="M 220.750 165 C 220.750 165 225.443 163.536 228 163.700 C 230.608 163.366 236 164.500 236 164.500 " transform="matrix(1, 0, 0, -1, -115, 296.2)"/>
  <path id="ID0.2762754466384649" fill="#1A2528" stroke="#111719" stroke-width="2" stroke-linecap="round" d="M 217.250 169.750 C 219.301 168.049 220.212 168.657 219.750 172 C 217.903 185.373 214.794 198.141 211.500 211 C 210.676 214.215 210.657 213.442 209.200 214.500 C 203.089 217.796 196.875 225.107 190.200 223.250 C 183.684 220.435 180.006 212.544 180.900 206.250 C 182.007 199.671 190.487 196.779 195 192.250 C 202.442 184.796 209.045 176.554 217.250 169.750 Z " transform="matrix(-1, 0, 0, 1, 354.9, -15.5)"/>
  <path id="ID0.43839484360069036" fill="#8A6047" stroke="#8A6047" stroke-width="2" stroke-linecap="round" d="M 201.250 131.250 C 203.597 131.692 205.773 133.558 206.910 135.657 C 208.525 138.646 209.346 141.965 209.250 145.250 C 209.154 148.416 208.605 152.531 206 154.500 C 203.378 156.479 198.928 156.251 195.750 155 C 193.566 154.133 192.872 150.928 192 148.500 C 191.425 147.097 191.793 145.484 191.500 143.750 C 191.356 142.895 191.755 141.620 190.750 141.250 C 188.851 140.611 184.544 143.437 184.750 142 C 185.166 139.157 188.660 135.075 191.750 133 C 194.527 131.253 198.236 130.686 201.250 131.250 Z " transform="matrix(1, 0, 0, 1, -115, -37)"/>
  <path id="ID0.018233098089694977" fill="#8A6047" stroke="#8A6047" stroke-width="2" stroke-linecap="round" d="M 197.250 118 C 198.974 118 200.537 118.420 201.668 119.099 C 202.800 119.778 203.500 120.715 203.500 121.750 C 203.500 122.785 202.800 123.722 201.668 124.401 C 200.537 125.080 198.974 125.500 197.250 125.500 C 195.526 125.500 193.963 125.080 192.832 124.401 C 191.700 123.722 191 122.785 191 121.750 C 191 120.715 191.700 119.778 192.832 119.099 C 193.963 118.420 195.526 118 197.250 118 Z " transform="matrix(1, 0, 0, 1, -115, -37)"/>
  <path id="ID0.9182768282480538" fill="none" stroke="#8A6047" stroke-width="2" stroke-linecap="round" d="M 191.750 162.500 L 193.250 159.750 Z " transform="matrix(1, 0, 0, 1, -115, -37)"/>
  <path id="ID0.4166369824670255" fill="none" stroke="#8A6047" stroke-width="2" stroke-linecap="round" d="M 196.500 164 L 197.500 161.250 Z " transform="matrix(1, 0, 0, 1, -115, -37)"/>
  <path id="ID0.4166369824670255" fill="none" stroke="#8A6047" stroke-width="2" stroke-linecap="round" d="M 196.500 164 L 197.500 161.250 Z " transform="matrix(-1, 0, 0, 1, 345.65, -36.75)"/>
  <path id="ID0.9182768282480538" fill="none" stroke="#8A6047" stroke-width="2" stroke-linecap="round" d="M 191.750 162.500 L 193.250 159.750 Z " transform="matrix(-1, 0, 0, 1, 345.65, -36.75)"/>
  <path id="ID0.27749211667105556" fill="none" stroke="#8A6047" stroke-width="2" stroke-linecap="round" d="M 172 146.750 C 172 146.750 170.854 145.724 170.250 145.250 C 169.687 144.808 169.102 144.387 168.500 144 C 167.935 143.637 167.333 143.333 166.750 143 C 166.167 142.667 165.583 142.333 165 142 C 164.854 141.917 165 142 165 142 " transform="matrix(1, 0, 0, 1, -115, -37)"/>
  <path id="ID0.4344554836861789" fill="none" stroke="#8A6047" stroke-width="2" stroke-linecap="round" d="M 167.750 144 C 167.750 144 167.750 150.750 167.750 150.750 " transform="matrix(1, 0, 0, 1, -115, -37)"/>
  <path id="ID0.16456109890714288" fill="none" stroke="#8A6047" stroke-width="2" stroke-linecap="round" d="M 174.250 156.250 C 174.250 156.250 172.706 155.853 172 155.500 C 171.359 155.180 170.833 154.666 170.250 154.250 C 170.104 154.146 170.250 154.250 170.250 154.250 " transform="matrix(1, 0, 0, 1, -115, -37)"/>
  <path id="ID0.16456109890714288" fill="none" stroke="#8A6047" stroke-width="2" stroke-linecap="round" d="M 174.250 156.250 C 174.250 156.250 172.706 155.853 172 155.500 C 171.359 155.180 170.833 154.666 170.250 154.250 C 170.104 154.146 170.250 154.250 170.250 154.250 " transform="matrix(-1, 0, 0, 1, 345.65, -37.75)"/>
  <path id="ID0.4344554836861789" fill="none" stroke="#8A6047" stroke-width="2" stroke-linecap="round" d="M 167.750 144 C 167.750 144 167.750 150.750 167.750 150.750 " transform="matrix(-1, 0, 0, 1, 345.65, -37.75)"/>
  <path id="ID0.27749211667105556" fill="none" stroke="#8A6047" stroke-width="2" stroke-linecap="round" d="M 172 146.750 C 172 146.750 170.854 145.724 170.250 145.250 C 169.687 144.808 169.102 144.387 168.500 144 C 167.935 143.637 167.333 143.333 166.750 143 C 166.167 142.667 165.583 142.333 165 142 C 164.854 141.917 165 142 165 142 " transform="matrix(-1, 0, 0, 1, 345.65, -37.75)"/>
  <path id="ID0.43839484360069036" fill="#8A6047" stroke="#8A6047" stroke-width="2" stroke-linecap="round" d="M 201.250 131.250 C 203.597 131.692 205.773 133.558 206.910 135.657 C 208.525 138.646 209.346 141.965 209.250 145.250 C 209.154 148.416 208.605 152.531 206 154.500 C 203.378 156.479 198.928 156.251 195.750 155 C 193.566 154.133 192.872 150.928 192 148.500 C 191.425 147.097 191.793 145.484 191.500 143.750 C 191.356 142.895 191.755 141.620 190.750 141.250 C 188.851 140.611 184.544 143.437 184.750 142 C 185.166 139.157 188.660 135.075 191.750 133 C 194.527 131.253 198.236 130.686 201.250 131.250 Z " transform="matrix(-1, 0, 0, 1, 345.4, -37.75)"/>
  <path id="ID0.018233098089694977" fill="#8A6047" stroke="#8A6047" stroke-width="2" stroke-linecap="round" d="M 197.250 118 C 198.974 118 200.537 118.420 201.668 119.099 C 202.800 119.778 203.500 120.715 203.500 121.750 C 203.500 122.785 202.800 123.722 201.668 124.401 C 200.537 125.080 198.974 125.500 197.250 125.500 C 195.526 125.500 193.963 125.080 192.832 124.401 C 191.700 123.722 191 122.785 191 121.750 C 191 120.715 191.700 119.778 192.832 119.099 C 193.963 118.420 195.526 118 197.250 118 Z " transform="matrix(-1, 0, 0, 1, 345.4, -37.75)"/>
  <path id="ID0.8597935372963548" fill="none" stroke="#8A6047" stroke-width="2" d="M 229 250.250 C 229.483 250.250 229.920 250.698 230.237 251.422 C 230.554 252.146 230.750 253.146 230.750 254.250 C 230.750 255.354 230.554 256.354 230.237 257.078 C 229.920 257.802 229.483 258.250 229 258.250 C 228.517 258.250 228.080 257.802 227.763 257.078 C 227.446 256.354 227.250 255.354 227.250 254.250 C 227.250 253.146 227.446 252.146 227.763 251.422 C 228.080 250.698 228.517 250.250 229 250.250 Z " transform="matrix(1, 0, 0, 1, -115, -37)"/>
  <path id="ID0.28529699286445975" fill="none" stroke="#8A6047" stroke-width="2" stroke-linecap="round" d="M 151.500 226.750 L 158 231.500 " transform="matrix(1, 0, 0, 1, -115, -37)"/>
  <path id="ID0.5125444028526545" fill="none" stroke="#8A6047" stroke-width="2" stroke-linecap="round" d="M 147.500 230 L 155 235.500 " transform="matrix(1, 0, 0, 1, -115, -36.5)"/>
  <path id="ID0.5125444028526545" fill="none" stroke="#8A6047" stroke-width="2" stroke-linecap="round" d="M 147.500 230 L 155 235.500 " transform="matrix(-1, 0, 0, 1, 355.15, -94)"/>
  <path id="ID0.28529699286445975" fill="none" stroke="#8A6047" stroke-width="2" stroke-linecap="round" d="M 151.500 226.750 L 158 231.500 " transform="matrix(-1, 0, 0, 1, 344.15, -35.25)"/>
  <path id="ID0.31435483880341053" fill="none" stroke="#8A6047" stroke-width="2" stroke-linecap="round" d="M 260.750 349.500 L 258.500 344 " transform="matrix(1, 0, 0, 1, -115, -37)"/>
  <path id="ID0.4200208061374724" fill="none" stroke="#8A6047" stroke-width="2" stroke-linecap="round" d="M 254.750 350.250 L 252.750 344.500 " transform="matrix(1, 0, 0, 1, -115, -37)"/>
  <path id="ID0.31435483880341053" fill="none" stroke="#8A6047" stroke-width="2" stroke-linecap="round" d="M 260.750 349.500 L 258.500 344 " transform="matrix(-1, 0, 0, 1, 343.4, -37.5)"/>
  <path id="ID0.4200208061374724" fill="none" stroke="#8A6047" stroke-width="2" stroke-linecap="round" d="M 254.750 350.250 L 252.750 344.500 " transform="matrix(-1, 0, 0, 1, 343.4, -37.5)"/>
  <path id="ID0.30228898022323847" fill="#FFEFE3" stroke="none" stroke-linecap="round" d="M 228.375 183.500 C 230.432 183.476 233.130 182.550 235 183.750 C 236.270 184.600 236.253 186.897 236 188.500 C 235.666 189.668 234.541 190.542 233.412 191.181 C 231.943 192.005 230.341 192.500 228.375 192.500 C 226.409 192.500 224.797 191.935 223.338 191.181 C 222.173 190.560 220.911 190.032 220.500 189 C 220.226 187.272 220.273 184.866 221.500 184 C 223.441 182.729 226.095 183.525 228.375 183.500 Z " transform="matrix(1, 0, 0, 1, -114.6, -38.25)"/>
  <path id="ID0.7274368307553232" fill="#000000" stroke="#383A38" stroke-width="2" stroke-linecap="round" d="M 248 125.500 C 251.706 125.717 254.882 128.321 258.500 128 C 263.613 128.150 268.418 123.933 273.500 125 C 277.414 125.831 277.999 132.045 281.500 134 C 284.203 135.512 288.251 133.405 291 135 C 293.301 136.341 293.125 140.380 295 142.500 C 298.191 146.118 303.462 147.003 305.500 151 C 307.555 155.051 304.914 160.039 306.500 164 C 308.188 168.998 313.686 172.111 315 177 C 315.974 180.627 311.255 184.463 312.500 188 C 313.487 190.788 318.754 190.080 320 193 C 321.604 196.148 318.257 200.491 320 204 C 321.679 207.365 327.913 206.971 329 210.500 C 330.695 215.683 324.902 221.748 326.500 227 C 328.627 232.376 337.040 233.577 339 239 C 340.112 242.122 334.135 243.519 334 246.500 C 333.791 250.904 339.639 254.556 339 259 C 338.441 262.719 332.533 262.830 331 266 C 329.041 270.069 332.391 275.856 330 280 C 328.060 282.746 322.698 281.269 320 283.500 C 316.861 286.025 315.467 290.531 314.500 294.500 C 313.768 297.534 317.387 304.384 314.500 304 C 308.887 303.134 301.420 297.857 297.500 292 C 293.943 286.675 293.021 278.815 294.500 273 C 295.402 269.473 303.139 271.046 304 267.500 C 304.918 263.688 297.899 260.675 298.500 256.500 C 298.756 253.389 306.148 253.935 306 250.500 C 305.790 245.609 297.824 243.738 297.500 238.500 C 297.159 233.082 305.887 229.075 305 224 C 304.467 220.859 297.796 225.061 295.500 221.500 C 293.033 217.512 296.247 211.362 294 207.500 C 292.635 205.169 288.098 206.821 286.500 204.500 C 283.909 200.698 286.558 194.320 283.500 191 C 280.624 187.881 273.932 191.647 271 188.500 C 267.973 185.246 269.343 179.691 268 175.500 C 267.609 174.406 268.117 174.623 267.250 174.250 C 263.178 172.819 258.961 172.263 255 170.750 C 249.594 168.691 244.133 165.571 238.500 163.500 C 236.732 162.848 233.230 164.379 232.750 162.250 C 230.903 154.294 231.184 145.772 232.500 137.500 C 233.089 133.806 235.560 130.310 238.500 128 C 241.208 125.881 244.743 125.323 248 125.500 Z " transform="matrix(1, 0, 0, 1, -119.5, -118)"/>
  <path id="ID0.7274368307553232" fill="#000000" stroke="#383A38" stroke-width="2" stroke-linecap="round" d="M 244.500 136.750 C 247.278 136.127 249.011 132.199 251.950 132.600 C 254.629 132.585 255.587 137.490 258.300 137.700 C 261.023 137.895 262.765 134.004 265.400 134.550 C 268.479 134.672 270.197 139.032 273.250 139.450 C 277.224 139.994 280.653 135.791 284 137.250 C 287.404 138.731 286.962 144.415 290 146.450 C 293.623 148.865 298.905 146.868 301.600 149.750 C 305.851 153.576 305.842 160.344 309 164.800 C 311.170 167.870 316.440 168.108 318.100 171.500 C 319.328 174.034 315.988 177.160 317.350 179.700 C 318.362 182.695 323.065 182.972 324.400 186.200 C 326.050 190.259 322.971 195.159 324.400 199.350 C 324.966 202.246 329.262 203.055 330 206.100 C 330.995 210.340 326.547 214.910 327.950 219.050 C 329.428 223.426 336.106 225.134 336.700 229.850 C 337.114 233.247 330.457 234.997 330.900 238.350 C 331.640 243.945 337.980 248.286 337.850 253.950 C 337.759 257.717 330.603 258.776 330.600 262.650 C 330.593 266.663 337.518 268.744 337.200 272.750 C 336.934 276.136 330.036 276.555 330 280 C 329.966 283.150 333.913 284.875 336.350 287.050 C 338.407 289.403 345.052 291.906 343.450 293.550 C 340.739 296.288 333.720 296.470 329.050 295.250 C 323.752 293.876 320.079 289.762 316.500 286.050 C 314.514 284.049 316.455 279.886 314.300 278.300 C 312.045 276.679 308.269 279.960 306.650 277.950 C 304.232 275.086 305.806 270.338 305.400 266.550 C 305.004 263.130 304.996 259.786 305.350 256.400 C 305.197 254.411 307.217 252.053 306 250.500 C 302.602 246.197 294.477 245.886 291.850 240.800 C 290.187 236.661 296.140 232.072 295.350 227.600 C 294.653 223.651 288.399 221.505 288.200 217.050 C 287.863 213.521 294.406 211.575 294 207.500 C 293.722 204.844 288.098 206.821 286.500 204.500 C 283.909 200.698 285.846 194.947 283.500 191 C 281.967 188.473 277.921 188.876 276.900 186.400 C 275.103 183.483 278.185 178.979 275.900 176.450 C 272.582 172.815 265.695 174.233 261.950 171.500 C 260.195 170.209 262.048 166.381 260 165.250 C 256.187 163.220 251.326 164.954 247 164.500 C 243.373 164.114 237.566 167.100 236 164 C 232.005 156.052 232.483 146.400 232.500 137.500 C 232.510 135.256 234.867 135.834 236.300 136 C 239.021 135.574 241.770 137.357 244.500 136.750 Z " transform="matrix(-0.9884082674980164, 0.1518191248178482, 0.1518191248178482, 0.9884082674980164, 320.9, -154.75)"/>
  <path id="ID0.03924919618293643" fill="none" stroke="#383A38" stroke-width="2" stroke-linecap="round" d="M 226.500 136 C 226.500 136 220.046 127.460 217 129 C 212.802 131.707 215.219 143.077 212 144.500 C 209.573 145.547 208.738 137.051 205.500 135 C 203.109 133.486 199.117 133.143 197 135 C 194.500 137.261 196.247 144.935 194.500 146 C 193.062 146.405 192.949 138.965 190.500 138 C 186.919 136.654 181.742 136.073 179 139 C 175.725 142.090 175.688 147.595 176 152.500 C 176.154 154.861 181.629 157.281 180.500 158 C 178.944 158.990 173.874 155.617 170.500 156 C 166.260 156.482 159.936 156.488 158.500 160.500 C 156.114 167.243 164.290 175.444 162 182.500 C 159.933 187.723 149.345 186.691 147.500 191.500 C 146.441 194.253 155.500 197 155.500 197 " transform="matrix(1, 0, 0, 1, -119.5, -118)"/>
  <path id="ID0.37706050276756287" fill="none" stroke="#383A38" stroke-width="2" stroke-linecap="round" d="M 150.500 221 C 150.500 221 141.394 223.407 141.500 227 C 141.694 232.932 152.064 236.265 152 242.500 C 151.944 248.012 140.772 248.406 141 253.500 C 141.231 258.618 153.358 257.725 154 263 C 154.261 269.689 142.969 273.548 143 280 C 143.027 283.422 149.927 281.373 153 283 C 153.768 283.407 151.744 283.837 151.500 284.500 C 150.551 287.077 148.166 290.100 149.500 292.500 C 150.644 294.558 156.500 293.500 156.500 293.500 " transform="matrix(1, 0, 0, 1, -119.5, -118)"/>
  <path id="ID0.8815827956423163" fill="none" stroke="#383A38" stroke-width="2" stroke-linecap="round" d="M 241.500 129.500 C 241.500 129.500 244.354 123.079 247 121 C 249.293 119.197 252.634 118.813 255.500 119.500 C 258.331 119.703 260.991 121.224 263 123.500 C 264.397 125.074 263.210 129.276 265 129.500 C 267.210 129.776 268.464 125.051 271 124.500 C 274.684 123.701 279.513 123.671 282 126.500 C 285.120 129.478 284.481 134.516 285 139 C 285.250 141.156 282.873 145.825 284.500 145.500 C 287.873 144.825 290.524 137.448 295 137 C 298.814 136.619 304.211 139.688 304.500 143.500 C 304.899 149.152 294.590 153.411 297.500 158 C 300.515 164.026 312.741 159.588 316.500 165 C 318.947 168.553 307.183 171.966 309 176.500 C 310.786 180.997 320.298 178.006 322.500 182.500 C 324.140 185.838 317.500 192.500 317.500 192.500 " transform="matrix(1, 0, 0, 1, -119.5, -118)"/>
  <path id="ID0.02665986819192767" fill="none" stroke="#383A38" stroke-width="2" stroke-linecap="round" d="M 321.500 215 C 321.500 215 327.785 215.567 330.500 217 C 333.950 218.821 337.798 220.990 339.500 224.500 C 340.816 227.213 339.620 230.700 338.500 233.500 C 337.213 236.717 334.664 239.295 332.500 242 C 331.959 242.676 329.933 243.004 330.500 243.500 C 331.933 244.754 334.659 244.477 336.500 245.500 C 337.735 246.186 339.214 247.117 339.500 248.500 C 340.276 252.250 342.255 257.340 339.500 260 C 335.975 263.403 325.734 261.136 325 262.500 C 324.266 263.864 332.853 264.200 336 266.500 C 337.573 267.650 338.215 270.063 338 272 C 337.830 273.526 336.434 274.952 335 275.500 C 330.547 277.203 323.761 275.278 321 278.500 C 319.261 280.528 325.720 283.011 326 286 C 326.286 289.048 325.086 292.862 322.500 294.500 C 319.253 296.557 311 295.500 311 295.500 " transform="matrix(1, 0, 0, 1, -119.5, -118)"/>
  <path id="ID0.2825340973213315" fill="none" stroke="#383A38" stroke-width="2" stroke-linecap="round" d="M 216 163.250 C 216 163.250 216.314 166.957 215 167.750 C 211.368 169.943 206.866 170.221 202.750 171.250 C 201.721 171.507 200.863 171.182 200 171.500 C 199.219 171.788 197.565 172.213 198 173 C 199.739 176.147 205.053 177.415 205.250 181 C 205.460 184.784 201.749 188.108 198.500 190 C 196.345 191.463 190.770 187.872 190.750 190 C 190.770 193.899 199.129 197.648 199 202.500 C 198.905 205.797 194.010 207.477 190.750 208 C 186.736 208.644 182.154 206.139 178.750 205.750 C 177.779 205.639 181.144 206.217 182 207 C 185.132 209.865 190.430 212.281 190.500 216.500 C 190.555 219.781 185.307 220.752 182.250 222 C 181.007 222.507 179.585 221.641 178.250 221.500 C 177.916 221.465 177.500 221.500 177.500 221.500 " transform="matrix(1, 0, 0, 1, -119.5, -118)"/>
  <path id="ID0.2762754466384649" fill="#1A2528" stroke="#111719" stroke-width="2" stroke-linecap="round" d="M 217.250 169.750 C 219.301 168.049 220.212 168.657 219.750 172 C 217.903 185.373 214.601 198.094 211.500 211 C 210.725 214.227 211.526 212.886 210.150 213.750 C 204.549 217.192 199.270 225.102 193.450 223 C 186.406 220.175 182.382 210.240 183 203.500 C 183.641 198.135 191.088 196.147 195 192.250 C 202.495 184.906 209.045 176.554 217.250 169.750 Z " transform="matrix(1, 0, 0, 1, -125.45, -17)"/>
  <g id="ID0.7846399680711329">
    <path id="ID0.6486056838184595" fill="#191628" stroke="#08060C" stroke-width="2" stroke-linecap="round" d="M 207.950 329.700 C 209.838 329.576 211.481 330.668 213.500 330.800 C 217.939 331.225 222.213 331.667 226.900 332.150 C 228.072 332.271 227.911 332.941 227.900 333.500 C 227.865 335.136 227.399 336.791 226.900 338.350 C 226.663 338.846 226.669 339.330 225.750 339.500 C 222.093 340.172 218.227 340.493 214.625 340.500 C 210.422 340.509 205.953 340.989 202 339.500 C 200.744 339.023 200.715 336.783 201.100 335.500 C 201.747 333.873 203.395 332.769 204.750 331.750 C 205.653 331.057 206.715 329.915 207.950 329.700 Z " transform="matrix(1, 0, 0, 1, -125.95, -27.4)"/>
    <path id="ID0.6486056838184595" fill="#191628" stroke="#08060C" stroke-width="2" stroke-linecap="round" d="M 204.700 332.350 C 208.443 330.413 211.077 325.870 215.300 325.700 C 219.697 325.531 222.812 329.971 226.900 332.150 C 227.922 332.695 227.911 332.941 227.900 333.500 C 227.865 335.136 227.399 336.791 226.900 338.350 C 226.663 338.846 226.669 339.330 225.750 339.500 C 222.093 340.172 218.227 340.493 214.625 340.500 C 210.422 340.509 205.953 340.989 202 339.500 C 200.744 339.023 200.715 336.783 201.100 335.500 C 201.747 333.873 203.396 332.639 204.750 331.750 C 205.185 331.501 203.942 332.994 204.700 332.350 Z " transform="matrix(-1, 0, 0, 1, 354.5, -27.3)"/>
  </g>
  <path id="ID0.2825340973213315" fill="none" stroke="#383A38" stroke-width="2" stroke-linecap="round" d="M 216 163.250 C 216 163.250 216.314 166.957 215 167.750 C 211.368 169.943 206.866 170.221 202.750 171.250 C 201.721 171.507 200.863 171.182 200 171.500 C 199.219 171.788 197.565 172.213 198 173 C 199.739 176.147 205.053 177.415 205.250 181 C 205.460 184.784 201.749 188.108 198.500 190 C 196.345 191.463 190.770 187.872 190.750 190 C 190.770 193.899 199.129 197.648 199 202.500 C 198.905 205.797 194.010 207.477 190.750 208 C 186.736 208.644 182.154 206.139 178.750 205.750 C 177.779 205.639 181.144 206.217 182 207 C 185.132 209.865 190.430 212.281 190.500 216.500 C 190.555 219.781 185.307 220.752 182.250 222 C 181.007 222.507 179.585 221.641 178.250 221.500 C 177.916 221.465 177.500 221.500 177.500 221.500 " transform="matrix(-1, 0, 0, 1, 349.65, -118.75)"/>
  <g id="ID0.9342506038956344" transform="matrix(1, 0, 0, 1, -266.25, -9.25)">
    <path id="ID0.03388132806867361" fill="#CCCCCC" stroke="#1A2528" stroke-width="2" stroke-linecap="round" d="M 212 165.750 C 215.101 164.238 219.293 164.081 222.800 164.900 C 223.873 165.160 223.002 166.973 222.800 167.900 C 221.742 171.508 220.153 174.985 219.050 178.400 C 217.135 184.323 216.002 190.556 213.500 196.250 C 212.871 197.676 212.059 197.743 211.300 197.150 C 207.850 194.491 205.251 190.838 202.500 187.750 C 201.808 186.974 200.663 186.429 200.800 185.400 C 201.109 181.522 201.786 177.453 203.750 174 C 205.680 170.608 208.521 167.461 212 165.750 Z " transform="matrix(-1, 0, 0, 1, 622.3, -3.25)"/>
    <path id="ID0.03388132806867361" fill="#CCCCCC" stroke="#1A2528" stroke-width="2" stroke-linecap="round" d="M 212 165.750 C 214.749 164.377 218.740 163.807 221 165 C 222.218 165.658 219.769 168.350 219 170 C 217.931 172.191 215.831 174.308 215.250 177 C 213.968 183.205 217.323 192.913 213.500 196.250 C 210.833 198.574 206.011 190.781 202.500 187.750 C 201.626 187.015 200.443 186.185 200.500 185 C 200.891 181.256 201.796 177.359 203.750 174 C 205.713 170.628 208.650 167.560 212 165.750 Z " transform="matrix(1, 0, 0, 1, 140.75, -4.25)"/>
    <path id="ID0.5839526383206248" fill="#1A2528" stroke="#111719" stroke-width="2" stroke-linecap="round" d="M 271.750 172.500 C 273.621 174.074 275.220 176.179 276 178.500 C 277.337 182.480 277.843 186.645 277.750 190.750 C 277.843 193.505 276.683 200.164 276 198.750 C 274.761 196.181 275.177 187.417 273.750 182.250 C 273.053 179.733 271.450 177.685 269.750 175.500 C 268.725 174.189 267.097 173.490 265.750 172.500 C 265.248 172.142 264.425 171.851 264.750 171.500 C 264.924 170.977 265.881 170.634 266.750 170.750 C 268.498 170.987 270.353 171.326 271.750 172.500 Z " transform="matrix(-1, 0, 0, 1, 623.75, -5.25)"/>
    <path id="ID0.5839526383206248" fill="#1A2528" stroke="#111719" stroke-width="2" stroke-linecap="round" d="M 271.750 172.500 C 273.621 174.074 275.220 176.179 276 178.500 C 277.337 182.480 277.843 186.645 277.750 190.750 C 277.843 193.505 276.683 200.164 276 198.750 C 274.761 196.181 275.177 187.417 273.750 182.250 C 273.053 179.733 271.450 177.685 269.750 175.500 C 268.725 174.189 267.302 173.454 265.750 172.500 C 264.761 171.896 262.335 171.648 262.500 171.250 C 262.672 170.855 265.333 170.565 266.750 170.750 C 268.494 170.992 270.353 171.326 271.750 172.500 Z " transform="matrix(1, 0, 0, 1, 138, -4.25)"/>
    <path id="ID0.5839526383206248" fill="#1A2528" stroke="#111719" stroke-width="2" stroke-linecap="round" d="M 267.100 173.350 C 269.315 174.801 271.546 176.484 272.600 178.850 C 274.314 182.698 275.025 187.095 275.350 191.350 C 275.365 193.817 273.837 198.499 273.600 198.600 C 273.364 198.701 273.488 194.286 273.100 192.100 C 272.317 188.519 272.006 184.640 270.100 181.350 C 268.327 178.293 265.637 175.622 262.350 174.100 C 259.306 172.694 252.401 173.123 252.350 172.850 C 252.299 172.577 258.508 171.680 261.600 171.850 C 263.632 171.968 265.533 172.395 267.100 173.350 Z " transform="matrix(1, 0, 0, 1, 146.65, -11.75)"/>
    <path id="ID0.5839526383206248" fill="#1A2528" stroke="#111719" stroke-width="2" stroke-linecap="round" d="M 267.100 173.350 C 269.315 174.801 271.546 176.484 272.600 178.850 C 274.314 182.698 275.025 187.095 275.350 191.350 C 275.365 193.817 273.837 198.499 273.600 198.600 C 273.364 198.701 273.488 194.286 273.100 192.100 C 272.317 188.519 272.006 184.640 270.100 181.350 C 268.327 178.293 265.637 175.622 262.350 174.100 C 259.306 172.694 252.401 173.123 252.350 172.850 C 252.299 172.577 258.508 171.680 261.600 171.850 C 263.632 171.968 265.533 172.395 267.100 173.350 Z " transform="matrix(-1, 0, 0, 1, 615.4, -12.5)"/>
    <path id="ID0.003701168578118086" fill="#FFFEF9" stroke="#B9B9B4" stroke-width="2" stroke-linecap="round" d="M 244.125 309.500 C 261.441 310.243 278.778 311.616 295.500 315.750 C 299.691 316.801 298.402 321.683 298 322.750 C 297.640 323.565 295.414 319.858 293.750 320.250 C 292.202 320.302 292.443 323.650 290.750 323.750 C 288.725 323.848 287.675 320.099 285.750 320.250 C 283.936 320.401 283.809 323.944 281.750 324 C 279.367 324.040 277.884 320.507 275.500 320.500 C 273.649 320.492 272.825 323.693 271 323.750 C 268.620 323.826 266.856 320.566 264.500 320.750 C 262.803 320.903 262.400 324.343 260.750 324.250 C 258.728 324.127 257.673 320.648 255.750 320.750 C 253.988 320.855 253.822 324.318 252 324.500 C 250.069 324.711 248.654 321.859 246.750 322 C 245.099 322.126 244.691 325.249 243 325.250 C 240.913 325.248 239.539 322.311 237.500 322.250 C 235.885 322.211 235.035 325.098 233.500 325 C 231.421 324.867 230.150 322.027 228 322 C 225.987 321.977 224.795 325.125 222.750 325 C 220.370 324.873 218.872 321.696 216.500 321.500 C 214.956 321.376 214.845 324.408 212.750 324.250 C 210.774 324.136 209.813 321.306 207.750 321.250 C 205.564 321.215 203.811 323.766 201.750 323.750 C 199.885 323.736 198.753 321.465 196.750 321.250 C 195.022 321.063 193.449 323.405 191.750 322.750 C 190.302 322.187 188.963 319.344 190.250 318.250 C 194.534 314.817 196.287 313.648 206.040 312.064 C 215.793 310.480 231.425 308.955 244.125 309.500 Z " transform="matrix(1, 0, 0, 1, 138, -4.25)"/>
    <path id="ID0.020318439230322838" fill="#1A2528" stroke="#111719" stroke-width="2" stroke-linecap="round" d="M 283 186.500 C 283.769 185.823 284.095 185.460 284.750 185.750 C 285.865 186.277 286.835 187.345 287.250 188.500 C 287.419 189.059 287.498 188.549 286.500 189.500 C 282.273 193.872 278.397 198.697 273.750 202.250 C 272.589 203.165 272.924 201.075 272.750 200.250 C 272.488 199.023 272.174 197.707 272.500 196.500 C 272.695 195.789 273.270 196.133 274 195.500 C 277.080 192.504 279.922 189.207 283 186.500 Z " transform="matrix(1, 0, 0, 1, 138, -4.25)"/>
    <path id="ID0.020318439230322838" fill="#1A2528" stroke="#111719" stroke-width="2" stroke-linecap="round" d="M 283 186.500 C 283.769 185.823 284.095 185.460 284.750 185.750 C 285.865 186.277 286.835 187.345 287.250 188.500 C 287.419 189.059 287.498 188.549 286.500 189.500 C 282.273 193.872 278.397 198.697 273.750 202.250 C 272.589 203.165 272.924 201.075 272.750 200.250 C 272.488 199.023 272.174 197.707 272.500 196.500 C 272.695 195.789 273.270 196.133 274 195.500 C 277.080 192.504 279.922 189.207 283 186.500 Z " transform="matrix(-1, 0, 0, 1, 624.5, -4.75)"/>
    <path id="ID0.7079901290126145" fill="#1A2528" stroke="#111719" stroke-width="2" stroke-linecap="round" d="M 243.250 217 C 252.659 217.285 263.037 214 271.500 218 C 277.746 221.166 280.068 229.369 282.250 236 C 285.790 246.760 286.494 258.344 288.750 269.500 C 291.572 284.819 294.846 300.105 297.500 315.500 C 298.146 319.352 299.458 321.338 297.500 322.750 C 294.233 325.107 289.619 324.365 285.750 323.750 C 280.620 323.177 276.096 319.073 271 319.250 C 267.307 319.378 265.201 325.013 261.500 325 C 255.623 324.977 250.333 319.052 244.250 319 C 238.474 318.955 233.311 324.849 227.250 324.750 C 222.535 324.669 219.038 318.883 214.250 318.500 C 209.647 318.130 205.435 321.929 200.750 322.250 C 197.255 322.696 193.266 322.797 190.250 320.750 C 188.802 319.767 189.999 319.302 190.500 315.500 C 192.505 300.290 194.630 284.943 197.250 269.750 C 199.127 257.714 200.059 245.359 204 233.750 C 206.250 227.124 208.872 218.822 215.250 216 C 223.862 212.425 234.016 216.720 243.250 217 Z " transform="matrix(1, 0, 0, 1, 138, -5.75)"/>
    <path id="ID0.5466508441604674" fill="#1A2528" stroke="#111719" stroke-width="2" stroke-linecap="round" d="M 223.500 173.250 C 226.265 173.470 228.762 174.294 231.250 175.250 C 233.462 176.101 235.366 177.351 237.250 178.500 C 239.033 179.518 240.361 181.726 242.250 181.750 C 244.191 181.771 245.559 179.696 247.250 178.750 C 249.473 177.577 251.044 175.964 253.250 175.250 C 255.945 174.389 258.560 174.111 261.250 174 C 262.183 173.962 263.275 173.964 264 174.500 C 265.167 175.675 265.571 175.388 266.500 178.750 C 270.216 192.199 274.490 205.749 276.250 219.500 C 276.690 222.938 274.334 223.230 272.750 224.500 C 270.750 226.097 268.479 226.963 266.250 228 C 259.477 231.152 252.279 234.253 245.250 237.250 C 243.494 237.999 243.406 238.012 242.500 238 C 241.354 238.098 241.273 238.489 239.250 237.500 C 231.153 233.545 223.008 229.269 215.250 225 C 213.310 223.933 211.909 223.335 210.750 222 C 209.647 220.728 208.443 220.527 209 217.250 C 211.226 204.142 214.518 191.192 217.750 178.250 C 218.636 175.093 218.906 175.307 220 174.250 C 220.867 173.409 222.288 173.153 223.500 173.250 Z " transform="matrix(1, 0, 0, 1, 138, -4.25)"/>
    <path id="ID0.9348024297505617" fill="none" stroke="#CCCCCC" stroke-width="2" stroke-linecap="round" d="M 233.500 231.250 L 251.250 223.750 L 234 217.500 L 251 209.750 L 234.500 203 L 251 195.500 L 234.750 187.750 " transform="matrix(1, 0, 0, 1, 138, -4.25)"/>
    <path id="ID0.9348024297505617" fill="none" stroke="#CCCCCC" stroke-width="2" stroke-linecap="round" d="M 233.500 231.250 L 251.250 223.750 L 234 217.500 L 251 209.750 L 234.500 203 L 251 195.500 L 234.750 187.750 " transform="matrix(-1, 0, 0, 1, 622.85, -4.25)"/>
    <path id="ID0.5078978845849633" fill="none" stroke="#111719" stroke-width="2" stroke-linecap="round" d="M 250.500 177.250 L 252 233.750 " transform="matrix(1, 0, 0, 1, 139.5, -4.25)"/>
    <path id="ID0.4603513325564563" fill="none" stroke="#111719" stroke-width="2" stroke-linecap="round" d="M 235.250 177.500 L 233.500 234.250 " transform="matrix(1, 0, 0, 1, 135.5, -5)"/>
    <path id="ID0.03226029081270099" fill="none" stroke="#CCCCCC" stroke-width="2" stroke-linecap="round" d="M 186.500 173.250 C 186.500 173.250 183.112 174.284 181.500 175 C 180.846 175.291 180.236 175.724 179.750 176.250 C 179.217 176.827 178.761 177.509 178.500 178.250 C 178.249 178.961 177.953 179.807 178.250 180.500 C 178.532 181.158 179.305 181.576 180 181.750 C 180.731 181.933 181.559 181.802 182.250 181.500 C 182.953 181.192 183.574 180.639 184 180 C 184.438 179.343 184.429 178.472 184.750 177.750 C 185.098 176.967 185.465 176.169 186 175.500 C 186.479 174.901 187.750 173.362 187.750 174 C 187.750 175.862 186.317 178.281 186 180.500 C 185.647 182.974 185.750 188 185.750 188 " transform="matrix(1, 0, 0, 1, 192.25, 4.75)"/>
    <path id="ID0.03226029081270099" fill="none" stroke="#CCCCCC" stroke-width="2" stroke-linecap="round" d="M 186.500 173.250 C 186.500 173.250 183.112 174.284 181.500 175 C 180.846 175.291 180.236 175.724 179.750 176.250 C 179.217 176.827 178.761 177.509 178.500 178.250 C 178.249 178.961 177.953 179.807 178.250 180.500 C 178.532 181.158 179.305 181.576 180 181.750 C 180.731 181.933 181.559 181.802 182.250 181.500 C 182.953 181.192 183.574 180.639 184 180 C 184.438 179.343 184.429 178.472 184.750 177.750 C 185.098 176.967 185.465 176.169 186 175.500 C 186.479 174.901 187.750 173.362 187.750 174 C 187.750 175.862 186.529 178.325 186 180.500 C 185.390 182.995 183.700 188 183.700 188 " transform="matrix(-1, 0, 0, 1, 567.45, 5)"/>
    <path id="ID0.39155619498342276" fill="none" stroke="#111719" stroke-width="2" stroke-linecap="round" d="M 278.750 318.500 L 269.250 236.750 " transform="matrix(1, 0, 0, 1, 138, -4.25)"/>
    <path id="ID0.7919670538976789" fill="none" stroke="#111719" stroke-width="2" stroke-linecap="round" d="M 267.500 319.250 L 266.750 260.250 " transform="matrix(1, 0, 0, 1, 138, -4.25)"/>
    <path id="ID0.9683319223113358" fill="none" stroke="#111719" stroke-width="2" stroke-linecap="round" d="M 218.500 318.750 L 223.750 248 " transform="matrix(1, 0, 0, 1, 138, -4.25)"/>
    <path id="ID0.3078090464696288" fill="none" stroke="#111719" stroke-width="2" stroke-linecap="round" d="M 207 318.500 L 212.500 283.500 " transform="matrix(1, 0, 0, 1, 138, -4.25)"/>
    <path id="ID0.6165874740108848" fill="none" stroke="#111719" stroke-width="2" stroke-linecap="round" d="M 250 318.500 L 247 264 " transform="matrix(1, 0, 0, 1, 138, -4.25)"/>
  </g>
</svg>