<svg version="1.1" width="87" height="97" viewBox="7 -1 87 97" xmlns="http://www.w3.org/2000/svg" xmlns:xlink="http://www.w3.org/1999/xlink">
  <defs>
    <linearGradient id="grad_1" y2="1">
      <stop offset="0" stop-color="#CC0000" stop-opacity="1"/>
      <stop offset="1" stop-color="#FF9400" stop-opacity="1"/>
    </linearGradient>
    <linearGradient id="grad_2" y2="1">
      <stop offset="0" stop-color="#CC0000" stop-opacity="1"/>
      <stop offset="1" stop-color="#FF9400" stop-opacity="1"/>
    </linearGradient>
    <linearGradient id="grad_3" y2="1">
      <stop offset="0" stop-color="#CC0000" stop-opacity="1"/>
      <stop offset="1" stop-color="#FF9400" stop-opacity="1"/>
    </linearGradient>
    <linearGradient id="grad_4" y2="1">
      <stop offset="0" stop-color="#CC0000" stop-opacity="1"/>
      <stop offset="1" stop-color="#FF9400" stop-opacity="1"/>
    </linearGradient>
    <linearGradient id="grad_5" y2="1">
      <stop offset="0" stop-color="#CC0000" stop-opacity="1"/>
      <stop offset="1" stop-color="#FF9400" stop-opacity="1"/>
    </linearGradient>
    <linearGradient id="grad_6" y2="1">
      <stop offset="0" stop-color="#CC0000" stop-opacity="1"/>
      <stop offset="1" stop-color="#FF9400" stop-opacity="1"/>
    </linearGradient>
    <linearGradient id="grad_7" y2="1">
      <stop offset="0" stop-color="#CC0000" stop-opacity="1"/>
      <stop offset="1" stop-color="#FF9400" stop-opacity="1"/>
    </linearGradient>
    <linearGradient id="grad_8" y2="1">
      <stop offset="0" stop-color="#CC0000" stop-opacity="1"/>
      <stop offset="1" stop-color="#FF9400" stop-opacity="1"/>
    </linearGradient>
  </defs>
  <!-- Exported by Scratch - http://scratch.mit.edu/ -->
  <path id="ID0.3625097759068012" fill="none" stroke="#2C1900" stroke-width="3" stroke-linecap="round" d="M 209.450 262.200 C 209.450 262.200 209.402 264.537 208.900 265.550 C 208.440 266.478 207.565 267.179 206.700 267.750 C 205.864 268.302 204.878 269.065 203.900 268.850 C 202.888 268.627 201.446 267.030 201.700 266.650 C 201.954 266.270 203.890 267.108 205 267.200 C 206.112 267.292 207.504 267.927 208.350 267.200 C 209.208 266.463 209.557 264.244 208.900 263.850 C 208.182 263.419 206.755 265.109 205.600 265.550 C 205.242 265.687 204.450 265.550 204.450 265.550 " transform="matrix(1, 0, 0, 1, -157.6, -179)"/>
  <path id="ID0.6829004511237144" fill="url(#grad_1)" stroke="url(#grad_2)" stroke-width="3" stroke-linecap="round" d="M 173.350 216.650 C 172.870 213.745 171.092 213.533 170 212.750 C 167.212 210.752 164.447 208.704 161.700 206.650 C 160.750 205.940 159.939 205.021 158.900 204.450 C 157.880 203.890 156.653 203.795 155.600 203.300 C 153.880 202.492 152.360 201.267 150.600 200.550 C 149.186 199.974 147.630 199.824 146.150 199.450 C 144.666 199.075 143.192 198.641 141.700 198.300 C 139.112 197.708 136.408 197.520 133.900 196.650 C 132.652 196.217 131.901 194.675 130.600 194.450 C 127.499 193.915 124.297 194.450 121.150 194.450 C 117.254 194.450 113.346 194.450 109.450 194.450 C 108.168 194.450 106.817 194.047 105.600 194.450 C 104.474 194.822 103.916 196.251 102.800 196.650 C 101.750 197.026 100.560 196.540 99.450 196.650 C 96.856 196.907 94.261 197.266 91.700 197.750 C 90.374 198 89.007 198.247 87.800 198.850 C 86.370 199.565 85.350 200.976 83.900 201.650 C 82.890 202.120 81.595 201.698 80.600 202.200 C 79.654 202.677 79.059 203.663 78.350 204.450 C 77.393 205.513 75.709 206.324 75.600 207.750 C 75.486 209.237 76.746 210.596 77.800 211.650 C 78.508 212.358 79.628 212.509 80.600 212.750 C 81.857 213.062 83.159 213.201 84.450 213.300 C 85.562 213.385 87.011 212.511 87.800 213.300 C 88.589 214.089 88.527 215.804 87.800 216.650 C 87.063 217.508 84.734 216.477 84.450 217.200 C 84.184 217.877 85.673 219.190 86.700 219.450 C 88.847 219.993 91.136 219.450 93.350 219.450 C 94.466 219.450 95.584 219.450 96.700 219.450 C 97.999 219.450 99.367 219.042 100.600 219.450 C 101.713 219.818 102.829 220.599 103.350 221.650 C 103.845 222.650 102.423 224.379 103.350 225 C 104.733 225.927 106.686 225.061 108.350 225 C 111.683 224.878 115.016 224.517 118.350 224.450 C 124.093 224.334 129.856 224.450 135.600 224.450 C 137.036 224.450 138.183 224.256 139.450 224.450 C 140.611 224.627 141.691 225.163 142.800 225.550 C 144.839 226.262 146.791 227.286 148.900 227.750 C 150.168 228.029 151.501 227.750 152.800 227.750 C 153.916 227.750 155.034 227.750 156.150 227.750 C 157.432 227.750 158.783 228.153 160 227.750 C 161.126 227.378 161.778 226.152 162.800 225.550 C 163.663 225.041 164.742 224.968 165.600 224.450 C 166.613 223.839 167.466 222.987 168.350 222.200 C 169.133 221.503 170.017 220.871 170.600 220 C 171.158 219.168 171.217 218.078 171.700 217.200 C 172.141 216.398 173.677 215.855 173.350 215 Z " transform="matrix(-0.36153578758239746, -0.4761388897895813, -0.6637717485427856, 0.5023311972618103, 255.45, 7.75)"/>
  <path id="ID0.9529438964091241" fill="url(#grad_3)" stroke="url(#grad_4)" stroke-width="3" stroke-linecap="round" d="M 222.400 287.700 C 228.485 288.069 235.197 287.075 240.738 290.063 C 245.461 292.617 249.086 298.255 249.450 303.600 C 249.779 308.489 246.742 314.389 242.400 317 C 235.858 320.763 227.632 320.075 220.200 319.950 C 213.325 320.207 208.892 319.021 203.300 318.150 C 197.218 317.203 190.705 316.556 184.550 314.500 C 182.407 313.688 177.382 311.350 179 309.750 C 182.742 306.072 195.830 304.879 195.950 303.900 C 196.070 302.921 179.519 306.487 180.100 303.500 C 180.833 299.903 191.440 292.844 198.712 290.063 C 206.116 287.234 214.416 288.069 222.400 287.700 Z " transform="matrix(0.30895090103149414, -0.9510779976844788, 0.7207927703857422, 0.234144389629364, -234.6, 187.95)"/>
  <path id="ID0.6829004511237144" fill="url(#grad_5)" stroke="url(#grad_6)" stroke-width="3" stroke-linecap="round" d="M 173.350 216.650 C 172.870 213.745 171.092 213.533 170 212.750 C 167.212 210.752 164.447 208.704 161.700 206.650 C 160.750 205.940 159.939 205.021 158.900 204.450 C 157.880 203.890 156.653 203.795 155.600 203.300 C 153.880 202.492 152.360 201.267 150.600 200.550 C 149.186 199.974 147.630 199.824 146.150 199.450 C 144.666 199.075 143.192 198.641 141.700 198.300 C 139.112 197.708 136.408 197.520 133.900 196.650 C 132.652 196.217 131.901 194.675 130.600 194.450 C 127.499 193.915 124.297 194.450 121.150 194.450 C 117.254 194.450 113.346 194.450 109.450 194.450 C 108.168 194.450 106.817 194.047 105.600 194.450 C 104.474 194.822 103.916 196.251 102.800 196.650 C 101.750 197.026 100.560 196.540 99.450 196.650 C 96.856 196.907 94.261 197.266 91.700 197.750 C 90.374 198 89.007 198.247 87.800 198.850 C 86.370 199.565 85.350 200.976 83.900 201.650 C 82.890 202.120 81.595 201.698 80.600 202.200 C 79.654 202.677 79.059 203.663 78.350 204.450 C 77.393 205.513 75.709 206.324 75.600 207.750 C 75.486 209.237 76.746 210.596 77.800 211.650 C 78.508 212.358 79.628 212.509 80.600 212.750 C 81.857 213.062 83.159 213.201 84.450 213.300 C 85.562 213.385 87.011 212.511 87.800 213.300 C 88.589 214.089 88.527 215.804 87.800 216.650 C 87.063 217.508 84.734 216.477 84.450 217.200 C 84.184 217.877 85.673 219.190 86.700 219.450 C 88.847 219.993 91.136 219.450 93.350 219.450 C 94.466 219.450 95.584 219.450 96.700 219.450 C 97.999 219.450 99.367 219.042 100.600 219.450 C 101.713 219.818 102.829 220.599 103.350 221.650 C 103.845 222.650 102.423 224.379 103.350 225 C 104.733 225.927 106.686 225.061 108.350 225 C 111.683 224.878 115.016 224.517 118.350 224.450 C 124.093 224.334 129.856 224.450 135.600 224.450 C 137.036 224.450 138.183 224.256 139.450 224.450 C 140.611 224.627 141.691 225.163 142.800 225.550 C 144.839 226.262 146.791 227.286 148.900 227.750 C 150.168 228.029 151.501 227.750 152.800 227.750 C 153.916 227.750 155.034 227.750 156.150 227.750 C 157.432 227.750 158.783 228.153 160 227.750 C 161.126 227.378 161.778 226.152 162.800 225.550 C 163.663 225.041 164.742 224.968 165.600 224.450 C 166.613 223.839 167.466 222.987 168.350 222.200 C 169.133 221.503 170.017 220.871 170.600 220 C 171.158 219.168 171.217 218.078 171.700 217.200 C 172.141 216.398 173.677 215.855 173.350 215 Z " transform="matrix(0.4183526635169983, -0.7196613550186157, 0.7196613550186157, 0.4183526635169983, -169.2, 60.15)"/>
  <path id="ID0.3625097759068012" fill="none" stroke="#663B00" stroke-width="3" stroke-linecap="round" d="M 209.450 262.200 C 209.450 262.200 209.402 264.537 208.900 265.550 C 208.440 266.478 207.565 267.179 206.700 267.750 C 205.864 268.302 204.878 269.065 203.900 268.850 C 202.888 268.627 201.446 267.030 201.700 266.650 C 201.954 266.270 203.890 267.108 205 267.200 C 206.112 267.292 207.504 267.927 208.350 267.200 C 209.208 266.463 209.557 264.244 208.900 263.850 C 208.182 263.419 206.755 265.109 205.600 265.550 C 205.242 265.687 204.450 265.550 204.450 265.550 " transform="matrix(1, 0, 0, 1, -163.45, -177.3)"/>
  <g id="ID0.034468898084014654">
    <path id="ID0.23874851828441024" fill="url(#grad_7)" stroke="url(#grad_8)" stroke-width="3" stroke-linecap="round" d="M 315.700 146.950 C 317.559 146.869 312.712 139.568 314.500 140.100 C 318.156 141.015 323.271 145.735 326.587 149.844 C 330.180 154.299 334.631 160.348 334.500 165.100 C 334.631 167.329 329.349 163.188 326.587 163.806 C 320.967 165.061 316.309 169.668 310.600 170.400 C 307.677 170.778 304.084 169.795 302.300 167.600 C 300.133 164.589 299.842 160.248 300.300 156.825 C 300.662 154.083 304.166 152.510 304.813 149.844 C 305.505 146.857 301.055 141.001 303.100 140.400 C 306.497 139.555 312.014 147.101 315.700 146.950 Z " transform="matrix(1, 0, 0, 1, -247.65, -138.1)"/>
    <path id="ID0.36922365706413984" fill="none" stroke="#000000" stroke-width="3" stroke-linecap="round" d="M 318.350 157.500 L 318.650 157.800 " transform="matrix(1, 0, 0, 1, -247.65, -138.1)"/>
  </g>
  <path id="ID0.3303571348078549" fill="#000000" stroke="#000000" stroke-width="3" stroke-linecap="round" d="M 270.850 163.350 L 267.500 158.350 L 267 162.900 L 261.150 167.050 L 270.300 168.050 L 270.850 163.350 Z " transform="matrix(1, 0, 0, 1, -183, -140)"/>
</svg>