<svg version="1.1" width="306" height="282" viewBox="-1 -1 306 282" xmlns="http://www.w3.org/2000/svg" xmlns:xlink="http://www.w3.org/1999/xlink">
  <!-- Exported by Scratch - http://scratch.mit.edu/ -->
  <g id="ID0.991693711373955" transform="matrix(1, 0, 0, 1, -159, -29)">
    <path id="ID0.9115952169522643" fill="#F6DDBF" stroke="#DEC4AC" stroke-width="9" stroke-linecap="round" d="M 239.750 192.500 C 242.941 192.253 246.805 185.897 248.500 188.500 C 254.429 199.027 260.132 211.836 257.750 223.500 C 256.475 229.744 246.060 229.692 239.750 230 C 230.590 230.447 220.629 230.242 212.500 226 C 209.521 224.441 212.422 219.167 213.500 216 C 213.897 214.839 215.471 216.454 216.500 214.500 C 220.614 206.674 220.376 195.972 226.750 189.750 C 230.028 186.838 235.474 192.827 239.750 192.500 Z " transform="matrix(1, 0, 0, 1, -3, -27)"/>
    <path id="ID0.2581713180989027" fill="#FFE9CC" stroke="#DEC4AC" stroke-width="9" stroke-linecap="round" d="M 189.500 54 C 207.781 53.533 227.586 62.906 240 76.500 C 252.659 90.365 258.232 111.533 258 130.500 C 257.835 146.001 250.170 163.189 238.500 174 C 226.386 185.137 208.602 192.318 192 192 C 174.560 191.613 156.157 184.652 143.500 173 C 131.667 161.603 124.436 144.016 124 128 C 123.522 110.398 129.486 90.829 141 78 C 153.050 64.600 171.546 54.459 189.500 54 Z " transform="matrix(1, 0, 0, 1, 42, -17)"/>
    <path id="ID0.21847350429743528" fill="#F6DDBF" stroke="none" stroke-linecap="round" d="M 231.250 97.250 C 248.372 96.631 266.139 98.829 282.250 104.750 C 289.223 107.316 294.842 114.685 297.250 122 C 298.354 125.222 293.437 128.015 290.750 130.250 C 288.687 131.965 286.210 134.192 283.500 134 C 279.432 133.713 276.589 128.725 272.500 128.500 C 266.082 128.147 259.348 134.565 253 132.250 C 246.639 129.943 246.553 116.917 239.500 116.500 C 227.322 115.781 217.110 126.647 205.250 129.500 C 200.221 130.709 194.094 125.952 189.750 128.750 C 185.063 131.772 186.523 139.898 182.500 143.750 C 180.535 145.708 175.668 146.491 174.250 144.250 C 170.369 137.840 166.916 129.380 169.500 122.500 C 172.160 115.429 180.384 111.556 187.524 108.715 C 201.315 103.198 216.194 97.978 231.250 97.250 Z " transform="matrix(1, 0, 0, 1, -3, -27)"/>
    <path id="ID0.4697419782169163" fill="none" stroke="#FF9999" stroke-width="3" stroke-linecap="round" d="M 215.750 88 C 215.750 88 224.040 111.388 221.500 117.500 C 219.915 121.013 210.086 105.333 207.500 107.250 C 204.704 109.341 210.250 125.250 210.250 125.250 " transform="matrix(1, 0, 0, 1, -6, -25.75)"/>
    <path id="ID0.17645040387287736" fill="#F6DDBF" stroke="none" stroke-linecap="round" d="M 282.300 149.950 C 286.398 133.073 275.357 111.548 279.800 97.950 C 281.563 92.613 292.128 105.012 293.800 110.950 C 298.156 124.462 299.462 139.481 296.800 152.800 C 294.724 163.145 288.377 172.800 281.050 180.300 C 273.719 187.538 264.106 192.609 254.300 195.550 C 245.777 198.099 227.275 198.197 227.800 196.950 C 228.091 195.458 249.288 192.256 257.300 185.450 C 268.355 176.103 278.888 163.997 282.300 149.950 Z " transform="matrix(1, 0, 0, 1, -3, -27)"/>
    <g id="ID0.6833408926613629" transform="matrix(1, 0, 0, 1, 159, 29)">
      <path id="ID0.457837391179055" fill="#492900" stroke="#251500" stroke-width="8" stroke-linecap="round" d="M 246 78 C 262.119 73.447 280.638 76.920 296 83.500 C 307.475 88.414 315.992 99.799 323 110.500 C 328.334 119.340 333.022 137.115 332 140.500 C 331.102 143.486 322.583 125.628 317.500 125.500 C 313.966 125.433 317.684 138.852 314.500 139 C 310.546 139.180 307.975 127.289 302 127 C 296.165 126.430 293.187 138.741 287 137 C 279.641 134.892 281.855 119.360 274 118 C 261.284 115.809 248.937 125.943 237 129.500 C 232.431 130.862 228.037 132.309 223 132.500 C 219.048 132.635 214.644 126.563 211.500 129.500 C 205.246 135.357 206.845 148.691 201 153 C 198.109 155.116 193.207 147.147 193.500 143 C 194.365 131.322 197.226 118.085 205 108.500 C 215.533 95.419 229.238 82.740 246 78 Z " transform="matrix(1, 0, 0, 1, -189.5, -71.5)"/>
      <path id="ID0.3865481070242822" fill="#341D00" stroke="none" stroke-linecap="round" d="M 224.500 66.400 C 227.318 65.122 216.819 72.863 212.750 76 C 207.131 80.330 200.548 83.519 195.500 88.500 C 190.076 93.835 185.443 99.882 181.500 106.250 C 177.231 113.458 172.045 128.226 171 129 C 169.955 129.774 172.027 116.960 174.750 111.750 C 179.973 101.789 185.873 91.427 194.250 83.750 C 202.865 75.855 218.955 68.625 224.500 66.400 Z " transform="matrix(1, 0, 0, 1, -162, -56)"/>
      <path id="ID0.5939603107981384" fill="#341D00" stroke="none" stroke-linecap="round" d="M 226.400 67.900 C 227.745 67.352 213.778 81.391 207.500 88 C 204.946 90.689 202.393 93.328 199.750 96 C 195.645 99.659 187.485 107.280 187.250 107 C 187.015 106.720 192.882 96.609 197 92.500 C 205.989 83.535 225.010 68.524 226.400 67.900 Z " transform="matrix(1, 0, 0, 1, -162, -56)"/>
      <path id="ID0.6684629544615746" fill="#341D00" stroke="none" stroke-linecap="round" d="M 220 79.750 C 221.771 77.891 223.758 76.442 225.250 74.400 C 226.869 72.120 228.321 67.298 229.250 66.900 C 230.070 66.577 229.756 71.186 229 73 C 227.853 75.751 225.636 78.056 223.750 80.250 C 220.479 84.045 217.195 87.981 213.750 91.500 C 210.198 95.163 206.010 98.006 202.250 101.750 C 200.317 103.678 197.886 105.626 197.250 108.250 C 196.987 109.410 200.437 109.870 200 110.500 C 199.435 111.307 197.101 111.778 195.750 111 C 194.278 110.129 192.472 108.052 193.750 106.250 C 198.855 99.047 206.301 93.787 212.500 87.500 C 215.084 84.875 217.514 82.341 220 79.750 Z " transform="matrix(1, 0, 0, 1, -162, -56)"/>
      <path id="ID0.1718579176813364" fill="#341D00" stroke="none" stroke-linecap="round" d="M 232 67.650 C 232.619 67.768 236.844 73.940 235.750 77.250 C 233.958 82.667 228.412 86.070 224.500 90.250 C 220.994 93.996 213.877 97.780 213.250 100.750 C 214.785 101.945 222.123 99.672 222.250 100.250 C 222.427 101.044 217.138 103.760 214.250 104.750 C 211.035 105.828 202.468 109.592 204.250 106.750 C 211.285 95.560 224.077 87.444 232 76.250 C 233.981 73.452 231.465 67.460 232 67.650 Z " transform="matrix(1, 0, 0, 1, -162, -56)"/>
      <path id="ID0.9785083308815956" fill="#341D00" stroke="none" stroke-linecap="round" d="M 234.400 66.850 C 234.805 66.827 241.941 75.312 242.250 80.500 C 242.462 84.074 238.800 87.099 236 89.250 C 231.627 92.610 221.006 98.448 221.500 97 C 222.001 95.545 235.365 87.926 238.500 80.750 C 240.421 76.351 234.105 66.873 234.400 66.850 Z " transform="matrix(1, 0, 0, 1, -162, -56)"/>
      <path id="ID0.12705866200849414" fill="#341D00" stroke="none" stroke-linecap="round" d="M 244.100 84.650 C 245.045 82.532 245.742 79.840 244.900 77.650 C 243.399 73.747 237.548 67.954 237.750 67.500 C 237.822 67.046 244.228 70.910 246 74 C 247.750 77.055 247.223 80.979 247.250 84.500 C 247.259 85.772 246.535 87.020 246 88.250 C 245.699 89.109 244.521 89.797 244.750 90.750 C 244.968 91.652 246.276 91.804 247.100 92.250 C 249.608 93.770 252.623 94.574 254.750 96.650 C 257.025 98.859 258.730 101.728 259.750 104.750 C 260.715 107.607 261.846 114.788 260.750 113.750 C 259.278 112.344 257.272 103.202 254 98.750 C 252.401 96.550 249.825 95.150 247 94.500 C 244.463 93.926 241.788 94.929 239.250 95.500 C 234.803 96.499 225.782 99.325 225.750 99 C 225.730 98.694 234.680 94.978 238.500 92 C 240.890 90.136 242.836 87.484 244.100 84.650 Z " transform="matrix(1, 0, 0, 1, -162, -56)"/>
      <path id="ID0.8866650187410414" fill="#341D00" stroke="none" stroke-linecap="round" d="M 240.250 67.250 C 240.655 67.168 248.721 68.793 251.550 71.500 C 253.914 73.766 254.186 77.780 254.750 80.800 C 255.010 82.201 254.985 83.843 254.250 85.050 C 252.984 87.173 249.285 91.201 248.750 90.550 C 248.308 89.732 251.847 84.419 251.750 81.300 C 251.647 78.117 250.479 74.796 248.500 72.300 C 246.554 69.851 239.987 67.343 240.250 67.250 Z " transform="matrix(1, 0, 0, 1, -162, -56)"/>
      <path id="ID0.7445618370547891" fill="#341D00" stroke="none" stroke-linecap="round" d="M 256 70.750 C 258.205 72.473 258.788 75.544 260.250 78 C 261.396 79.926 262.465 81.917 263.750 83.750 C 266.436 87.597 271.600 90.628 272.250 95.500 C 272.840 99.964 267.238 108.240 267 108.250 C 266.792 108.227 270.636 99.097 269.300 95 C 267.718 90.173 262.188 87.613 259.500 83.300 C 257.552 80.174 257.957 75.660 255.600 72.750 C 253.372 70.002 246.702 67.493 246.800 67.350 C 246.763 67.190 253.345 68.676 256 70.750 Z " transform="matrix(1, 0, 0, 1, -162, -56)"/>
      <path id="ID0.6053611417300999" fill="#341D00" stroke="none" stroke-linecap="round" d="M 257.500 85.750 C 259.549 86.045 262.564 88.752 262.650 89.150 C 262.735 89.540 259.605 87.557 258 87.750 C 257.176 87.849 257.029 89.175 256.500 89.850 C 255.956 90.547 254.450 90.819 254.650 91.650 C 255.008 93.049 256.391 93.773 257.350 94.750 C 258.111 95.496 258.863 96.023 259.600 96.650 C 260.361 97.321 261.362 97.775 261.850 98.650 C 262.499 99.808 262.486 101.192 262.800 102.450 C 263.119 103.557 263.166 106.045 263.750 105.750 C 264.609 105.315 265.741 102.722 265.800 101 C 265.908 97.840 264 91.667 264.150 91.500 C 264.300 91.333 267.441 96.576 267.350 99.450 C 267.209 103.164 265.272 109.862 263.500 110 C 261.756 110.135 261.938 102.930 260.150 99.850 C 258.950 97.784 256.738 96.608 255 94.850 C 254.006 93.846 251.968 93.367 252 91.850 C 252.043 90.215 254.278 89.522 255.350 88.250 C 256.057 87.412 256.415 85.596 257.500 85.750 Z " transform="matrix(1, 0, 0, 1, -162, -56)"/>
      <path id="ID0.12584557617083192" fill="#341D00" stroke="none" stroke-linecap="round" d="M 260.750 71.500 C 262.746 73.379 263.998 75.927 265.600 78.150 C 266.557 79.410 267.365 80.845 268.300 82.150 C 270.249 84.907 271.975 86.868 273.800 89.250 C 275.447 91.297 277.329 93.201 278.750 95.500 C 280.257 97.939 281.650 100.525 282.500 103.250 C 283.133 105.278 284.265 108.697 283.100 109.600 C 282.033 110.424 279.771 107.317 277.850 106.650 C 276.423 106.144 274.854 106.172 273.250 106.150 C 272.240 106.137 270.264 107.314 270.250 106.600 C 270.226 105.366 272.256 103.694 273.100 102.150 C 273.446 101.519 273.598 100.880 273.650 100.250 C 273.834 99.369 273.419 97.197 273.800 97.650 C 274.792 98.856 275.173 101.910 276.550 103.450 C 277.428 104.432 280.889 106.313 280.250 104.850 C 277.695 98.997 273.714 93.808 270.150 88.500 C 268.011 85.469 265.213 82.938 263.150 79.850 C 261.760 77.769 261.154 75.221 259.750 73.150 C 258.625 71.494 255.715 69.053 255.900 68.850 C 255.969 68.634 259.344 70.178 260.750 71.500 Z " transform="matrix(1, 0, 0, 1, -162, -56)"/>
      <path id="ID0.4713010801933706" fill="#341D00" stroke="none" stroke-linecap="round" d="M 268.600 75 C 270.891 77.045 272.900 79.422 274.750 81.900 C 277.281 85.298 280.061 88.652 281.900 92.500 C 283.719 96.603 285.751 105.483 285.600 105.500 C 285.483 105.522 281.907 96.949 279.600 92.900 C 278.169 90.387 276.309 88.052 274.600 85.800 C 273.310 84.102 271.943 82.461 270.600 80.800 C 268.020 77.610 263.282 72.696 262.800 71.350 C 262.442 70.262 266.888 73.472 268.600 75 Z " transform="matrix(1, 0, 0, 1, -162, -56)"/>
      <path id="ID0.6997379208914936" fill="#341D00" stroke="none" stroke-linecap="round" d="M 268.500 73.250 C 269.219 73.666 276.544 79.255 280 82.650 C 282.314 84.923 284.047 87.761 285.900 90.400 C 287.346 92.376 288.641 94.423 289.900 96.500 C 290.841 98.057 291.732 99.496 292.500 101 C 293.101 102.301 294.656 104.094 294 104.900 C 293.283 105.770 291.167 104.635 289.750 104.650 C 288.867 104.659 287.541 105.442 287 105 C 286.585 104.658 287.975 103.854 288.100 103.150 C 288.312 101.935 288.259 100.527 287.750 99.300 C 286.734 96.511 285.170 93.953 283.600 91.300 C 282.377 89.233 281.063 87.307 279.600 85.300 C 278.346 83.582 276.944 81.963 275.500 80.400 C 273.308 78.029 267.844 72.978 268.500 73.250 Z " transform="matrix(1, 0, 0, 1, -162, -56)"/>
    </g>
    <g id="ID0.8842162084765732" transform="matrix(1, 0, 0, 1, 159, 29)">
      <path id="ID0.9465581704862416" fill="none" stroke="#494949" stroke-width="3" stroke-linecap="round" d="M 224.250 122.500 C 231.234 121.279 239.332 121.773 245.500 125.500 C 251.048 128.853 254.711 135.673 255.750 142 C 256.870 148.373 255.573 155.918 251.500 160.750 C 247.319 165.673 240.029 167.945 233.750 168.500 C 227.995 169.007 221.459 167.422 217 164 C 212.432 160.496 208.957 154.774 208 149.250 C 207.010 143.502 207.976 136.985 211 132 C 213.755 127.457 218.897 123.603 224.250 122.500 Z " transform="matrix(1, 0, 0, 1, -188.5, -54)"/>
      <path id="ID0.22955628810450435" fill="none" stroke="#494949" stroke-width="3" stroke-linecap="round" d="M 227.500 152.250 C 227.500 152.250 230.918 151.547 232.650 151.400 C 234.083 151.279 235.560 151.341 237 151.500 C 238.408 151.655 241.400 152.400 241.400 152.400 " transform="matrix(1, 0, 0, 1, -159.5, -58.5)"/>
      <path id="ID0.9465581704862416" fill="none" stroke="#494949" stroke-width="3" stroke-linecap="round" d="M 224.250 122.500 C 231.234 121.279 239.332 121.773 245.500 125.500 C 251.048 128.853 254.711 135.673 255.750 142 C 256.870 148.373 255.573 155.918 251.500 160.750 C 247.319 165.673 240.029 167.945 233.750 168.500 C 227.995 169.007 221.459 167.422 217 164 C 212.432 160.496 208.957 154.774 208 149.250 C 207.010 143.502 207.976 136.985 211 132 C 213.755 127.457 218.897 123.603 224.250 122.500 Z " transform="matrix(-1, 0, 0, 1, 338.15, -54.5)"/>
    </g>
    <g id="ID0.36412396281957626" transform="matrix(1, 0, 0, 1, 159, 29)">
      <path id="ID0.8147899541072547" fill="#FFFFFF" stroke="#CCCCCC" stroke-width="3" stroke-linecap="round" d="M 116.150 161 C 120.895 160.827 126.458 161.990 129.800 165.100 C 133.101 168.175 134.761 173.313 134.650 177.750 C 134.548 181.774 132.468 186.075 129.400 188.600 C 126.153 191.353 121.446 192.548 117.300 192.250 C 113.226 191.957 108.954 190.077 106.150 187.100 C 103.547 184.335 102.392 180.285 102.300 176.600 C 102.216 172.894 103.254 168.763 105.650 166.100 C 108.254 163.211 112.351 161.139 116.150 161 Z " transform="matrix(1, 0, 0, 1, -76, -85)"/>
      <path id="ID0.8147899541072547" fill="#366081" stroke="#366081" stroke-width="3" stroke-linecap="round" d="M 116.150 161 C 120.895 160.827 126.458 161.990 129.800 165.100 C 133.101 168.175 134.761 173.313 134.650 177.750 C 134.548 181.774 132.468 186.075 129.400 188.600 C 126.153 191.353 121.446 192.548 117.300 192.250 C 113.226 191.957 108.954 190.077 106.150 187.100 C 103.547 184.335 102.392 180.285 102.300 176.600 C 102.216 172.894 103.254 168.763 105.650 166.100 C 108.254 163.211 112.351 161.139 116.150 161 Z " transform="matrix(0.5824817419052124, 0, 0, 0.5824817419052124, -26.4, -11.25)"/>
      <path id="ID0.8096814667806029" fill="#000000" stroke="none" stroke-linecap="round" d="M 119.900 172.100 C 121.339 172.121 122.912 172.542 123.800 173.500 C 124.654 174.422 124.905 175.879 124.800 177.100 C 124.620 178.456 124.039 179.918 123 180.750 C 122.074 181.488 120.702 181.488 119.500 181.400 C 118.357 181.316 117.131 180.890 116.319 180.081 C 115.504 179.271 114.999 178.051 115 176.900 C 115.001 175.605 115.398 174.250 116.300 173.400 C 117.260 172.482 118.677 172.080 119.900 172.100 Z " transform="matrix(1, 0, 0, 1, -77.5, -85)"/>
      <path id="ID0.7386001590639353" fill="#FFFFFF" stroke="none" stroke-linecap="round" d="M 120.650 173.700 C 121.383 174.034 121.944 174.821 122.150 175.600 C 122.370 176.458 122.049 178.220 121.700 178.250 C 121.350 178.280 121.159 176.440 120.500 175.800 C 119.956 175.201 119.104 174.945 118.300 174.750 C 117.605 174.576 116.329 174.940 116.150 174.650 C 115.986 174.385 117.011 173.628 117.650 173.500 C 118.609 173.290 119.700 173.267 120.650 173.700 Z " transform="matrix(1, 0, 0, 1, -76, -85)"/>
    </g>
    <g id="ID0.36412396281957626" transform="matrix(1, 0, 0, 1, 159, 29)">
      <path id="ID0.8147899541072547" fill="#FFFFFF" stroke="#CCCCCC" stroke-width="3" stroke-linecap="round" d="M 116.150 161 C 120.895 160.827 126.458 161.990 129.800 165.100 C 133.101 168.175 134.761 173.313 134.650 177.750 C 134.548 181.774 132.468 186.075 129.400 188.600 C 126.153 191.353 121.446 192.548 117.300 192.250 C 113.226 191.957 108.954 190.077 106.150 187.100 C 103.547 184.335 102.392 180.285 102.300 176.600 C 102.216 172.894 103.254 168.763 105.650 166.100 C 108.254 163.211 112.351 161.139 116.150 161 Z " transform="matrix(1, 0, 0, 1, -12.65, -85.5)"/>
      <path id="ID0.8147899541072547" fill="#366081" stroke="#366081" stroke-width="3" stroke-linecap="round" d="M 116.150 161 C 120.895 160.827 126.458 161.990 129.800 165.100 C 133.101 168.175 134.761 173.313 134.650 177.750 C 134.548 181.774 132.468 186.075 129.400 188.600 C 126.153 191.353 121.446 192.548 117.300 192.250 C 113.226 191.957 108.954 190.077 106.150 187.100 C 103.547 184.335 102.392 180.285 102.300 176.600 C 102.216 172.894 103.254 168.763 105.650 166.100 C 108.254 163.211 112.351 161.139 116.150 161 Z " transform="matrix(0.5824817419052124, 0, 0, 0.5824817419052124, 36.95, -11.75)"/>
      <path id="ID0.8096814667806029" fill="#000000" stroke="none" stroke-linecap="round" d="M 119.900 172.100 C 121.339 172.121 122.912 172.542 123.800 173.500 C 124.654 174.422 124.905 175.879 124.800 177.100 C 124.620 178.456 124.039 179.918 123 180.750 C 122.074 181.488 120.702 181.488 119.500 181.400 C 118.357 181.316 117.131 180.890 116.319 180.081 C 115.504 179.271 114.999 178.051 115 176.900 C 115.001 175.605 115.398 174.250 116.300 173.400 C 117.260 172.482 118.677 172.080 119.900 172.100 Z " transform="matrix(1, 0, 0, 1, -14.15, -85.5)"/>
      <path id="ID0.7386001590639353" fill="#FFFFFF" stroke="none" stroke-linecap="round" d="M 120.650 173.700 C 121.383 174.034 121.944 174.821 122.150 175.600 C 122.370 176.458 122.049 178.220 121.700 178.250 C 121.350 178.280 121.159 176.440 120.500 175.800 C 119.956 175.201 119.104 174.945 118.300 174.750 C 117.605 174.576 116.329 174.940 116.150 174.650 C 115.986 174.385 117.011 173.628 117.650 173.500 C 118.609 173.290 119.700 173.267 120.650 173.700 Z " transform="matrix(1, 0, 0, 1, -12.65, -85.5)"/>
    </g>
    <path id="ID0.335512975230813" fill="none" stroke="#494949" stroke-width="2" stroke-linecap="round" d="M 293 144 C 293 144 296.014 142.965 297.500 142.400 C 299.032 141.818 300.601 141.063 302.150 140.400 C 303.799 139.690 307 138.500 307 138.500 " transform="matrix(1, 0, 0, 1, -3, -27)"/>
    <path id="ID0.03677657060325146" fill="none" stroke="#494949" stroke-width="2" stroke-linecap="round" d="M 180.900 149.100 C 180.900 149.100 176.064 147.892 173.650 147.100 C 172.064 146.578 170.499 145.949 169 145.250 C 167.713 144.715 165.300 143.400 165.300 143.400 " transform="matrix(1, 0, 0, 1, -3, -27)"/>
    <g id="ID0.20676132198423147" transform="matrix(1, 0, 0, 1, 159, 29)">
      <path id="ID0.04738290561363101" fill="none" stroke="#D5C2AC" stroke-width="4" stroke-linecap="round" d="M 227.500 184 C 227.500 184 231.933 185.732 234.250 186 C 237.084 186.321 239.795 186.474 242.500 186 C 244.873 185.586 249.500 183.750 249.500 183.750 " transform="matrix(1, 0, 0, 1, -162.25, -58.5)"/>
      <path id="ID0.06047635758295655" fill="none" stroke="#D5C2AC" stroke-width="4" stroke-linecap="round" d="M 224.750 179 C 224.750 179 225.724 181.288 225.750 182.500 C 225.984 183.508 225.894 184.564 225.500 185.500 C 225.172 186.408 224 188 224 188 " transform="matrix(1, 0, 0, 1, -162.25, -58.5)"/>
    </g>
    <g id="ID0.9031988508068025" transform="matrix(1, 0, 0, 1, 159, 29)">
      <path id="ID0.5492543266154826" fill="#FFFFFF" stroke="none" d="M 238.625 229.750 C 242.315 229.750 245.659 231.389 248.080 234.036 C 250.501 236.684 252 240.340 252 244.375 C 252 248.410 250.501 252.066 248.080 254.714 C 245.659 257.361 242.315 259 238.625 259 C 234.935 259 231.591 257.361 229.170 254.714 C 226.749 252.066 225.250 248.410 225.250 244.375 C 225.250 240.340 226.749 236.684 229.170 234.036 C 231.591 231.389 234.935 229.750 238.625 229.750 Z " transform="matrix(1, 0, 0, 1, -163, -60)"/>
      <path id="ID0.2085979087278247" fill="#FFFFFF" stroke="#CCCCCC" stroke-width="9" stroke-linecap="round" d="M 240 222.500 C 244.702 222.041 248.309 219.738 252.500 218.500 C 255.585 217.590 259.444 214.392 262.250 216 C 264.493 217.441 263.772 221.989 262.600 224.600 C 260.068 230.238 257.134 237.353 251.350 239.350 C 247.145 240.975 244.275 233.117 239.850 232.850 C 234.620 232.537 230.182 239.830 225.100 238.350 C 220.021 236.720 217.481 230.324 215.350 225.350 C 214.067 222.353 212.567 216.818 215.250 215.750 C 218.892 214.143 223.702 218.793 228 220 C 231.929 221.105 235.922 222.869 240 222.500 Z " transform="matrix(1, 0, 0, 1, -163, -60.25)"/>
      <g id="ID0.6519983382895589">
        <path id="ID0.06295197457075119" fill="#B19238" stroke="#997E30" stroke-width="4" stroke-linecap="round" d="M 238.050 237.200 C 239.773 237.036 241.467 238.378 242.800 239.350 C 243.969 240.209 245.516 241.320 245.500 242.750 C 245.447 245.208 242.633 247.047 242.500 249.500 C 242.348 252.500 245.474 255.382 245.250 258.500 C 244.349 265.138 242.452 277.857 239.250 277.750 C 235.994 277.639 232.690 264.994 231.400 258.050 C 230.961 255.474 234.420 253.353 234.500 250.700 C 234.418 248.297 231.601 246.553 231.400 244.100 C 231.298 242.792 232.602 241.687 233.550 240.750 C 234.910 239.406 236.200 237.576 238.050 237.200 Z " transform="matrix(1.0564334392547607, 0, 0, 1.0564334392547607, -176.9, -79.55)"/>
        <path id="ID0.7476267064921558" fill="#841A1A" stroke="none" stroke-linecap="round" d="M 230.350 241.050 C 229.259 240.282 230.924 237.668 232.100 238.050 C 236.725 239.557 243.404 244.405 245.100 246.050 C 245.984 246.897 240.164 244.458 238 243.750 C 235.430 242.916 231.996 242.970 230.350 241.050 Z " transform="matrix(1, 0, 0, 1, -163.5, -64.6)"/>
        <path id="ID0.7476267064921558" fill="#841A1A" stroke="none" stroke-linecap="round" d="M 231.600 240.600 C 230.987 239.590 232.236 237.374 233.350 237.350 C 235.460 237.322 237.416 239.046 239.100 240.400 C 241.238 242.125 245.160 246.259 245.100 246.850 C 244.803 247.348 240.192 244.744 238 243.750 C 235.837 242.775 233.079 242.470 231.600 240.600 Z " transform="matrix(-1, 0, 0, 1, 313.95, -51.65)"/>
        <path id="ID0.6796811330132186" fill="none" stroke="#997E30" stroke-width="2" stroke-linecap="round" d="M 241.700 248 C 241.700 248 240.484 249.288 239.700 249.650 C 239.093 249.931 238.362 249.751 237.700 249.850 C 237.028 249.951 236.371 250.147 235.700 250.250 C 235.503 250.280 235.100 250.250 235.100 250.250 " transform="matrix(1, 0, 0, 1, -163.5, -64.6)"/>
      </g>
      <path id="ID0.332860192283988" fill="#798390" stroke="#59606A" stroke-width="6" stroke-linecap="round" d="M 240.400 239.800 C 253.583 240.407 265.661 217.958 273.800 219.050 C 279.064 219.757 268.679 235.362 267.700 243.500 C 266.708 251.766 268.580 260.525 267.700 268.500 C 267.169 273.575 267.112 280.148 263 283 C 257.043 287.140 248.485 286.531 241.500 286.500 C 233.992 286.459 226.032 286.691 219.150 283.500 C 215.796 282.320 214.295 278.219 213.400 274.500 C 210.899 264.052 211.287 253.050 209.250 242.500 C 207.561 233.759 196.107 216.544 202.050 216.050 C 211.939 215.241 225.471 239.232 240.400 239.800 Z " transform="matrix(0.9583028554916382, 0, 0, 1, -155, -49)"/>
      <path id="ID0.027637152932584286" fill="#101010" stroke="#000000" stroke-width="7" stroke-linecap="round" d="M 216 315.500 C 219.867 312.700 225.548 313.184 230.250 314 C 232.839 314.409 236.119 316.178 236.750 318.750 C 237.346 322.224 235.281 325.982 233.250 328.750 C 230.972 331.943 227.516 334.282 224 336 C 220.407 337.755 216.241 339.977 212.250 339.250 C 208.930 338.636 204.396 335.485 205 332 C 205.964 325.553 210.505 319.481 216 315.500 Z " transform="matrix(0.9383431077003479, 0.3457053601741791, -0.3457053601741791, 0.9383431077003479, -41.3, -117.3)"/>
      <path id="ID0.027637152932584286" fill="#101010" stroke="#000000" stroke-width="7" stroke-linecap="round" d="M 216 315.500 C 219.867 312.700 225.548 313.184 230.250 314 C 232.839 314.409 236.119 316.178 236.750 318.750 C 237.346 322.224 235.281 325.982 233.250 328.750 C 230.972 331.943 227.516 334.282 224 336 C 220.407 337.755 216.241 339.977 212.250 339.250 C 208.930 338.636 204.396 335.485 205 332 C 205.964 325.553 210.505 319.481 216 315.500 Z " transform="matrix(-0.9383431077003479, 0.34570538997650146, 0.34570538997650146, 0.9383431077003479, 191.85, -117.2)"/>
      <path id="ID0.11989733157679439" fill="#525252" stroke="#2B2B2B" stroke-width="7" stroke-linecap="round" d="M 238 289.500 C 248.298 289.971 260.632 283.901 269.500 289.500 C 275.277 293.149 271.566 303.156 271.500 310 C 271.055 313.982 271.531 319.622 268 321.500 C 260.811 325.305 251.003 326.420 243 324 C 239.259 322.853 240.932 313.406 239.500 313.500 C 238.068 313.406 240.021 322.459 236.500 324 C 230.530 326.580 223.041 325.851 217 322.500 C 213.318 320.453 213.330 314.646 213 310.500 C 212.446 303.354 211.237 295.072 214.500 289 C 216.237 285.763 221.784 288.009 225.500 288 C 229.523 287.990 233.814 289.305 238 289.500 Z " transform="matrix(1, 0, 0, 1, -164, -63.5)"/>
      <path id="ID0.28951870184391737" fill="#464646" stroke="none" stroke-linecap="round" d="M 217.500 287.600 C 221.314 285.497 219.562 285.122 221 285.050 C 223.779 284.916 226.226 286.269 228.750 286.550 C 231.978 287.186 235.169 287.898 238.250 287.800 C 242.520 287.660 246.760 286.895 251 286.300 C 253.796 285.916 257.350 283.174 260 284.800 C 262.229 286.334 263.948 291.643 261.500 293.100 C 254.643 297.179 245.851 296.840 238 297.600 C 233.339 297.932 228.682 296.498 224.250 296.350 C 220.255 296.218 214.023 298.913 212.250 296.600 C 210.701 294.571 215.295 290.270 217.500 287.600 Z " transform="matrix(1, 0, 0, 1, -163.25, -58.85)"/>
      <path id="ID0.08257233118638396" fill="#6C7681" stroke="none" stroke-linecap="round" d="M 224.250 243.650 C 224.571 241.722 228.608 245.973 230.750 247.400 C 233.186 249.473 236.507 251.121 238 254.150 C 239.990 258.209 239.509 263.068 240 267.400 C 240.425 270.734 240.885 274.002 240.750 277.150 C 240.619 279.600 241.854 283.730 239.500 284.400 C 235.667 285.485 230.977 283.230 228 280.400 C 226.419 279.077 228.264 276.349 228.250 274.150 C 228.228 269.905 228.603 265.524 228 261.400 C 227.119 255.425 223.474 248.627 224.250 243.650 Z " transform="matrix(-1, 0, 0, 1, 322, -62.6)"/>
      <g id="ID0.7576187397353351">
        <path id="ID0.9109134683385491" fill="#080016" stroke="#030007" stroke-width="9" stroke-linecap="round" d="M 257 277 C 259.123 293.392 259.389 310.676 259 327.500 C 258.851 334.030 261.182 343.853 255.500 347 C 245.877 351.613 232.326 351.435 223.500 345.500 C 218.097 341.865 224.460 332.366 224.500 326 C 224.126 315.195 221.722 304.452 222.500 294 C 223.591 279.535 223.578 264.239 229.500 251 C 233.016 243.159 242.309 236.697 249 235 C 251.809 233.943 247.846 242.061 248.500 245.500 C 250.470 255.839 255.603 266.226 257 277 Z " transform="matrix(-1, 0, 0, 1, 350.75, -79)"/>
        <path id="ID0.7683732970617712" fill="#080013" stroke="none" stroke-linecap="round" d="M 272 223 C 272.307 219.249 281.443 232.366 283 238.500 C 286.495 252.295 286.815 266.120 287 280 C 287.116 288.331 284.619 296.971 284.500 305.500 C 284.431 310.783 291.429 318.666 287 322 C 280.132 327.172 262.755 325.209 261 324 C 259.267 322.303 273.867 319.258 278 314.500 C 279.990 312.209 276.291 309.238 276.500 305.500 C 277.336 290.566 281.939 275.627 281 260.500 C 280.419 247.754 271.420 230.003 272 223 Z " transform="matrix(1, 0, 0, 1, -163, -58)"/>
      </g>
      <path id="ID0.08257233118638396" fill="#6C7681" stroke="none" stroke-linecap="round" d="M 224.250 243.650 C 224.571 241.722 228.608 245.973 230.750 247.400 C 233.186 249.473 236.507 251.121 238 254.150 C 239.990 258.209 239.509 263.068 240 267.400 C 240.425 270.734 240.885 274.002 240.750 277.150 C 240.619 279.600 241.854 283.730 239.500 284.400 C 235.667 285.485 230.977 283.230 228 280.400 C 226.419 279.077 228.264 276.349 228.250 274.150 C 228.228 269.905 228.603 265.524 228 261.400 C 227.119 255.425 223.474 248.627 224.250 243.650 Z " transform="matrix(1, 0, 0, 1, -172.5, -63.35)"/>
      <g id="ID0.7576187397353351">
        <path id="ID0.9109134683385491" fill="#080016" stroke="#030007" stroke-width="9" stroke-linecap="round" d="M 257 277 C 259.123 293.392 259.389 310.676 259 327.500 C 258.851 334.030 261.182 343.853 255.500 347 C 245.877 351.613 232.326 351.435 223.500 345.500 C 218.097 341.865 224.460 332.366 224.500 326 C 224.126 315.195 221.722 304.452 222.500 294 C 223.591 279.535 223.578 264.239 229.500 251 C 233.016 243.159 242.309 236.697 249 235 C 251.809 233.943 247.846 242.061 248.500 245.500 C 250.470 255.839 255.603 266.226 257 277 Z " transform="matrix(1, 0, 0, 1, -200.7, -79)"/>
        <path id="ID0.7683732970617712" fill="#080013" stroke="none" stroke-linecap="round" d="M 272 223 C 272.307 219.249 281.443 232.366 283 238.500 C 286.495 252.295 286.815 266.120 287 280 C 287.116 288.331 284.619 296.971 284.500 305.500 C 284.431 310.783 291.429 318.666 287 322 C 280.132 327.172 262.755 325.209 261 324 C 259.267 322.303 273.867 319.258 278 314.500 C 279.990 312.209 276.291 309.238 276.500 305.500 C 277.336 290.566 281.939 275.627 281 260.500 C 280.419 247.754 271.420 230.003 272 223 Z " transform="matrix(-1, 0, 0, 1, 313.05, -58)"/>
      </g>
      <path id="ID0.2914486052468419" fill="#E1E1E1" stroke="none" stroke-linecap="round" d="M 238.500 222.600 C 240.616 222.702 242.699 221.994 244.750 221.500 C 246.378 220.990 247.906 220.184 249.500 219.600 C 252.299 218.574 256.906 214.988 257.900 216.500 C 259.062 218.275 255.357 223.230 253.600 226.350 C 252.776 227.818 251.620 228.944 250.400 230 C 250.017 230.331 248.739 231.115 249 230.600 C 250.017 228.265 251.796 226.341 253 224.200 C 253.896 222.609 256.395 219.450 255.250 219.200 C 253.352 218.788 250.021 222.104 247.100 222.850 C 244.207 223.722 241.143 223.943 238 224 C 235.029 224.055 232.033 223.827 229.100 223.350 C 227.401 223.086 225.704 222.390 224.100 221.600 C 222.787 221.049 220.877 218.661 220.400 219.350 C 219.794 220.254 221.210 223.309 222 225 C 222.809 226.719 225.143 228.686 225.250 229.700 C 225.316 230.314 222.900 229.119 222.400 228.200 C 220.248 224.543 216.141 218.496 217.600 216.500 C 218.885 214.747 224.276 219.439 227.750 220.500 C 231.258 221.572 234.857 222.421 238.500 222.600 Z " transform="matrix(1, 0, 0, 1, -162, -56)"/>
    </g>
    <path id="ID0.17487987875938416" fill="#9F2121" stroke="none" stroke-linecap="round" d="M 231.350 204.300 C 232.796 204.549 234.066 205.515 235.350 206.300 C 236.260 206.888 237.328 207.436 237.900 208.400 C 238.117 208.767 237.524 209.355 237.100 209.400 C 236.363 209.478 235.702 208.953 235 208.750 C 233.992 208.457 233.040 208.253 232.100 208 C 231.042 207.670 229.612 207.780 229 207 C 228.629 206.525 229.572 205.859 230 205.400 C 230.417 204.956 230.782 204.202 231.350 204.300 Z "/>
    <path id="ID0.2313180356286466" fill="#9F2121" stroke="none" stroke-linecap="round" d="M 235.800 216.050 C 236.028 215.919 236.328 215.692 236.550 215.800 C 236.762 215.904 236.837 216.346 236.700 216.550 C 236.566 216.747 236.204 216.656 235.950 216.700 C 235.620 216.706 234.990 216.826 234.950 216.700 C 234.920 216.570 235.515 216.216 235.800 216.050 Z " transform="matrix(1, 0, 0, 1, 0, 0.05)"/>
  </g>
</svg>