<svg version="1.1" width="25" height="35" viewBox="-1 -1 25 35" xmlns="http://www.w3.org/2000/svg" xmlns:xlink="http://www.w3.org/1999/xlink">
  <!-- Exported by Scratch - http://scratch.mit.edu/ -->
  <g id="ID0.7173566943965852" transform="matrix(2.406066417694092, 0, 0, 2.406066417694092, -635.15, -250.35)">
    <path id="ID0.7640504133887589" fill="none" stroke="#663B00" stroke-width="2" stroke-linecap="round" d="M 275.250 121.950 L 292.500 144.150 " transform="matrix(1, 0, 0, 1, -5.75, 1)"/>
    <g id="ID0.360354826785624">
      <path id="ID0.10462491353973746" fill="#FFFFFF" stroke="#FFFFFF" stroke-width="2" stroke-linecap="round" d="M 265.100 123.300 C 266.394 123.249 272.236 109.921 269.060 106.661 C 265.896 103.414 252.567 109.039 252.600 110.300 C 252.567 111.555 265.964 117.298 269.060 114.189 C 272.105 111.131 266.065 97.876 264.700 97.950 C 263.431 97.876 258.160 111.124 261.390 114.189 C 264.655 117.287 277.748 111.417 277.800 110.150 C 277.748 108.882 264.578 103.458 261.390 106.661 C 258.221 109.852 263.800 123.249 265.100 123.300 Z " transform="matrix(0.07720588147640228, 0, 0, 0.07720588147640228, 252.75, 108)"/>
      <path id="ID0.10462491353973746" fill="#FFFFFF" stroke="#FFFFFF" stroke-width="2" stroke-linecap="round" d="M 265.100 123.300 C 266.394 123.249 272.236 109.921 269.060 106.661 C 265.896 103.414 252.567 109.039 252.600 110.300 C 252.567 111.555 265.964 117.298 269.060 114.189 C 272.105 111.131 266.065 97.876 264.700 97.950 C 263.431 97.876 258.160 111.124 261.390 114.189 C 264.655 117.287 277.748 111.417 277.800 110.150 C 277.748 108.882 264.578 103.458 261.390 106.661 C 258.221 109.852 263.800 123.249 265.100 123.300 Z " transform="matrix(0.07720588147640228, 0, 0, 0.07720588147640228, 247, 105)"/>
      <path id="ID0.10462491353973746" fill="#FFFFFF" stroke="#FFFFFF" stroke-width="2" stroke-linecap="round" d="M 265.100 123.300 C 266.394 123.249 272.236 109.921 269.060 106.661 C 265.896 103.414 252.567 109.039 252.600 110.300 C 252.567 111.555 265.964 117.298 269.060 114.189 C 272.105 111.131 266.065 97.876 264.700 97.950 C 263.431 97.876 258.160 111.124 261.390 114.189 C 264.655 117.287 277.748 111.417 277.800 110.150 C 277.748 108.882 264.578 103.458 261.390 106.661 C 258.221 109.852 263.800 123.249 265.100 123.300 Z " transform="matrix(0.07720588147640228, 0, 0, 0.07720588147640228, 246.25, 113.4)"/>
      <path id="ID0.10462491353973746" fill="#FFFFFF" stroke="#FFFFFF" stroke-width="2" stroke-linecap="round" d="M 265.100 123.300 C 266.394 123.249 272.236 109.921 269.060 106.661 C 265.896 103.414 252.567 109.039 252.600 110.300 C 252.567 111.555 265.964 117.298 269.060 114.189 C 272.105 111.131 266.065 97.876 264.700 97.950 C 263.431 97.876 258.160 111.124 261.390 114.189 C 264.655 117.287 277.748 111.417 277.800 110.150 C 277.748 108.882 264.578 103.458 261.390 106.661 C 258.221 109.852 263.800 123.249 265.100 123.300 Z " transform="matrix(0.07720588147640228, 0, 0, 0.07720588147640228, 250, 111.1)"/>
      <path id="ID0.10462491353973746" fill="#FFFFFF" stroke="#FFFFFF" stroke-width="2" stroke-linecap="round" d="M 265.100 123.300 C 266.394 123.249 272.236 109.921 269.060 106.661 C 265.896 103.414 252.567 109.039 252.600 110.300 C 252.567 111.555 265.964 117.298 269.060 114.189 C 272.105 111.131 266.065 97.876 264.700 97.950 C 263.431 97.876 258.160 111.124 261.390 114.189 C 264.655 117.287 277.748 111.417 277.800 110.150 C 277.748 108.882 264.578 103.458 261.390 106.661 C 258.221 109.852 263.800 123.249 265.100 123.300 Z " transform="matrix(0.07720588147640228, 0, 0, 0.07720588147640228, 244.7, 109.45)"/>
    </g>
    <g id="ID0.360354826785624" transform="matrix(1, 0, 0, 1, 3.6, -8.25)">
      <path id="ID0.10462491353973746" fill="#FFFFFF" stroke="#FFFFFF" stroke-width="2" stroke-linecap="round" d="M 265.100 123.300 C 266.394 123.249 272.236 109.921 269.060 106.661 C 265.896 103.414 252.567 109.039 252.600 110.300 C 252.567 111.555 265.964 117.298 269.060 114.189 C 272.105 111.131 266.065 97.876 264.700 97.950 C 263.431 97.876 258.160 111.124 261.390 114.189 C 264.655 117.287 277.748 111.417 277.800 110.150 C 277.748 108.882 264.578 103.458 261.390 106.661 C 258.221 109.852 263.800 123.249 265.100 123.300 Z " transform="matrix(0.07720588147640228, 0, 0, 0.07720588147640228, 252.75, 108)"/>
      <path id="ID0.10462491353973746" fill="#FFFFFF" stroke="#FFFFFF" stroke-width="2" stroke-linecap="round" d="M 265.100 123.300 C 266.394 123.249 272.236 109.921 269.060 106.661 C 265.896 103.414 252.567 109.039 252.600 110.300 C 252.567 111.555 265.964 117.298 269.060 114.189 C 272.105 111.131 266.065 97.876 264.700 97.950 C 263.431 97.876 258.160 111.124 261.390 114.189 C 264.655 117.287 277.748 111.417 277.800 110.150 C 277.748 108.882 264.578 103.458 261.390 106.661 C 258.221 109.852 263.800 123.249 265.100 123.300 Z " transform="matrix(0.07720588147640228, 0, 0, 0.07720588147640228, 247, 105)"/>
      <path id="ID0.10462491353973746" fill="#FFFFFF" stroke="#FFFFFF" stroke-width="2" stroke-linecap="round" d="M 265.100 123.300 C 266.394 123.249 272.236 109.921 269.060 106.661 C 265.896 103.414 252.567 109.039 252.600 110.300 C 252.567 111.555 265.964 117.298 269.060 114.189 C 272.105 111.131 266.065 97.876 264.700 97.950 C 263.431 97.876 258.160 111.124 261.390 114.189 C 264.655 117.287 277.748 111.417 277.800 110.150 C 277.748 108.882 264.578 103.458 261.390 106.661 C 258.221 109.852 263.800 123.249 265.100 123.300 Z " transform="matrix(0.07720588147640228, 0, 0, 0.07720588147640228, 246.25, 113.4)"/>
      <path id="ID0.10462491353973746" fill="#FFFFFF" stroke="#FFFFFF" stroke-width="2" stroke-linecap="round" d="M 265.100 123.300 C 266.394 123.249 272.236 109.921 269.060 106.661 C 265.896 103.414 252.567 109.039 252.600 110.300 C 252.567 111.555 265.964 117.298 269.060 114.189 C 272.105 111.131 266.065 97.876 264.700 97.950 C 263.431 97.876 258.160 111.124 261.390 114.189 C 264.655 117.287 277.748 111.417 277.800 110.150 C 277.748 108.882 264.578 103.458 261.390 106.661 C 258.221 109.852 263.800 123.249 265.100 123.300 Z " transform="matrix(0.07720588147640228, 0, 0, 0.07720588147640228, 250, 111.1)"/>
      <path id="ID0.10462491353973746" fill="#FFFFFF" stroke="#FFFFFF" stroke-width="2" stroke-linecap="round" d="M 265.100 123.300 C 266.394 123.249 272.236 109.921 269.060 106.661 C 265.896 103.414 252.567 109.039 252.600 110.300 C 252.567 111.555 265.964 117.298 269.060 114.189 C 272.105 111.131 266.065 97.876 264.700 97.950 C 263.431 97.876 258.160 111.124 261.390 114.189 C 264.655 117.287 277.748 111.417 277.800 110.150 C 277.748 108.882 264.578 103.458 261.390 106.661 C 258.221 109.852 263.800 123.249 265.100 123.300 Z " transform="matrix(0.07720588147640228, 0, 0, 0.07720588147640228, 244.7, 109.45)"/>
    </g>
  </g>
</svg>